{
classes = (
{
code = "A Aacute Abreve Acircumflex Adieresis Agrave Amacron Aogonek Aring Atilde AE B C Cacute Ccaron Ccedilla Cdotaccent D Eth Dcaron Dcroat E Eacute Ecaron Ecircumflex Edieresis Edotaccent Egrave Emacron Eogonek F G Gbreve Gcommaaccent Gdotaccent H Hbar I Iacute Icircumflex Idieresis Idotaccent Igrave Imacron Iogonek J K Kcommaaccent L Lacute Lcaron Lcommaaccent Lslash M N Nacute Ncaron Ncommaaccent Eng Ntilde O Oacute Ocircumflex Odieresis Ograve Ohungarumlaut Omacron Oslash Otilde OE P Thorn Q R Racute Rcaron Rcommaaccent S Sacute Scaron Scedilla Scommaaccent Germandbls T Tbar Tcaron Tcedilla Tcommaaccent U Uacute Ucircumflex Udieresis Ugrave Uhungarumlaut Umacron Uogonek Uring V W Wacute Wcircumflex Wdieresis Wgrave X Y Yacute Ycircumflex Ydieresis Ygrave Z Zacute Zcaron Zdotaccent A-cy Be-cy Ve-cy Ge-cy Gje-cy Gheupturn-cy De-cy Ie-cy Iegrave-cy Io-cy Zhe-cy Ze-cy Ii-cy Iishort-cy Iigrave-cy Ka-cy Kje-cy El-cy Em-cy En-cy O-cy Pe-cy Er-cy Es-cy Te-cy U-cy Ushort-cy Ef-cy Ha-cy Che-cy Tse-cy Sha-cy Shcha-cy Dzhe-cy Softsign-cy Hardsign-cy Yeru-cy Lje-cy Nje-cy Dze-cy E-cy Ereversed-cy I-cy Yi-cy Je-cy Tshe-cy Iu-cy Ia-cy Dje-cy Ustrait-cy Shha-cy Obarred-cy De-cy.loclBGR Zhe-cy.loclBGR Ka-cy.loclBGR El-cy.loclBGR Alpha Beta Gamma Delta Epsilon Zeta Eta Theta Iota Kappa Lambda Mu Nu Xi Omicron Pi Rho Sigma Tau Upsilon Phi Chi Psi Omega Alphatonos Epsilontonos Etatonos Iotatonos Omicrontonos Upsilontonos Omegatonos Iotadieresis Upsilondieresis";
name = Uppercase;
},
{
code = "zero one two three four five six seven eight nine";
name = Digit;
}
);
copyright = "Copyright 2019 The Manrope Project Authors (https://github.com/sharanda/manrope)";
designer = "Mikhail Sharanda";
designerURL = "http://gent.media";
familyName = Manrope;
customParameters = (
{
name = glyphOrder;
value = (
A,
Aacute,
Abreve,
Abreveacute,
Abrevedotbelow,
Abrevegrave,
Abrevehookabove,
Abrevetilde,
Acircumflex,
Acircumflexacute,
Acircumflexdotbelow,
Acircumflexgrave,

glyphs = (
{
glyphname = A;
layers = (
{
layerId = "6571C5BB-D9C1-4570-8E40-7CA3FF1E644F";
name = Layer5;
width = 1264;
},
{
layerId = "CBCB5F37-9E29-4BCC-9D4B-3E9EA04104CC";
name = Layer4;
width = 986;
},
{
layerId = "AE607061-5769-4FDA-9CBB-E069495578C9";
name = Layer3;
paths = (
{
closed = 1;
nodes = (
"10 0 LINE",
"310 0 LINE",
"366 180 LINE",
"952 180 LINE",
"1008 0 LINE",
"1308 0 LINE",
"868 1440 LINE",
"450 1440 LINE"
);
},
{
closed = 1;
nodes = (
"660 1140 LINE",
"862 480 LINE",
"458 480 LINE"
);
}
);
width = 1318;
},
{
layerId = "1859055D-7BE4-451C-9A54-85DF861917C1";
paths = (
{
closed = 1;
nodes = (
"280 0 LINE",
"948 1270 LINE",
"896 1270 LINE",
"1006 0 LINE",
"1286 0 LINE",
"1165 1440 LINE",
"759 1440 LINE",
"0 0 LINE"
);
},
{
closed = 1;
nodes = (
"1091 300 LINE",
"1147 554 LINE",
"387 554 LINE",
"331 300 LINE"
);
}
);
width = 1366;
},
{
layerId = "E6C7DF62-62C5-46F1-94C3-6D079D8A542C";
paths = (
{
closed = 1;
nodes = (
"90 0 LINE",
"909 1402 LINE",
"849 1402 LINE",
"1048 0 LINE",
"1138 0 LINE",
"933 1440 LINE",
"843 1440 LINE",
"0 0 LINE"
);
},
{
closed = 1;
nodes = (
"1019 374 LINE",
"1037 454 LINE",
"301 454 LINE",
"283 374 LINE"
);
}
);
width = 1218;
}
);
leftKerningGroup = A;
rightKerningGroup = A;
unicode = 0041;
},
{
glyphname = AE;
layers = (
{
layerId = "6571C5BB-D9C1-4570-8E40-7CA3FF1E644F";
name = Layer5;
width = 1308;
},
{
layerId = "CBCB5F37-9E29-4BCC-9D4B-3E9EA04104CC";
name = Layer4;
width = 1876;
},
{
layerId = "AE607061-5769-4FDA-9CBB-E069495578C9";
name = Layer3;
width = 1200;
},
{
components = (
{
name = E;
transform = "{1, 0, 0, 1, 710, 0}";
alignment = -1;
}
);
layerId = "1859055D-7BE4-451C-9A54-85DF861917C1";
paths = (
{
closed = 1;
nodes = (
"280 0 LINE",
"948 1272 LINE",
"813 1186 LINE",
"1163 1186 LINE",
"1219 1440 LINE",
"759 1440 LINE",
"0 0 LINE"
);
},
{
closed = 1;
nodes = (
"1091 300 LINE",
"1147 554 LINE",
"387 554 LINE",
"331 300 LINE"
);
}
);
width = 1890;
},
{
components = (
{
name = E;
transform = "{1, 0, 0, 1, 690, 0}";
alignment = -1;
}
);
layerId = "E6C7DF62-62C5-46F1-94C3-6D079D8A542C";
paths = (
{
closed = 1;
nodes = (
"90 0 LINE",
"906 1398 LINE",
"833 1356 LINE",
"1131 1356 LINE",
"1149 1440 LINE",
"843 1440 LINE",
"0 0 LINE"
);
},
{
closed = 1;
nodes = (
"919 374 LINE",
"937 454 LINE",
"301 454 LINE",
"283 374 LINE"
);
}
);
width = 1810;
}
);
leftKerningGroup = A;
rightKerningGroup = E;
unicode = 00C6;
},
{
glyphname = B;
layers = (
{
layerId = "321621ED-8527-4E96-9E7D-BC9A5BD846D9";
name = Layer7;
width = 1202;
},
{
layerId = "BA5DD788-FCBD-4F2A-AA95-5120243F7D5A";
name = Layer6;
width = 1212;
},
{
layerId = "6571C5BB-D9C1-4570-8E40-7CA3FF1E644F";
name = Layer5;
width = 1200;
},
{
layerId = "FD50858D-8A7B-4C5A-A944-44D81032B0FE";
name = public.background;
paths = (
{
closed = 1;
nodes = (
"712 878 LINE SMOOTH",
"772 878 OFFCURVE",
"808 896 OFFCURVE",
"838 926 CURVE SMOOTH",
"866 954 OFFCURVE",
"872 992 OFFCURVE",
"872 1030 CURVE SMOOTH",
"872 1070 OFFCURVE",
"860 1112 OFFCURVE",
"828 1144 CURVE SMOOTH",
"798 1174 OFFCURVE",
"760 1186 OFFCURVE",
"712 1186 CURVE SMOOTH",
"390 1186 LINE",
"390 1440 LINE",
"714 1440 LINE SMOOTH",
"840 1440 OFFCURVE",
"936 1414 OFFCURVE",
"1022 1334 CURVE SMOOTH",
"1110 1252 OFFCURVE",
"1146 1150 OFFCURVE",
"1148 1030 CURVE SMOOTH",
"1150 926 OFFCURVE",
"1106 832 OFFCURVE",
"1044 782 CURVE SMOOTH",
"976 726 OFFCURVE",
"886 704 OFFCURVE",
"794 704 CURVE SMOOTH",
"350 704 LINE",
"350 878 LINE"
);
},
{
closed = 1;
nodes = (
"750 256 LINE SMOOTH",
"808 256 OFFCURVE",
"850 274 OFFCURVE",
"886 308 CURVE SMOOTH",
"922 342 OFFCURVE",
"940 388 OFFCURVE",
"940 440 CURVE SMOOTH",
"940 488 OFFCURVE",
"926 540 OFFCURVE",
"890 576 CURVE SMOOTH",
"848 618 OFFCURVE",
"792 624 OFFCURVE",
"750 624 CURVE SMOOTH",
"376 624 LINE",
"376 796 LINE",
"788 796 LINE SMOOTH",
"882 796 OFFCURVE",
"1014 776 OFFCURVE",
"1100 704 CURVE SMOOTH",
"1170 644 OFFCURVE",
"1214 540 OFFCURVE",
"1214 440 CURVE SMOOTH",
"1214 310 OFFCURVE",
"1180 190 OFFCURVE",
"1090 106 CURVE SMOOTH",
"1006 28 OFFCURVE",
"920 0 OFFCURVE",
"748 0 CURVE SMOOTH",
"376 0 LINE",
"376 256 LINE"
);
},
{
closed = 1;
nodes = (
"416 1440 LINE",
"416 0 LINE",
"140 0 LINE",
"140 1440 LINE"
);
}
);
width = 1274;
},
{
layerId = "1859055D-7BE4-451C-9A54-85DF861917C1";
paths = (
{
closed = 1;
nodes = (
"738 0 LINE SMOOTH",
"1032 0 OFFCURVE",
"1213 178 OFFCURVE",
"1271 436 CURVE SMOOTH",
"1306 596 OFFCURVE",
"1248 740 OFFCURVE",
"1076 778 CURVE",
"1065 728 LINE",
"1199 764 OFFCURVE",
"1302 874 OFFCURVE",
"1338 1036 CURVE SMOOTH",
"1380 1226 OFFCURVE",
"1303 1440 OFFCURVE",
"995 1440 CURVE SMOOTH",
"419 1440 LINE",
"100 0 LINE"
);
},
{
closed = 1;
nodes = (
"514 624 LINE",
"848 624 LINE SMOOTH",
"974 624 OFFCURVE",
"1021 548 OFFCURVE",
"999 446 CURVE SMOOTH",
"973 330 OFFCURVE",
"877 256 OFFCURVE",
"767 256 CURVE SMOOTH",
"433 256 LINE"
);
},
{
closed = 1;
nodes = (
"639 1186 LINE",
"935 1186 LINE SMOOTH",
"1039 1186 OFFCURVE",
"1080 1118 OFFCURVE",
"1060 1030 CURVE SMOOTH",
"1037 924 OFFCURVE",
"959 878 OFFCURVE",
"867 878 CURVE SMOOTH",
"571 878 LINE"
);
}
);
width = 1274;
},
{
layerId = "FD50858D-8A7B-4C5A-A944-44D81032B0FE";
name = public.background;
paths = (
{
closed = 1;
nodes = (
"686 800 LINE SMOOTH",
"774 800 OFFCURVE",
"874 844 OFFCURVE",
"928 924 CURVE SMOOTH",
"964 976 OFFCURVE",
"982 1038 OFFCURVE",
"982 1100 CURVE SMOOTH",
"982 1168 OFFCURVE",
"956 1226 OFFCURVE",
"910 1272 CURVE SMOOTH",
"854 1328 OFFCURVE",
"774 1358 OFFCURVE",
"686 1358 CURVE",
"220 1358 LINE",
"220 1440 LINE",
"686 1440 LINE",
"804 1440 OFFCURVE",
"898 1398 OFFCURVE",
"976 1324 CURVE SMOOTH",
"1038 1264 OFFCURVE",
"1072 1164 OFFCURVE",
"1072 1080 CURVE SMOOTH",
"1072 1004 OFFCURVE",
"1046 934 OFFCURVE",
"1002 872 CURVE SMOOTH",
"934 776 OFFCURVE",
"830 718 OFFCURVE",
"696 718 CURVE",
"220 718 LINE",
"220 800 LINE"
);
},
{
closed = 1;
nodes = (
"684 84 LINE",
"806 84 OFFCURVE",
"884 102 OFFCURVE",
"974 188 CURVE SMOOTH",
"1028 240 OFFCURVE",
"1052 306 OFFCURVE",
"1052 380 CURVE SMOOTH",
"1052 450 OFFCURVE",
"1032 520 OFFCURVE",
"992 576 CURVE",
"936 664 OFFCURVE",
"816 718 OFFCURVE",
"724 718 CURVE",
"220 718 LINE",
"220 798 LINE",
"724 798 LINE",
"868 798 OFFCURVE",
"986 736 OFFCURVE",
"1062 630 CURVE",
"1118 560 OFFCURVE",
"1148 468 OFFCURVE",
"1142 380 CURVE SMOOTH",
"1136 292 OFFCURVE",
"1108 198 OFFCURVE",
"1052 136 CURVE SMOOTH",
"954 30 OFFCURVE",
"866 0 OFFCURVE",
"686 0 CURVE",
"180 0 LINE",
"180 84 LINE"
);
},
{
closed = 1;
nodes = (
"224 1440 LINE",
"224 0 LINE",
"140 0 LINE",
"140 1440 LINE"
);
}
);
width = 1274;
},
{
layerId = "E6C7DF62-62C5-46F1-94C3-6D079D8A542C";
paths = (
{
closed = 1;
nodes = (
"684 0 LINE SMOOTH",
"918 0 OFFCURVE",
"1135 142 OFFCURVE",
"1190 388 CURVE SMOOTH",
"1235 592 OFFCURVE",
"1139 728 OFFCURVE",
"963 790 CURVE",
"956 742 LINE",
"1112 794 OFFCURVE",
"1239 934 OFFCURVE",
"1273 1086 CURVE SMOOTH",
"1319 1296 OFFCURVE",
"1173 1440 OFFCURVE",
"965 1440 CURVE SMOOTH",
"419 1440 LINE",
"100 0 LINE"
);
},
{
closed = 1;
nodes = (
"343 718 LINE",
"843 718 LINE SMOOTH",
"1023 718 OFFCURVE",
"1138 568 OFFCURVE",
"1096 380 CURVE SMOOTH",
"1055 192 OFFCURVE",
"871 84 OFFCURVE",
"663 84 CURVE SMOOTH",
"203 84 LINE"
);
},
{
closed = 1;
nodes = (
"485 1358 LINE",
"947 1358 LINE SMOOTH",
"1113 1358 OFFCURVE",
"1220 1252 OFFCURVE",
"1184 1092 CURVE SMOOTH",
"1148 928 OFFCURVE",
"985 800 OFFCURVE",
"823 800 CURVE SMOOTH",
"361 800 LINE"
);
}
);
width = 1202;
}
);
leftKerningGroup = B;
rightKerningGroup = B;
unicode = 0042;
},
{
glyphname = C;
layers = (
{
layerId = "6571C5BB-D9C1-4570-8E40-7CA3FF1E644F";
name = Layer5;
width = 1238;
},
{
layerId = "CBCB5F37-9E29-4BCC-9D4B-3E9EA04104CC";
name = Layer4;
width = 1436;
},
{
layerId = "AE607061-5769-4FDA-9CBB-E069495578C9";
name = Layer3;
width = 1200;
},
{
layerId = "1859055D-7BE4-451C-9A54-85DF861917C1";
paths = (
{
closed = 1;
nodes = (
"1082.429 -30 OFFCURVE",
"1286.668 99.942 OFFCURVE",
"1466 426 CURVE",
"1209 502 LINE",
"1106.08 307.348 OFFCURVE",
"987.402 226 OFFCURVE",
"768 226 CURVE SMOOTH",
"504.267 226 OFFCURVE",
"401.41 430.79 OFFCURVE",
"466 720 CURVE SMOOTH",
"535.29 1034.954 OFFCURVE",
"675.706 1214 OFFCURVE",
"987 1214 CURVE SMOOTH",
"1179.133 1214 OFFCURVE",
"1289.776 1126.2 OFFCURVE",
"1306 938 CURVE",
"1597 1014 LINE",
"1563.051 1330.853 OFFCURVE",
"1370.304 1470 OFFCURVE",
"1044 1470 CURVE SMOOTH",
"543.889 1470 OFFCURVE",
"289.749 1216.641 OFFCURVE",
"180 720 CURVE SMOOTH",
"80.627 274.807 OFFCURVE",
"279.842 -30 OFFCURVE",
"711 -30 CURVE SMOOTH"
);
}
);
width = 1492;
},
{
layerId = "E6C7DF62-62C5-46F1-94C3-6D079D8A542C";
paths = (
{
closed = 1;
nodes = (
"1026.869 -30 OFFCURVE",
"1222.855 117.062 OFFCURVE",
"1380 452 CURVE",
"1297 472 LINE",
"1159.956 184.32 OFFCURVE",
"994.305 54 OFFCURVE",
"678 54 CURVE SMOOTH",
"320.866 54 OFFCURVE",
"179.125 330.534 OFFCURVE",
"270 720 CURVE SMOOTH",
"367.695 1143.347 OFFCURVE",
"554.033 1386 OFFCURVE",
"973 1386 CURVE SMOOTH",
"1248.332 1386 OFFCURVE",
"1398.349 1242.656 OFFCURVE",
"1407 968 CURVE",
"1499 988 LINE",
"1491.368 1306.351 OFFCURVE",
"1313.226 1470 OFFCURVE",
"992 1470 CURVE SMOOTH",
"511.659 1470 OFFCURVE",
"286.558 1203.356 OFFCURVE",
"180 720 CURVE SMOOTH",
"81.843 279.294 OFFCURVE",
"250.363 -30 OFFCURVE",
"659 -30 CURVE SMOOTH"
);
}
);
width = 1400;
}
);
leftKerningGroup = C;
rightKerningGroup = C;
unicode = 0043;
},
{
glyphname = D;
layers = (
{
layerId = "0B449CB6-2188-419A-9A7B-C88758FF5778";
name = "#instance";
paths = (
{
closed = 1;
nodes = (
"522 0 LINE SMOOTH",
"554 0 OFFCURVE",
"646 0 OFFCURVE",
"716 10 CURVE SMOOTH",
"1044 56 OFFCURVE",
"1262 350 OFFCURVE",
"1344 720 CURVE SMOOTH",
"1425 1088 OFFCURVE",
"1339 1384 OFFCURVE",
"1031 1430 CURVE SMOOTH",
"963 1440 OFFCURVE",
"875 1440 OFFCURVE",
"841 1440 CURVE SMOOTH",
"419 1440 LINE",
"100 0 LINE"
);
},
{
closed = 1;
nodes = (
"491 1356 LINE",
"823 1356 LINE SMOOTH",
"883 1356 OFFCURVE",
"956 1352 OFFCURVE",
"998 1344 CURVE SMOOTH",
"1271 1296 OFFCURVE",
"1326 1048 OFFCURVE",
"1254 720 CURVE SMOOTH",
"1181 392 OFFCURVE",
"1016 144 OFFCURVE",
"721 96 CURVE",
"676 88 OFFCURVE",
"605 84 OFFCURVE",
"541 84 CURVE SMOOTH",
"209 84 LINE"
);
}
);
width = 1304;
},
{
layerId = "321621ED-8527-4E96-9E7D-BC9A5BD846D9";
name = Layer7;
width = 1220;
},
{
layerId = "BA5DD788-FCBD-4F2A-AA95-5120243F7D5A";
name = Layer6;
width = 1326;
},
{
layerId = "6571C5BB-D9C1-4570-8E40-7CA3FF1E644F";
name = Layer5;
width = 1200;
},
{
layerId = "FD50858D-8A7B-4C5A-A944-44D81032B0FE";
name = public.background;
paths = (
{
closed = 1;
nodes = (
"606 0 LINE SMOOTH",
"628 0 OFFCURVE",
"712 0 OFFCURVE",
"778 8 CURVE SMOOTH",
"1126 50 OFFCURVE",
"1320 354 OFFCURVE",
"1320 720 CURVE SMOOTH",
"1320 1086 OFFCURVE",
"1126 1390 OFFCURVE",
"778 1432 CURVE SMOOTH",
"712 1440 OFFCURVE",
"628 1440 OFFCURVE",
"606 1440 CURVE SMOOTH",
"140 1440 LINE",
"140 0 LINE"
);
},
{
closed = 1;
nodes = (
"416 1184 LINE",
"606 1184 LINE SMOOTH",
"642 1184 OFFCURVE",
"712 1184 OFFCURVE",
"762 1174 CURVE SMOOTH",
"944 1138 OFFCURVE",
"1032 936 OFFCURVE",
"1032 720 CURVE SMOOTH",
"1032 514 OFFCURVE",
"950 304 OFFCURVE",
"762 266 CURVE SMOOTH",
"712 256 OFFCURVE",
"642 256 OFFCURVE",
"606 256 CURVE SMOOTH",
"416 256 LINE"
);
}
);
width = 1420;
},
{
layerId = "1859055D-7BE4-451C-9A54-85DF861917C1";
paths = (
{
closed = 1;
nodes = (
"566 0 LINE SMOOTH",
"634.363 0 OFFCURVE",
"672.094 0.011 OFFCURVE",
"740 8 CURVE SMOOTH",
"1164.472 57.938 OFFCURVE",
"1344.722 294.734 OFFCURVE",
"1440 720 CURVE SMOOTH",
"1525.941 1108.325 OFFCURVE",
"1415.235 1387.369 OFFCURVE",
"1055 1432 CURVE SMOOTH",
"988.7 1440.288 OFFCURVE",
"951.802 1440 OFFCURVE",
"885 1440 CURVE SMOOTH",
"419 1440 LINE",
"100 0 LINE"
);
},
{
closed = 1;
nodes = (
"638 1184 LINE",
"828 1184 LINE SMOOTH",
"888.676 1184 OFFCURVE",
"922.55 1186.385 OFFCURVE",
"982 1174 CURVE SMOOTH",
"1188.241 1131.33 OFFCURVE",
"1204.042 954.187 OFFCURVE",
"1152 720 CURVE SMOOTH",
"1096.507 471.488 OFFCURVE",
"1024.049 313.122 OFFCURVE",
"781 266 CURVE SMOOTH",
"719.859 254.242 OFFCURVE",
"685.22 256 OFFCURVE",
"623 256 CURVE SMOOTH",
"433 256 LINE"
);
}
);
width = 1420;
},
{
layerId = "FD50858D-8A7B-4C5A-A944-44D81032B0FE";
name = public.background;
paths = (
{
closed = 1;
nodes = (
"562 0 LINE SMOOTH",
"594 0 OFFCURVE",
"686 0 OFFCURVE",
"754 10 CURVE SMOOTH",
"1072 56 OFFCURVE",
"1224 350 OFFCURVE",
"1224 720 CURVE SMOOTH",
"1224 1088 OFFCURVE",
"1072 1384 OFFCURVE",
"754 1430 CURVE SMOOTH",
"684 1440 OFFCURVE",
"596 1440 OFFCURVE",
"562 1440 CURVE SMOOTH",
"140 1440 LINE",
"140 0 LINE"
);
},
{
closed = 1;
nodes = (
"230 1356 LINE",
"562 1356 LINE SMOOTH",
"626 1356 OFFCURVE",
"696 1352 OFFCURVE",
"740 1344 CURVE SMOOTH",
"1024 1296 OFFCURVE",
"1134 1048 OFFCURVE",
"1134 720 CURVE SMOOTH",
"1134 392 OFFCURVE",
"1024 144 OFFCURVE",
"740 96 CURVE SMOOTH",
"696 88 OFFCURVE",
"626 84 OFFCURVE",
"562 84 CURVE SMOOTH",
"230 84 LINE"
);
}
);
width = 1420;
},
{
layerId = "E6C7DF62-62C5-46F1-94C3-6D079D8A542C";
paths = (
{
closed = 1;
nodes = (
"522 0 LINE SMOOTH",
"598.271 0 OFFCURVE",
"640.472 -0.79 OFFCURVE",
"716 10 CURVE SMOOTH",
"1115.047 65.964 OFFCURVE",
"1254.185 314.738 OFFCURVE",
"1344 720 CURVE SMOOTH",
"1427.275 1098.334 OFFCURVE",
"1367.571 1379.733 OFFCURVE",
"1031 1430 CURVE SMOOTH",
"957.063 1440.873 OFFCURVE",
"915.708 1440 OFFCURVE",
"841 1440 CURVE SMOOTH",
"419 1440 LINE",
"100 0 LINE"
);
},
{
closed = 1;
nodes = (
"491 1356 LINE",
"823 1356 LINE SMOOTH",
"891.934 1356 OFFCURVE",
"930.248 1356.905 OFFCURVE",
"998 1344 CURVE SMOOTH",
"1287.884 1293.031 OFFCURVE",
"1325.889 1047.494 OFFCURVE",
"1254 720 CURVE SMOOTH",
"1176.191 370.391 OFFCURVE",
"1064.288 151.857 OFFCURVE",
"721 96 CURVE SMOOTH",
"651.19 83.589 OFFCURVE",
"611.875 84 OFFCURVE",
"541 84 CURVE SMOOTH",
"209 84 LINE"
);
}
);
width = 1304;
}
);
rightKerningGroup = D;
unicode = 0044;
},
{
glyphname = Eth;
layers = (
{
layerId = "6571C5BB-D9C1-4570-8E40-7CA3FF1E644F";
name = Layer5;
width = 1236;
},
{
layerId = "CBCB5F37-9E29-4BCC-9D4B-3E9EA04104CC";
name = Layer4;
width = 1422;
},
{
layerId = "AE607061-5769-4FDA-9CBB-E069495578C9";
name = Layer3;
width = 1200;
},
{
components = (
{
name = D;
transform = "{1, 0, 0, 1, 8, 0}";
alignment = -1;
}
);
layerId = "1859055D-7BE4-451C-9A54-85DF861917C1";
paths = (
{
closed = 1;
nodes = (
"807 616 LINE",
"853 826 LINE",
"163 826 LINE",
"117 616 LINE"
);
}
);
width = 1428;
},
{
components = (
{
name = D;
transform = "{1, 0, 0, 1, -22, 0}";
alignment = -1;
}
);
layerId = "E6C7DF62-62C5-46F1-94C3-6D079D8A542C";
paths = (
{
closed = 1;
nodes = (
"730 678 LINE",
"749 762 LINE",
"149 762 LINE",
"130 678 LINE"
);
}
);
width = 1282;
}
);
leftKerningGroup = D;
rightKerningGroup = D;
unicode = 00D0;
},
{
glyphname = E;
layers = (
{
layerId = "AE607061-5769-4FDA-9CBB-E069495578C9";
name = Layer3;
width = 1200;
},
{
layerId = "CBCB5F37-9E29-4BCC-9D4B-3E9EA04104CC";
name = Layer4;
width = 1126;
},
{
layerId = "6571C5BB-D9C1-4570-8E40-7CA3FF1E644F";
name = Layer5;
width = 1188;
},
{
layerId = "1859055D-7BE4-451C-9A54-85DF861917C1";
paths = (
{
closed = 1;
nodes = (
"1040 0 LINE",
"1096 254 LINE",
"428 254 LINE",
"510 624 LINE",
"1058 624 LINE",
"1115 878 LINE",
"567 878 LINE",
"635 1186 LINE",
"1303 1186 LINE",
"1359 1440 LINE",
"419 1440 LINE",
"100 0 LINE"
);
}
);
width = 1180;
},
{
layerId = "E6C7DF62-62C5-46F1-94C3-6D079D8A542C";
paths = (
{
closed = 1;
nodes = (
"980 0 LINE",
"999 84 LINE",
"203 84 LINE",
"334 678 LINE",
"1010 678 LINE",
"1029 762 LINE",
"353 762 LINE",
"485 1356 LINE",
"1281 1356 LINE",
"1299 1440 LINE",
"419 1440 LINE",
"100 0 LINE"
);
}
);
width = 1120;
}
);
leftKerningGroup = E;
rightKerningGroup = E;
unicode = 0045;
},
{
glyphname = F;
layers = (
{
layerId = "6571C5BB-D9C1-4570-8E40-7CA3FF1E644F";
name = Layer5;
width = 1168;
},
{
layerId = "CBCB5F37-9E29-4BCC-9D4B-3E9EA04104CC";
name = Layer4;
width = 1000;
},
{
layerId = "AE607061-5769-4FDA-9CBB-E069495578C9";
name = Layer3;
width = 1200;
},
{
layerId = "1859055D-7BE4-451C-9A54-85DF861917C1";
paths = (
{
closed = 1;
nodes = (
"372 0 LINE",
"501 584 LINE",
"989 584 LINE",
"1050 856 LINE",
"562 856 LINE",
"631 1168 LINE",
"1239 1168 LINE",
"1299 1440 LINE",
"419 1440 LINE",
"100 0 LINE"
);
}
);
width = 1060;
},
{
layerId = "E6C7DF62-62C5-46F1-94C3-6D079D8A542C";
paths = (
{
closed = 1;
nodes = (
"184 0 LINE",
"334 678 LINE",
"930 678 LINE",
"949 762 LINE",
"353 762 LINE",
"485 1356 LINE",
"1201 1356 LINE",
"1219 1440 LINE",
"419 1440 LINE",
"100 0 LINE"
);
}
);
width = 980;
}
);
unicode = 0046;
},
{
glyphname = G;
layers = (
{
layerId = "0B449CB6-2188-419A-9A7B-C88758FF5778";
name = "#instance";
paths = (
{
closed = 1;
nodes = (
"1098.051 -30 OFFCURVE",
"1317.36 196.944 OFFCURVE",
"1415 634 CURVE SMOOTH",
"1422.43 667.436 OFFCURVE",
"1425.532 686.042 OFFCURVE",
"1430 720 CURVE",
"960 720 LINE",
"941 636 LINE",
"1325 636 LINE",
"1240.625 256.859 OFFCURVE",
"1056.927 54 OFFCURVE",
"678 54 CURVE SMOOTH",
"320.866 54 OFFCURVE",
"179.125 330.534 OFFCURVE",
"270 720 CURVE SMOOTH",
"367.523 1142.602 OFFCURVE",
"554.523 1384 OFFCURVE",
"973 1384 CURVE SMOOTH",
"1193.811 1384 OFFCURVE",
"1327.645 1300.131 OFFCURVE",
"1363 1088 CURVE",
"1453 1122 LINE",
"1412.563 1371.972 OFFCURVE",
"1252.176 1468 OFFCURVE",
"991 1468 CURVE SMOOTH",
"511.504 1468 OFFCURVE",
"286.339 1202.361 OFFCURVE",
"180 720 CURVE SMOOTH",
"81.843 279.294 OFFCURVE",
"250.363 -30 OFFCURVE",
"659 -30 CURVE SMOOTH"
);
}
);
width = 1374;
},
{
layerId = "6571C5BB-D9C1-4570-8E40-7CA3FF1E644F";
name = Layer5;
width = 1242;
},
{
layerId = "CBCB5F37-9E29-4BCC-9D4B-3E9EA04104CC";
name = Layer4;
width = 1466;
},
{
layerId = "AE607061-5769-4FDA-9CBB-E069495578C9";
name = Layer3;
width = 1200;
},
{
layerId = "1859055D-7BE4-451C-9A54-85DF861917C1";
paths = (
{
closed = 1;
nodes = (
"1174.414 -30 OFFCURVE",
"1427.555 202.833 OFFCURVE",
"1532 678 CURVE SMOOTH",
"1542.62 709.86 OFFCURVE",
"1543.295 728.651 OFFCURVE",
"1547 762 CURVE",
"1029 762 LINE",
"982 552 LINE",
"1210 552 LINE",
"1119.216 331.8 OFFCURVE",
"1002.166 220.937 OFFCURVE",
"768 226 CURVE SMOOTH",
"504.887 229.855 OFFCURVE",
"403.94 433.164 OFFCURVE",
"468 720 CURVE SMOOTH",
"537.524 1036.016 OFFCURVE",
"676.267 1218.553 OFFCURVE",
"987 1214 CURVE SMOOTH",
"1168.23 1212.03 OFFCURVE",
"1263.764 1117.844 OFFCURVE",
"1280 936 CURVE",
"1566 976 LINE",
"1563.89 1307.242 OFFCURVE",
"1366.569 1470 OFFCURVE",
"1026 1470 CURVE SMOOTH",
"532.932 1470 OFFCURVE",
"289.071 1211.846 OFFCURVE",
"180 720 CURVE SMOOTH",
"80.933 276.469 OFFCURVE",
"269.786 -30 OFFCURVE",
"693 -30 CURVE SMOOTH"
);
}
);
width = 1482;
},
{
layerId = "E6C7DF62-62C5-46F1-94C3-6D079D8A542C";
paths = (
{
closed = 1;
nodes = (
"1098.051 -30 OFFCURVE",
"1317.36 196.944 OFFCURVE",
"1415 634 CURVE SMOOTH",
"1422.43 667.436 OFFCURVE",
"1425.532 686.042 OFFCURVE",
"1430 720 CURVE",
"960 720 LINE",
"941 636 LINE",
"1325 636 LINE",
"1240.625 256.859 OFFCURVE",
"1056.927 54 OFFCURVE",
"678 54 CURVE SMOOTH",
"320.866 54 OFFCURVE",
"179.125 330.534 OFFCURVE",
"270 720 CURVE SMOOTH",
"367.523 1142.602 OFFCURVE",
"554.523 1384 OFFCURVE",
"973 1384 CURVE SMOOTH",
"1193.811 1384 OFFCURVE",
"1327.645 1300.131 OFFCURVE",
"1363 1088 CURVE",
"1453 1122 LINE",
"1412.563 1371.972 OFFCURVE",
"1252.176 1468 OFFCURVE",
"991 1468 CURVE SMOOTH",
"511.504 1468 OFFCURVE",
"286.339 1202.361 OFFCURVE",
"180 720 CURVE SMOOTH",
"81.843 279.294 OFFCURVE",
"250.363 -30 OFFCURVE",
"659 -30 CURVE SMOOTH"
);
}
);
width = 1374;
}
);
leftKerningGroup = O;
rightKerningGroup = G;
unicode = 0047;
},
{
glyphname = H;
layers = (
{
layerId = "6571C5BB-D9C1-4570-8E40-7CA3FF1E644F";
name = Layer5;
width = 1240;
},
{
layerId = "CBCB5F37-9E29-4BCC-9D4B-3E9EA04104CC";
name = Layer4;
width = 1450;
},
{
layerId = "AE607061-5769-4FDA-9CBB-E069495578C9";
name = Layer3;
width = 1200;
},
{
layerId = "1859055D-7BE4-451C-9A54-85DF861917C1";
paths = (
{
closed = 1;
nodes = (
"372 0 LINE",
"504 594 LINE",
"1148 594 LINE",
"1016 0 LINE",
"1288 0 LINE",
"1607 1440 LINE",
"1335 1440 LINE",
"1204 848 LINE",
"560 848 LINE",
"691 1440 LINE",
"419 1440 LINE",
"100 0 LINE"
);
}
);
width = 1468;
},
{
layerId = "E6C7DF62-62C5-46F1-94C3-6D079D8A542C";
paths = (
{
closed = 1;
nodes = (
"184 0 LINE",
"334 678 LINE",
"1206 678 LINE",
"1056 0 LINE",
"1140 0 LINE",
"1459 1440 LINE",
"1375 1440 LINE",
"1225 762 LINE",
"353 762 LINE",
"503 1440 LINE",
"419 1440 LINE",
"100 0 LINE"
);
}
);
width = 1320;
}
);
leftKerningGroup = M;
rightKerningGroup = M;
unicode = 0048;
},
{
glyphname = Hbar;
layers = (
{
layerId = "6571C5BB-D9C1-4570-8E40-7CA3FF1E644F";
name = Layer5;
width = 1240;
},
{
layerId = "CBCB5F37-9E29-4BCC-9D4B-3E9EA04104CC";
name = Layer4;
width = 1450;
},
{
layerId = "AE607061-5769-4FDA-9CBB-E069495578C9";
name = Layer3;
width = 1200;
},
{
layerId = "1859055D-7BE4-451C-9A54-85DF861917C1";
paths = (
{
closed = 1;
nodes = (
"392 0 LINE",
"524 594 LINE",
"1168 594 LINE",
"1036 0 LINE",
"1308 0 LINE",
"1627 1440 LINE",
"1355 1440 LINE",
"1224 848 LINE",
"580 848 LINE",
"711 1440 LINE",
"439 1440 LINE",
"120 0 LINE"
);
},
{
closed = 1;
nodes = (
"1667 988 LINE",
"1723 1242 LINE",
"255 1242 LINE",
"199 988 LINE"
);
}
);
width = 1508;
},
{
layerId = "E6C7DF62-62C5-46F1-94C3-6D079D8A542C";
paths = (
{
closed = 1;
nodes = (
"204 0 LINE",
"354 678 LINE",
"1226 678 LINE",
"1076 0 LINE",
"1160 0 LINE",
"1479 1440 LINE",
"1395 1440 LINE",
"1245 762 LINE",
"373 762 LINE",
"523 1440 LINE",
"439 1440 LINE",
"120 0 LINE"
);
},
{
closed = 1;
nodes = (
"1521 996 LINE",
"1539 1080 LINE",
"219 1080 LINE",
"201 996 LINE"
);
}
);
width = 1360;
}
);
leftKerningGroup = H;
rightKerningGroup = H;
unicode = 0126;
},
{
glyphname = I;
layers = (
{
layerId = "6571C5BB-D9C1-4570-8E40-7CA3FF1E644F";
name = Layer5;
width = 1076;
},
{
layerId = "CBCB5F37-9E29-4BCC-9D4B-3E9EA04104CC";
name = Layer4;
width = 426;
},
{
layerId = "AE607061-5769-4FDA-9CBB-E069495578C9";
name = Layer3;
width = 1200;
},
{
hints = (
{
place = "{100, 280}";
type = Stem;
}
);
layerId = "1859055D-7BE4-451C-9A54-85DF861917C1";
paths = (
{
closed = 1;
nodes = (
"392 0 LINE",
"711 1440 LINE",
"439 1440 LINE",
"120 0 LINE"
);
}
);
width = 592;
},
{
layerId = "E6C7DF62-62C5-46F1-94C3-6D079D8A542C";
paths = (
{
closed = 1;
nodes = (
"204 0 LINE",
"523 1440 LINE",
"439 1440 LINE",
"120 0 LINE"
);
}
);
width = 404;
}
);
leftKerningGroup = n;
rightKerningGroup = u;
unicode = 0049;
},
{
glyphname = J;
layers = (
{
layerId = "0B449CB6-2188-419A-9A7B-C88758FF5778";
name = "#instance";
paths = (
{
closed = 1;
nodes = (
"472.293 -28 OFFCURVE",
"561.959 15.948 OFFCURVE",
"661 142 CURVE SMOOTH",
"735.965 236.241 OFFCURVE",
"744.386 306.604 OFFCURVE",
"770 424 CURVE SMOOTH",
"995 1440 LINE",
"911 1440 LINE",
"686 424 LINE SMOOTH",
"664.212 325.483 OFFCURVE",
"658.846 266.035 OFFCURVE",
"597 186 CURVE SMOOTH",
"522.633 90.239 OFFCURVE",
"455.199 56 OFFCURVE",
"334 56 CURVE SMOOTH",
"190.143 56 OFFCURVE",
"109.492 127.996 OFFCURVE",
"106 270 CURVE",
"15 250 LINE",
"18.299 65.276 OFFCURVE",
"124.278 -28 OFFCURVE",
"312 -28 CURVE SMOOTH"
);
}
);
width = 878;
},
{
layerId = "6571C5BB-D9C1-4570-8E40-7CA3FF1E644F";
name = Layer5;
width = 1140;
},
{
layerId = "CBCB5F37-9E29-4BCC-9D4B-3E9EA04104CC";
name = Layer4;
width = 830;
},
{
layerId = "AE607061-5769-4FDA-9CBB-E069495578C9";
name = Layer3;
width = 1200;
},
{
layerId = "1859055D-7BE4-451C-9A54-85DF861917C1";
paths = (
{
closed = 1;
nodes = (
"587.699 -30 OFFCURVE",
"696.033 21.245 OFFCURVE",
"816 172 CURVE SMOOTH",
"898.093 274.349 OFFCURVE",
"904.2 352.118 OFFCURVE",
"932 480 CURVE SMOOTH",
"1145 1440 LINE",
"869 1440 LINE",
"656 480 LINE SMOOTH",
"641.267 411.861 OFFCURVE",
"641.433 370.418 OFFCURVE",
"603 312 CURVE SMOOTH",
"561.075 247.016 OFFCURVE",
"517.38 224 OFFCURVE",
"440 224 CURVE SMOOTH",
"351.03 224 OFFCURVE",
"302.088 272.498 OFFCURVE",
"308 360 CURVE",
"26 296 LINE",
"44.73 75.644 OFFCURVE",
"171.326 -30 OFFCURVE",
"395 -30 CURVE SMOOTH"
);
}
);
width = 1026;
},
{
layerId = "E6C7DF62-62C5-46F1-94C3-6D079D8A542C";
paths = (
{
closed = 1;
nodes = (
"472.293 -28 OFFCURVE",
"561.959 15.948 OFFCURVE",
"661 142 CURVE SMOOTH",
"735.965 236.241 OFFCURVE",
"744.386 306.604 OFFCURVE",
"770 424 CURVE SMOOTH",
"995 1440 LINE",
"911 1440 LINE",
"686 424 LINE SMOOTH",
"664.212 325.483 OFFCURVE",
"658.846 266.035 OFFCURVE",
"597 186 CURVE SMOOTH",
"522.633 90.239 OFFCURVE",
"455.199 56 OFFCURVE",
"334 56 CURVE SMOOTH",
"190.143 56 OFFCURVE",
"109.492 127.996 OFFCURVE",
"106 270 CURVE",
"15 250 LINE",
"18.299 65.276 OFFCURVE",
"124.278 -28 OFFCURVE",
"312 -28 CURVE SMOOTH"
);
}
);
width = 878;
}
);
leftKerningGroup = J;
rightKerningGroup = J;
unicode = 004A;
},
{
glyphname = K;
layers = (
{
layerId = "6571C5BB-D9C1-4570-8E40-7CA3FF1E644F";
name = Layer5;
width = 1194;
},
{
layerId = "CBCB5F37-9E29-4BCC-9D4B-3E9EA04104CC";
name = Layer4;
width = 1168;
},
{
layerId = "AE607061-5769-4FDA-9CBB-E069495578C9";
name = Layer3;
width = 1200;
},
{
layerId = "1859055D-7BE4-451C-9A54-85DF861917C1";
paths = (
{
closed = 1;
nodes = (
"372 0 LINE",
"517 656 LINE",
"946 0 LINE",
"1290 0 LINE",
"812 730 LINE",
"1571 1440 LINE",
"1239 1440 LINE",
"544 776 LINE",
"691 1440 LINE",
"419 1440 LINE",
"100 0 LINE"
);
}
);
width = 1330;
},
{
layerId = "E6C7DF62-62C5-46F1-94C3-6D079D8A542C";
paths = (
{
closed = 1;
nodes = (
"184 0 LINE",
"351 752 LINE",
"960 0 LINE",
"1076 0 LINE",
"473 752 LINE",
"1331 1440 LINE",
"1215 1440 LINE",
"351 752 LINE",
"503 1440 LINE",
"419 1440 LINE",
"100 0 LINE"
);
}
);
width = 1116;
}
);
leftKerningGroup = H;
rightKerningGroup = K;
unicode = 004B;
},
{
glyphname = L;
layers = (
{
layerId = "6571C5BB-D9C1-4570-8E40-7CA3FF1E644F";
name = Layer5;
width = 1146;
},
{
layerId = "CBCB5F37-9E29-4BCC-9D4B-3E9EA04104CC";
name = Layer4;
width = 862;
},
{
layerId = "AE607061-5769-4FDA-9CBB-E069495578C9";
name = Layer3;
width = 1200;
},
{
layerId = "1859055D-7BE4-451C-9A54-85DF861917C1";
paths = (
{
closed = 1;
nodes = (
"1012 0 LINE",
"1068 254 LINE",
"448 254 LINE",
"711 1440 LINE",
"439 1440 LINE",
"120 0 LINE"
);
}
);
width = 1082;
},
{
layerId = "E6C7DF62-62C5-46F1-94C3-6D079D8A542C";
paths = (
{
closed = 1;
nodes = (
"920 0 LINE",
"939 84 LINE",
"223 84 LINE",
"523 1440 LINE",
"439 1440 LINE",
"120 0 LINE"
);
}
);
width = 990;
}
);
rightKerningGroup = L;
unicode = 004C;
},
{
glyphname = M;
layers = (
{
layerId = "6571C5BB-D9C1-4570-8E40-7CA3FF1E644F";
name = Layer5;
width = 1300;
},
{
layerId = "CBCB5F37-9E29-4BCC-9D4B-3E9EA04104CC";
name = Layer4;
width = 1828;
},
{
layerId = "AE607061-5769-4FDA-9CBB-E069495578C9";
name = Layer3;
width = 1200;
},
{
layerId = "1859055D-7BE4-451C-9A54-85DF861917C1";
paths = (
{
closed = 1;
nodes = (
"354 0 LINE",
"545 860 LINE",
"772 0 LINE",
"868 0 LINE",
"1477 860 LINE",
"1286 0 LINE",
"1540 0 LINE",
"1859 1440 LINE",
"1615 1440 LINE",
"927 484 LINE",
"663 1440 LINE",
"419 1440 LINE",
"100 0 LINE"
);
}
);
width = 1720;
},
{
layerId = "E6C7DF62-62C5-46F1-94C3-6D079D8A542C";
paths = (
{
closed = 1;
nodes = (
"184 0 LINE",
"458 1238 LINE",
"744 0 LINE",
"838 0 LINE",
"1672 1238 LINE",
"1398 2 LINE",
"1482 2 LINE",
"1801 1440 LINE",
"1717 1440 LINE",
"815 102 LINE",
"499 1440 LINE",
"419 1440 LINE",
"100 0 LINE"
);
}
);
width = 1662;
}
);
leftKerningGroup = M;
rightKerningGroup = M;
unicode = 004D;
},
{
glyphname = N;
layers = (
{
layerId = "6571C5BB-D9C1-4570-8E40-7CA3FF1E644F";
name = Layer5;
width = 1240;
},
{
layerId = "CBCB5F37-9E29-4BCC-9D4B-3E9EA04104CC";
name = Layer4;
width = 1450;
},
{
layerId = "AE607061-5769-4FDA-9CBB-E069495578C9";
name = Layer3;
width = 1200;
},
{
layerId = "1859055D-7BE4-451C-9A54-85DF861917C1";
paths = (
{
closed = 1;
nodes = (
"376 0 LINE",
"589 960 LINE",
"1002 0 LINE",
"1278 0 LINE",
"1597 1440 LINE",
"1321 1440 LINE",
"1108 480 LINE",
"695 1440 LINE",
"419 1440 LINE",
"100 0 LINE"
);
}
);
width = 1458;
},
{
layerId = "E6C7DF62-62C5-46F1-94C3-6D079D8A542C";
paths = (
{
closed = 1;
nodes = (
"184 0 LINE",
"470 1292 LINE",
"1060 0 LINE",
"1144 0 LINE",
"1463 1440 LINE",
"1379 1440 LINE",
"1093 150 LINE",
"503 1440 LINE",
"419 1440 LINE",
"100 0 LINE"
);
}
);
width = 1324;
}
);
leftKerningGroup = M;
rightKerningGroup = M;
unicode = 004E;
},
{
glyphname = Eng;
layers = (
{
layerId = "6571C5BB-D9C1-4570-8E40-7CA3FF1E644F";
name = Layer5;
width = 1240;
},
{
layerId = "CBCB5F37-9E29-4BCC-9D4B-3E9EA04104CC";
name = Layer4;
width = 1450;
},
{
layerId = "AE607061-5769-4FDA-9CBB-E069495578C9";
name = Layer3;
width = 1200;
},
{
layerId = "1859055D-7BE4-451C-9A54-85DF861917C1";
paths = (
{
closed = 1;
nodes = (
"1108 480 LINE",
"695 1440 LINE",
"419 1440 LINE",
"100 0 LINE",
"376 0 LINE",
"589 960 LINE",
"959 102 LINE SMOOTH",
"1018 -44 OFFCURVE",
"1032 -100 OFFCURVE",
"1019 -158 CURVE SMOOTH",
"1003 -228 OFFCURVE",
"943 -264 OFFCURVE",
"843 -264 CURVE SMOOTH",
"823 -264 OFFCURVE",
"810 -262 OFFCURVE",
"761 -258 CURVE",
"716 -458 LINE",
"763 -472 OFFCURVE",
"818 -478 OFFCURVE",
"872 -478 CURVE SMOOTH",
"1074 -478 OFFCURVE",
"1194 -378 OFFCURVE",
"1239 -176 CURVE SMOOTH",
"1597 1440 LINE",
"1321 1440 LINE"
);
}
);
width = 1458;
},
{
layerId = "E6C7DF62-62C5-46F1-94C3-6D079D8A542C";
paths = (
{
closed = 1;
nodes = (
"1093 150 LINE",
"503 1440 LINE",
"419 1440 LINE",
"100 0 LINE",
"184 0 LINE",
"470 1292 LINE",
"1032 62 LINE SMOOTH",
"1050 20 OFFCURVE",
"1052 -38 OFFCURVE",
"1036 -110 CURVE SMOOTH",
"1007 -238 OFFCURVE",
"980 -272 OFFCURVE",
"908 -272 CURVE SMOOTH",
"892 -272 OFFCURVE",
"872 -270 OFFCURVE",
"851 -266 CURVE",
"833 -348 LINE",
"865 -356 OFFCURVE",
"887 -358 OFFCURVE",
"913 -358 CURVE SMOOTH",
"1019 -358 OFFCURVE",
"1076 -306 OFFCURVE",
"1102 -190 CURVE SMOOTH",
"1463 1440 LINE",
"1379 1440 LINE"
);
}
);
width = 1324;
}
);
leftKerningGroup = N;
rightKerningGroup = N;
unicode = 014A;
},
{
glyphname = O;
layers = (
{
layerId = "0B449CB6-2188-419A-9A7B-C88758FF5778";
name = "#instance";
paths = (
{
closed = 1;
nodes = (
"1139.473 -30 OFFCURVE",
"1364.361 236.722 OFFCURVE",
"1472 720 CURVE SMOOTH",
"1569.203 1160.922 OFFCURVE",
"1400.714 1470 OFFCURVE",
"992 1470 CURVE SMOOTH",
"511.659 1470 OFFCURVE",
"286.558 1203.356 OFFCURVE",
"180 720 CURVE SMOOTH",
"81.843 279.294 OFFCURVE",
"250.363 -30 OFFCURVE",
"659 -30 CURVE SMOOTH"
);
},
{
closed = 1;
nodes = (
"320.866 54 OFFCURVE",
"179.125 330.534 OFFCURVE",
"270 720 CURVE SMOOTH",
"367.695 1143.347 OFFCURVE",
"554.033 1386 OFFCURVE",
"973 1386 CURVE SMOOTH",
"1328.953 1386 OFFCURVE",
"1468.04 1110.18 OFFCURVE",
"1382 720 CURVE SMOOTH",
"1287.279 295.388 OFFCURVE",
"1097.995 54 OFFCURVE",
"678 54 CURVE SMOOTH"
);
}
);
width = 1412;
},
{
layerId = "6571C5BB-D9C1-4570-8E40-7CA3FF1E644F";
name = Layer5;
width = 1242;
},
{
layerId = "CBCB5F37-9E29-4BCC-9D4B-3E9EA04104CC";
name = Layer4;
width = 1468;
},
{
layerId = "AE607061-5769-4FDA-9CBB-E069495578C9";
name = Layer3;
width = 1200;
},
{
layerId = "1859055D-7BE4-451C-9A54-85DF861917C1";
paths = (
{
closed = 1;
nodes = (
"1211.225 -30 OFFCURVE",
"1465.155 223.415 OFFCURVE",
"1576 720 CURVE SMOOTH",
"1674.438 1165.458 OFFCURVE",
"1475.211 1470 OFFCURVE",
"1044 1470 CURVE SMOOTH",
"543.889 1470 OFFCURVE",
"289.749 1216.641 OFFCURVE",
"180 720 CURVE SMOOTH",
"80.627 274.807 OFFCURVE",
"279.842 -30 OFFCURVE",
"711 -30 CURVE SMOOTH"
);
},
{
closed = 1;
nodes = (
"504.887 229.855 OFFCURVE",
"403.94 433.164 OFFCURVE",
"468 720 CURVE SMOOTH",
"537.524 1036.016 OFFCURVE",
"676.267 1218.553 OFFCURVE",
"987 1214 CURVE SMOOTH",
"1250.209 1210.143 OFFCURVE",
"1351.146 1007.029 OFFCURVE",
"1288 720 CURVE SMOOTH",
"1217.441 404.063 OFFCURVE",
"1078.885 221.445 OFFCURVE",
"768 226 CURVE SMOOTH"
);
}
);
width = 1516;
},
{
layerId = "E6C7DF62-62C5-46F1-94C3-6D079D8A542C";
paths = (
{
closed = 1;
nodes = (
"1139.473 -30 OFFCURVE",
"1364.361 236.722 OFFCURVE",
"1472 720 CURVE SMOOTH",
"1569.203 1160.922 OFFCURVE",
"1400.714 1470 OFFCURVE",
"992 1470 CURVE SMOOTH",
"511.659 1470 OFFCURVE",
"286.558 1203.356 OFFCURVE",
"180 720 CURVE SMOOTH",
"81.843 279.294 OFFCURVE",
"250.363 -30 OFFCURVE",
"659 -30 CURVE SMOOTH"
);
},
{
closed = 1;
nodes = (
"320.866 54 OFFCURVE",
"179.125 330.534 OFFCURVE",
"270 720 CURVE SMOOTH",
"367.695 1143.347 OFFCURVE",
"554.033 1386 OFFCURVE",
"973 1386 CURVE SMOOTH",
"1328.953 1386 OFFCURVE",
"1468.04 1110.18 OFFCURVE",
"1382 720 CURVE SMOOTH",
"1287.279 295.388 OFFCURVE",
"1097.995 54 OFFCURVE",
"678 54 CURVE SMOOTH"
);
}
);
width = 1412;
}
);
leftKerningGroup = O;
rightKerningGroup = O;
unicode = 004F;
},
{
glyphname = Oslash;
layers = (
{
layerId = "6571C5BB-D9C1-4570-8E40-7CA3FF1E644F";
name = Layer5;
width = 1244;
},
{
layerId = "CBCB5F37-9E29-4BCC-9D4B-3E9EA04104CC";
name = Layer4;
width = 1476;
},
{
layerId = "AE607061-5769-4FDA-9CBB-E069495578C9";
name = Layer3;
width = 1200;
},
{
components = (
{
name = O;
alignment = -1;
}
);
layerId = "1859055D-7BE4-451C-9A54-85DF861917C1";
paths = (
{
closed = 1;
nodes = (
"421 138 LINE",
"440 162 LINE",
"1415 1044 LINE",
"1445 1062 LINE",
"1703 1294 LINE",
"1549 1466 LINE",
"1314 1254 LINE",
"1297 1232 LINE",
"324 354 LINE",
"284 324 LINE",
"86 144 LINE",
"240 -26 LINE"
);
}
);
width = 1516;
},
{
components = (
{
name = O;
alignment = -1;
}
);
layerId = "E6C7DF62-62C5-46F1-94C3-6D079D8A542C";
paths = (
{
closed = 1;
nodes = (
"259 174 LINE",
"291 202 LINE",
"1414 1174 LINE",
"1434 1190 LINE",
"1678 1404 LINE",
"1628 1459 LINE",
"1402 1262 LINE",
"1377 1242 LINE",
"252 270 LINE",
"225 246 LINE",
"-23 32 LINE",
"26 -26 LINE"
);
}
);
width = 1412;
}
);
leftKerningGroup = O;
rightKerningGroup = O;
unicode = 00D8;
},
{
glyphname = P;
layers = (
{
layerId = "6571C5BB-D9C1-4570-8E40-7CA3FF1E644F";
name = Layer5;
width = 1188;
},
{
layerId = "CBCB5F37-9E29-4BCC-9D4B-3E9EA04104CC";
name = Layer4;
width = 1128;
},
{
layerId = "AE607061-5769-4FDA-9CBB-E069495578C9";
name = Layer3;
width = 1200;
},
{
layerId = "1859055D-7BE4-451C-9A54-85DF861917C1";
paths = (
{
closed = 1;
nodes = (
"372 0 LINE",
"480 488 LINE",
"816 488 LINE SMOOTH",
"864.013 488 OFFCURVE",
"890.537 488.698 OFFCURVE",
"938 496 CURVE SMOOTH",
"1220.591 538.655 OFFCURVE",
"1351.262 682.84 OFFCURVE",
"1414 964 CURVE SMOOTH",
"1469.273 1216.38 OFFCURVE",
"1386.078 1393.427 OFFCURVE",
"1145 1432 CURVE SMOOTH",
"1099.164 1439.639 OFFCURVE",
"1073.456 1440 OFFCURVE",
"1027 1440 CURVE SMOOTH",
"419 1440 LINE",
"100 0 LINE"
);
},
{
closed = 1;
nodes = (
"635 1186 LINE",
"959 1186 LINE SMOOTH",
"994.69 1186 OFFCURVE",
"1014.75 1186.148 OFFCURVE",
"1049 1176 CURVE SMOOTH",
"1145.933 1147.767 OFFCURVE",
"1163.161 1070.27 OFFCURVE",
"1140 964 CURVE SMOOTH",
"1113.076 847.328 OFFCURVE",
"1069.597 781.637 OFFCURVE",
"955 752 CURVE SMOOTH",
"918.632 742.302 OFFCURVE",
"897.614 742 OFFCURVE",
"860 742 CURVE SMOOTH",
"536 742 LINE"
);
}
);
width = 1300;
},
{
layerId = "E6C7DF62-62C5-46F1-94C3-6D079D8A542C";
paths = (
{
closed = 1;
nodes = (
"184 0 LINE",
"312 576 LINE",
"758 576 LINE SMOOTH",
"786 576 OFFCURVE",
"814 578 OFFCURVE",
"851 584 CURVE SMOOTH",
"1067 616 OFFCURVE",
"1238 792 OFFCURVE",
"1285 1008 CURVE SMOOTH",
"1333 1224 OFFCURVE",
"1240 1400 OFFCURVE",
"1039 1432 CURVE SMOOTH",
"1005 1438 OFFCURVE",
"977 1440 OFFCURVE",
"949 1440 CURVE SMOOTH",
"419 1440 LINE",
"100 0 LINE"
);
},
{
closed = 1;
nodes = (
"485 1356 LINE",
"931 1356 LINE SMOOTH",
"953 1356 OFFCURVE",
"986 1354 OFFCURVE",
"1017 1348 CURVE SMOOTH",
"1176 1316 OFFCURVE",
"1231 1170 OFFCURVE",
"1195 1008 CURVE SMOOTH",
"1160 846 OFFCURVE",
"1039 700 OFFCURVE",
"866 668 CURVE SMOOTH",
"833 662 OFFCURVE",
"798 660 OFFCURVE",
"776 660 CURVE SMOOTH",
"330 660 LINE"
);
}
);
width = 1162;
}
);
unicode = 0050;
},
{
glyphname = Thorn;
layers = (
{
layerId = "0B449CB6-2188-419A-9A7B-C88758FF5778";
name = "#instance";
paths = (
{
closed = 1;
nodes = (
"376 0 LINE",
"431 246 LINE",
"757 246 LINE SMOOTH",
"949 246 OFFCURVE",
"1053 299 OFFCURVE",
"1185 438 CURVE",
"1275 531 OFFCURVE",
"1317 593 OFFCURVE",
"1344 720 CURVE SMOOTH",
"1366 832 OFFCURVE",
"1363 900 OFFCURVE",
"1310 1002 CURVE",
"1263 1099 OFFCURVE",
"1211 1140 OFFCURVE",
"1108 1174 CURVE SMOOTH",
"1054 1191 OFFCURVE",
"1023 1196 OFFCURVE",
"967 1196 CURVE SMOOTH",
"641 1196 LINE",
"695 1440 LINE",
"419 1440 LINE",
"100 0 LINE"
);
},
{
closed = 1;
nodes = (
"584 940 LINE",
"908 940 LINE SMOOTH",
"975 940 OFFCURVE",
"1011 918 OFFCURVE",
"1047 862 CURVE",
"1080 814 OFFCURVE",
"1078 778 OFFCURVE",
"1068 720 CURVE SMOOTH",
"1057 660 OFFCURVE",
"1036 631 OFFCURVE",
"994 588 CURVE SMOOTH",
"936 528 OFFCURVE",
"894 500 OFFCURVE",
"811 500 CURVE SMOOTH",
"487 500 LINE"
);
}
);
width = 1284;
},
{
layerId = "6571C5BB-D9C1-4570-8E40-7CA3FF1E644F";
name = Layer5;
width = 1200;
},
{
layerId = "CBCB5F37-9E29-4BCC-9D4B-3E9EA04104CC";
name = Layer4;
width = 1202;
},
{
layerId = "AE607061-5769-4FDA-9CBB-E069495578C9";
name = Layer3;
width = 1200;
},
{
layerId = "1859055D-7BE4-451C-9A54-85DF861917C1";
paths = (
{
closed = 1;
nodes = (
"376 0 LINE",
"431 246 LINE",
"757 246 LINE SMOOTH",
"948.678 246 OFFCURVE",
"1052.993 298.792 OFFCURVE",
"1185 438 CURVE SMOOTH",
"1275.422 530.741 OFFCURVE",
"1317.372 593.198 OFFCURVE",
"1344 720 CURVE SMOOTH",
"1366.496 832.481 OFFCURVE",
"1363.307 900.462 OFFCURVE",
"1310 1002 CURVE",
"1262.548 1099.276 OFFCURVE",
"1210.749 1139.75 OFFCURVE",
"1108 1174 CURVE SMOOTH",
"1054.453 1191.434 OFFCURVE",
"1023.309 1196 OFFCURVE",
"967 1196 CURVE SMOOTH",
"641 1196 LINE",
"695 1440 LINE",
"419 1440 LINE",
"100 0 LINE"
);
},
{
closed = 1;
nodes = (
"584 940 LINE",
"908 940 LINE SMOOTH",
"974.569 940 OFFCURVE",
"1011.209 918.243 OFFCURVE",
"1047 862 CURVE SMOOTH",
"1079.997 813.774 OFFCURVE",
"1077.989 777.713 OFFCURVE",
"1068 720 CURVE SMOOTH",
"1056.82 660.374 OFFCURVE",
"1036.307 631.45 OFFCURVE",
"994 588 CURVE SMOOTH",
"936.337 528.201 OFFCURVE",
"893.88 500 OFFCURVE",
"811 500 CURVE SMOOTH",
"487 500 LINE"
);
}
);
width = 1284;
},
{
layerId = "E6C7DF62-62C5-46F1-94C3-6D079D8A542C";
paths = (
{
closed = 1;
nodes = (
"184 0 LINE",
"248 288 LINE",
"674 288 LINE SMOOTH",
"792 288 OFFCURVE",
"926 342 OFFCURVE",
"1023 430 CURVE SMOOTH",
"1111 508 OFFCURVE",
"1178 612 OFFCURVE",
"1202 720 CURVE SMOOTH",
"1227 836 OFFCURVE",
"1203 952 OFFCURVE",
"1135 1032 CURVE SMOOTH",
"1103 1070 OFFCURVE",
"1060 1102 OFFCURVE",
"1013 1122 CURVE SMOOTH",
"967 1142 OFFCURVE",
"917 1152 OFFCURVE",
"865 1152 CURVE SMOOTH",
"439 1152 LINE",
"503 1440 LINE",
"419 1440 LINE",
"100 0 LINE"
);
},
{
closed = 1;
nodes = (
"421 1068 LINE",
"847 1068 LINE SMOOTH",
"933 1068 OFFCURVE",
"1014 1030 OFFCURVE",
"1061 970 CURVE SMOOTH",
"1112 904 OFFCURVE",
"1130 814 OFFCURVE",
"1112 720 CURVE SMOOTH",
"1095 638 OFFCURVE",
"1046 558 OFFCURVE",
"980 496 CURVE SMOOTH",
"899 420 OFFCURVE",
"790 372 OFFCURVE",
"692 372 CURVE SMOOTH",
"266 372 LINE"
);
}
);
width = 1142;
}
);
leftKerningGroup = P;
rightKerningGroup = P;
unicode = 00DE;
},
{
glyphname = Q;
layers = (
{
layerId = "6571C5BB-D9C1-4570-8E40-7CA3FF1E644F";
name = Layer5;
width = 1242;
},
{
layerId = "CBCB5F37-9E29-4BCC-9D4B-3E9EA04104CC";
name = Layer4;
width = 1468;
},
{
layerId = "AE607061-5769-4FDA-9CBB-E069495578C9";
name = Layer3;
width = 1200;
},
{
components = (
{
name = O;
alignment = -1;
}
);
layerId = "1859055D-7BE4-451C-9A54-85DF861917C1";
paths = (
{
closed = 1;
nodes = (
"1423 138 LINE",
"1097 556 LINE",
"892 388 LINE",
"1219 -30 LINE"
);
}
);
width = 1516;
},
{
components = (
{
name = O;
alignment = -1;
}
);
layerId = "E6C7DF62-62C5-46F1-94C3-6D079D8A542C";
paths = (
{
closed = 1;
nodes = (
"1306 38 LINE",
"1023 402 LINE",
"942 336 LINE",
"1228 -28 LINE"
);
}
);
width = 1412;
}
);
leftKerningGroup = O;
rightKerningGroup = O;
unicode = 0051;
},
{
glyphname = R;
layers = (
{
layerId = "0B449CB6-2188-419A-9A7B-C88758FF5778";
name = "#instance";
paths = (
{
closed = 1;
nodes = (
"372 0 LINE",
"480 488 LINE",
"816 488 LINE",
"938 496 LINE",
"1221 539 OFFCURVE",
"1351 683 OFFCURVE",
"1414 964 CURVE SMOOTH",
"1469 1216 OFFCURVE",
"1386 1393 OFFCURVE",
"1145 1432 CURVE SMOOTH",
"1099 1440 OFFCURVE",
"1073 1440 OFFCURVE",
"1027 1440 CURVE SMOOTH",
"419 1440 LINE",
"100 0 LINE"
);
},
{
closed = 1;
nodes = (
"1220 0 LINE",
"1050 640 LINE",
"758 586 LINE",
"912 0 LINE"
);
},
{
closed = 1;
nodes = (
"635 1186 LINE",
"959 1186 LINE SMOOTH",
"995 1186 OFFCURVE",
"1015 1186 OFFCURVE",
"1049 1176 CURVE SMOOTH",
"1146 1148 OFFCURVE",
"1163 1070 OFFCURVE",
"1140 964 CURVE",
"1113 847 OFFCURVE",
"1070 782 OFFCURVE",
"955 752 CURVE SMOOTH",
"919 742 OFFCURVE",
"898 742 OFFCURVE",
"860 742 CURVE SMOOTH",
"536 742 LINE"
);
}
);
width = 1340;
},
{
layerId = "BA5DD788-FCBD-4F2A-AA95-5120243F7D5A";
name = Layer6;
width = 1184;
},
{
layerId = "6571C5BB-D9C1-4570-8E40-7CA3FF1E644F";
name = Layer5;
width = 1102;
},
{
layerId = "CBCB5F37-9E29-4BCC-9D4B-3E9EA04104CC";
name = Layer4;
width = 1200;
},
{
layerId = "1859055D-7BE4-451C-9A54-85DF861917C1";
paths = (
{
closed = 1;
nodes = (
"372 0 LINE",
"480 488 LINE",
"816 488 LINE",
"938 496 LINE",
"1220.591 538.655 OFFCURVE",
"1351.262 682.84 OFFCURVE",
"1414 964 CURVE SMOOTH",
"1469.273 1216.38 OFFCURVE",
"1386.078 1393.427 OFFCURVE",
"1145 1432 CURVE SMOOTH",
"1099.164 1439.639 OFFCURVE",
"1073.456 1440 OFFCURVE",
"1027 1440 CURVE SMOOTH",
"419 1440 LINE",
"100 0 LINE"
);
},
{
closed = 1;
nodes = (
"1220 0 LINE",
"1050 640 LINE",
"758 586 LINE",
"912 0 LINE"
);
},
{
closed = 1;
nodes = (
"635 1186 LINE",
"959 1186 LINE SMOOTH",
"994.69 1186 OFFCURVE",
"1014.75 1186.148 OFFCURVE",
"1049 1176 CURVE SMOOTH",
"1145.933 1147.767 OFFCURVE",
"1163.161 1070.27 OFFCURVE",
"1140 964 CURVE SMOOTH",
"1113.076 847.328 OFFCURVE",
"1069.597 781.637 OFFCURVE",
"955 752 CURVE SMOOTH",
"918.632 742.302 OFFCURVE",
"897.614 742 OFFCURVE",
"860 742 CURVE SMOOTH",
"536 742 LINE"
);
}
);
width = 1340;
},
{
layerId = "FD50858D-8A7B-4C5A-A944-44D81032B0FE";
name = public.background;
paths = (
{
closed = 1;
nodes = (
"224 0 LINE",
"224 576 LINE",
"670 576 LINE SMOOTH",
"698 576 OFFCURVE",
"726 578 OFFCURVE",
"762 584 CURVE SMOOTH",
"970 616 OFFCURVE",
"1102 792 OFFCURVE",
"1102 1008 CURVE SMOOTH",
"1102 1224 OFFCURVE",
"970 1400 OFFCURVE",
"762 1432 CURVE SMOOTH",
"726 1438 OFFCURVE",
"698 1440 OFFCURVE",
"670 1440 CURVE SMOOTH",
"140 1440 LINE",
"140 0 LINE"
);
},
{
closed = 1;
nodes = (
"1142 0 LINE",
"830 640 LINE",
"758 586 LINE",
"1042 0 LINE"
);
},
{
closed = 1;
nodes = (
"224 1356 LINE",
"670 1356 LINE SMOOTH",
"692 1356 OFFCURVE",
"726 1354 OFFCURVE",
"758 1348 CURVE SMOOTH",
"924 1316 OFFCURVE",
"1012 1170 OFFCURVE",
"1012 1008 CURVE SMOOTH",
"1012 846 OFFCURVE",
"924 700 OFFCURVE",
"758 668 CURVE SMOOTH",
"726 662 OFFCURVE",
"692 660 OFFCURVE",
"670 660 CURVE SMOOTH",
"224 660 LINE"
);
}
);
width = 1340;
},
{
layerId = "E6C7DF62-62C5-46F1-94C3-6D079D8A542C";
paths = (
{
closed = 1;
nodes = (
"184 0 LINE",
"312 576 LINE",
"862 576 LINE",
"881 590 LINE",
"1082 632 OFFCURVE",
"1240 802 OFFCURVE",
"1285 1008 CURVE SMOOTH",
"1333 1224 OFFCURVE",
"1240 1400 OFFCURVE",
"1039 1432 CURVE SMOOTH",
"1005 1438 OFFCURVE",
"977 1440 OFFCURVE",
"949 1440 CURVE SMOOTH",
"419 1440 LINE",
"100 0 LINE"
);
},
{
closed = 1;
nodes = (
"1102 0 LINE",
"932 640 LINE",
"848 586 LINE",
"1002 0 LINE"
);
},
{
closed = 1;
nodes = (
"485 1356 LINE",
"931 1356 LINE SMOOTH",
"953 1356 OFFCURVE",
"986 1354 OFFCURVE",
"1017 1348 CURVE SMOOTH",
"1176 1316 OFFCURVE",
"1231 1170 OFFCURVE",
"1195 1008 CURVE SMOOTH",
"1160 846 OFFCURVE",
"1039 700 OFFCURVE",
"866 668 CURVE SMOOTH",
"833 662 OFFCURVE",
"798 660 OFFCURVE",
"776 660 CURVE SMOOTH",
"330 660 LINE"
);
}
);
width = 1222;
}
);
leftKerningGroup = P;
rightKerningGroup = R;
unicode = 0052;
},
{
glyphname = S;
layers = (
{
layerId = "321621ED-8527-4E96-9E7D-BC9A5BD846D9";
name = Layer7;
width = 1206;
},
{
layerId = "BA5DD788-FCBD-4F2A-AA95-5120243F7D5A";
name = Layer6;
width = 1232;
},
{
layerId = "6571C5BB-D9C1-4570-8E40-7CA3FF1E644F";
name = Layer5;
width = 1200;
},
{
layerId = "FD50858D-8A7B-4C5A-A944-44D81032B0FE";
name = public.background;
paths = (
{
closed = 1;
nodes = (
"1206 1224 OFFCURVE",
"1098 1334 OFFCURVE",
"976 1400 CURVE SMOOTH",
"880 1452 OFFCURVE",
"772 1468 OFFCURVE",
"674 1470 CURVE SMOOTH",
"540 1470 OFFCURVE",
"404 1442 OFFCURVE",
"300 1366 CURVE SMOOTH",
"202 1294 OFFCURVE",
"136 1180 OFFCURVE",
"136 1048 CURVE SMOOTH",
"136 942 OFFCURVE",
"160 850 OFFCURVE",
"240 774 CURVE SMOOTH",
"310 706 OFFCURVE",
"410 676 OFFCURVE",
"536 640 CURVE SMOOTH",
"804 562 LINE SMOOTH",
"860 546 OFFCURVE",
"900 532 OFFCURVE",
"932 504 CURVE SMOOTH",
"962 478 OFFCURVE",
"976 442 OFFCURVE",
"976 404 CURVE SMOOTH",
"976 364 OFFCURVE",
"956 320 OFFCURVE",
"910 284 CURVE SMOOTH",
"858 244 OFFCURVE",
"770 224 OFFCURVE",
"694 224 CURVE SMOOTH",
"598 224 OFFCURVE",
"506 266 OFFCURVE",
"444 330 CURVE SMOOTH",
"400 374 OFFCURVE",
"374 440 OFFCURVE",
"364 482 CURVE",
"80 440 LINE",
"94 348 OFFCURVE",
"128 252 OFFCURVE",
"206 164 CURVE SMOOTH",
"330 26 OFFCURVE",
"492 -30 OFFCURVE",
"684 -30 CURVE SMOOTH",
"848 -30 OFFCURVE",
"996 4 OFFCURVE",
"1114 108 CURVE SMOOTH",
"1202 186 OFFCURVE",
"1262 286 OFFCURVE",
"1262 396 CURVE SMOOTH",
"1262 522 OFFCURVE",
"1244 602 OFFCURVE",
"1166 684 CURVE SMOOTH",
"1112 742 OFFCURVE",
"994 794 OFFCURVE",
"864 830 CURVE SMOOTH",
"614 898 LINE SMOOTH",
"536 920 OFFCURVE",
"476 946 OFFCURVE",
"450 976 CURVE SMOOTH",
"428 1000 OFFCURVE",
"422 1028 OFFCURVE",
"422 1056 CURVE SMOOTH",
"422 1104 OFFCURVE",
"456 1148 OFFCURVE",
"500 1174 CURVE SMOOTH",
"544 1200 OFFCURVE",
"602 1216 OFFCURVE",
"670 1214 CURVE",
"736 1214 OFFCURVE",
"794 1192 OFFCURVE",
"840 1162 CURVE SMOOTH",
"896 1124 OFFCURVE",
"942 1062 OFFCURVE",
"956 996 CURVE",
"1250 1046 LINE"
);
}
);
width = 1342;
},
{
layerId = "1859055D-7BE4-451C-9A54-85DF861917C1";
paths = (
{
closed = 1;
nodes = (
"1005.182 -30 OFFCURVE",
"1239.814 81.222 OFFCURVE",
"1317 428 CURVE SMOOTH",
"1364.981 645.413 OFFCURVE",
"1237.243 764.031 OFFCURVE",
"1008 830 CURVE SMOOTH",
"773 898 LINE SMOOTH",
"668.862 926.728 OFFCURVE",
"594.247 959.106 OFFCURVE",
"615 1052 CURVE SMOOTH",
"646.001 1189.482 OFFCURVE",
"749.288 1218.715 OFFCURVE",
"899 1214 CURVE SMOOTH",
"1048.739 1209.357 OFFCURVE",
"1135.967 1140.617 OFFCURVE",
"1137 996 CURVE",
"1442 1046 LINE",
"1431.384 1332.629 OFFCURVE",
"1255.812 1464.016 OFFCURVE",
"959 1468 CURVE SMOOTH",
"615.238 1470.331 OFFCURVE",
"397.625 1362.549 OFFCURVE",
"326 1038 CURVE SMOOTH",
"282.567 842.908 OFFCURVE",
"372.574 721.863 OFFCURVE",
"569 662 CURVE SMOOTH",
"918 552 LINE SMOOTH",
"998.094 526.065 OFFCURVE",
"1043.2 484.74 OFFCURVE",
"1026 408 CURVE SMOOTH",
"992.891 255.188 OFFCURVE",
"878.093 224 OFFCURVE",
"712 224 CURVE SMOOTH",
"535.413 224 OFFCURVE",
"434.121 309.314 OFFCURVE",
"431 482 CURVE",
"138 440 LINE",
"115.619 128.799 OFFCURVE",
"308.986 -30 OFFCURVE",
"637 -30 CURVE SMOOTH"
);
}
);
width = 1342;
},
{
layerId = "FD50858D-8A7B-4C5A-A944-44D81032B0FE";
name = public.background;
paths = (
{
closed = 1;
nodes = (
"1086 1226 OFFCURVE",
"994 1326 OFFCURVE",
"890 1392 CURVE SMOOTH",
"808 1444 OFFCURVE",
"680 1470 OFFCURVE",
"576 1470 CURVE SMOOTH",
"486 1470 OFFCURVE",
"384 1450 OFFCURVE",
"302 1402 CURVE SMOOTH",
"190 1336 OFFCURVE",
"116 1222 OFFCURVE",
"116 1084 CURVE SMOOTH",
"116 1002 OFFCURVE",
"146 926 OFFCURVE",
"212 866 CURVE SMOOTH",
"290 794 OFFCURVE",
"382 772 OFFCURVE",
"470 746 CURVE SMOOTH",
"732 668 LINE SMOOTH",
"824 640 OFFCURVE",
"910 616 OFFCURVE",
"970 554 CURVE SMOOTH",
"1016 508 OFFCURVE",
"1036 442 OFFCURVE",
"1036 382 CURVE SMOOTH",
"1036 268 OFFCURVE",
"988 190 OFFCURVE",
"910 134 CURVE SMOOTH",
"834 78 OFFCURVE",
"720 54 OFFCURVE",
"612 54 CURVE SMOOTH",
"464 54 OFFCURVE",
"352 98 OFFCURVE",
"262 178 CURVE SMOOTH",
"194 238 OFFCURVE",
"162 306 OFFCURVE",
"144 374 CURVE",
"60 358 LINE",
"76 282 OFFCURVE",
"114 202 OFFCURVE",
"176 136 CURVE SMOOTH",
"296 12 OFFCURVE",
"464 -30 OFFCURVE",
"610 -30 CURVE SMOOTH",
"756 -30 OFFCURVE",
"866 -2 OFFCURVE",
"964 66 CURVE SMOOTH",
"1062 134 OFFCURVE",
"1118 248 OFFCURVE",
"1118 382 CURVE SMOOTH",
"1118 476 OFFCURVE",
"1094 550 OFFCURVE",
"1026 618 CURVE SMOOTH",
"954 688 OFFCURVE",
"850 724 OFFCURVE",
"756 752 CURVE SMOOTH",
"494 830 LINE SMOOTH",
"402 858 OFFCURVE",
"330 884 OFFCURVE",
"270 936 CURVE SMOOTH",
"222 978 OFFCURVE",
"206 1046 OFFCURVE",
"206 1090 CURVE SMOOTH",
"206 1208 OFFCURVE",
"278 1282 OFFCURVE",
"346 1326 CURVE SMOOTH",
"412 1368 OFFCURVE",
"496 1386 OFFCURVE",
"578 1386 CURVE SMOOTH",
"664 1386 OFFCURVE",
"764 1362 OFFCURVE",
"832 1324 CURVE SMOOTH",
"932 1268 OFFCURVE",
"1006 1180 OFFCURVE",
"1028 1034 CURVE",
"1112 1050 LINE"
);
}
);
width = 1342;
},
{
layerId = "E6C7DF62-62C5-46F1-94C3-6D079D8A542C";
paths = (
{
closed = 1;
nodes = (
"891.967 -30 OFFCURVE",
"1093.686 72.473 OFFCURVE",
"1161 376 CURVE SMOOTH",
"1203.386 565.658 OFFCURVE",
"1108.908 679.082 OFFCURVE",
"916 740 CURVE SMOOTH",
"638 830 LINE SMOOTH",
"478.839 880.261 OFFCURVE",
"375.576 946.59 OFFCURVE",
"409 1094 CURVE SMOOTH",
"458.289 1318.537 OFFCURVE",
"613.51 1386 OFFCURVE",
"853 1386 CURVE SMOOTH",
"1096.073 1386 OFFCURVE",
"1237.866 1264.622 OFFCURVE",
"1217 1034 CURVE",
"1305 1050 LINE",
"1326.668 1325.179 OFFCURVE",
"1159.89 1470 OFFCURVE",
"872 1470 CURVE SMOOTH",
"571.248 1470 OFFCURVE",
"381.246 1375.963 OFFCURVE",
"318 1092 CURVE SMOOTH",
"279.48 919.792 OFFCURVE",
"367.319 818.145 OFFCURVE",
"543 762 CURVE SMOOTH",
"879 654 LINE SMOOTH",
"1030.718 605.726 OFFCURVE",
"1111.555 522.878 OFFCURVE",
"1079 376 CURVE SMOOTH",
"1024.191 128.723 OFFCURVE",
"853.647 54 OFFCURVE",
"590 54 CURVE SMOOTH",
"348.314 54 OFFCURVE",
"196.206 146.153 OFFCURVE",
"187 374 CURVE",
"99 358 LINE",
"99 85.892 OFFCURVE",
"280.736 -30 OFFCURVE",
"571 -30 CURVE SMOOTH"
);
}
);
width = 1178;
}
);
leftKerningGroup = S;
rightKerningGroup = S;
unicode = 0053;
},
{
glyphname = Germandbls;
layers = (
{
layerId = "0B449CB6-2188-419A-9A7B-C88758FF5778";
name = "#instance";
paths = (
{
closed = 1;
nodes = (
"1019 -30 OFFCURVE",
"1227 128 OFFCURVE",
"1287 398 CURVE SMOOTH",
"1346 662 OFFCURVE",
"1162 793 OFFCURVE",
"978 809 CURVE",
"1367 1310 LINE",
"1293 1375 OFFCURVE",
"1155 1470 OFFCURVE",
"964 1470 CURVE SMOOTH",
"748 1470 OFFCURVE",
"496 1397 OFFCURVE",
"366 1108 CURVE SMOOTH",
"340 1052 OFFCURVE",
"319 986 OFFCURVE",
"298 894 CURVE SMOOTH",
"100 0 LINE",
"192 0 LINE",
"372 812 LINE SMOOTH",
"392 900 OFFCURVE",
"413 990 OFFCURVE",
"453 1081 CURVE",
"524 1248 OFFCURVE",
"687 1382 OFFCURVE",
"931 1382 CURVE SMOOTH",
"1100 1382 OFFCURVE",
"1186 1323 OFFCURVE",
"1242 1279 CURVE",
"869 806 LINE",
"851 728 LINE",
"1127 718 OFFCURVE",
"1239 584 OFFCURVE",
"1198 397 CURVE SMOOTH",
"1150 179 OFFCURVE",
"964 58 OFFCURVE",
"761 58 CURVE SMOOTH",
"695 58 OFFCURVE",
"648 64 OFFCURVE",
"585 84 CURVE",
"566 0 LINE",
"620 -18 OFFCURVE",
"659 -30 OFFCURVE",
"737 -30 CURVE SMOOTH"
);
}
);
width = 1359;
},
{
layerId = "1859055D-7BE4-451C-9A54-85DF861917C1";
paths = (
{
closed = 1;
nodes = (
"1221.198 -30 OFFCURVE",
"1394.059 116.07 OFFCURVE",
"1463 428 CURVE SMOOTH",
"1511.627 645.884 OFFCURVE",
"1432.783 793.885 OFFCURVE",
"1220 845 CURVE",
"1587 1299 LINE",
"1405.901 1426.932 OFFCURVE",
"1283.735 1470 OFFCURVE",
"1062 1470 CURVE SMOOTH",
"736.795 1470 OFFCURVE",
"548.523 1377.775 OFFCURVE",
"383 1099 CURVE SMOOTH",
"318.171 991.443 OFFCURVE",
"302.316 922.451 OFFCURVE",
"275 800 CURVE SMOOTH",
"98 0 LINE",
"372 0 LINE",
"537 746 LINE SMOOTH",
"558.06 838.001 OFFCURVE",
"570.07 889.392 OFFCURVE",
"614 973 CURVE SMOOTH",
"710.204 1154.35 OFFCURVE",
"829.894 1216 OFFCURVE",
"1036 1216 CURVE SMOOTH",
"1112.148 1216 OFFCURVE",
"1155.825 1213.087 OFFCURVE",
"1224 1179 CURVE",
"928 832 LINE",
"941 664 LINE",
"1120.78 664 OFFCURVE",
"1233.82 588.281 OFFCURVE",
"1201 438 CURVE SMOOTH",
"1169.379 291.115 OFFCURVE",
"1075.812 236 OFFCURVE",
"922 236 CURVE SMOOTH",
"853.982 236 OFFCURVE",
"815.368 238.714 OFFCURVE",
"753 266 CURVE",
"694 0 LINE",
"770.719 -33.899 OFFCURVE",
"819.291 -30 OFFCURVE",
"903 -30 CURVE SMOOTH"
);
}
);
width = 1528;
},
{
layerId = "E6C7DF62-62C5-46F1-94C3-6D079D8A542C";
paths = (
{
closed = 1;
nodes = (
"1045.087 -30 OFFCURVE",
"1220.602 99.21 OFFCURVE",
"1287 398 CURVE SMOOTH",
"1339.755 634.058 OFFCURVE",
"1221.546 787.822 OFFCURVE",
"978 809 CURVE",
"1367 1310 LINE",
"1234.971 1425.971 OFFCURVE",
"1139.66 1470 OFFCURVE",
"964 1470 CURVE SMOOTH",
"664.789 1470 OFFCURVE",
"487.812 1378.798 OFFCURVE",
"366 1108 CURVE SMOOTH",
"328.802 1027.882 OFFCURVE",
"317.648 980.075 OFFCURVE",
"298 894 CURVE SMOOTH",
"100 0 LINE",
"192 0 LINE",
"372 812 LINE SMOOTH",
"396.469 919.663 OFFCURVE",
"408.547 979.87 OFFCURVE",
"453 1081 CURVE SMOOTH",
"547.233 1302.647 OFFCURVE",
"688.665 1382 OFFCURVE",
"931 1382 CURVE SMOOTH",
"1063.116 1382 OFFCURVE",
"1138.125 1360.616 OFFCURVE",
"1242 1279 CURVE",
"869 806 LINE",
"851 728 LINE",
"1095.508 719.141 OFFCURVE",
"1244.11 607.307 OFFCURVE",
"1198 397 CURVE SMOOTH",
"1145.778 159.826 OFFCURVE",
"1005.726 58 OFFCURVE",
"761 58 CURVE SMOOTH",
"690.824 58 OFFCURVE",
"651.9 62.762 OFFCURVE",
"585 84 CURVE",
"566 0 LINE",
"631. -21.667 OFFCURVE",
"668.46 -30 OFFCURVE",
"737 -30 CURVE SMOOTH"
);
}
);
width = 1359;
}
);
leftKerningGroup = b;
rightKerningGroup = b;
unicode = 1E9E;
},
{
glyphname = T;
layers = (
{
layerId = "6571C5BB-D9C1-4570-8E40-7CA3FF1E644F";
name = Layer5;
width = 1172;
},
{
layerId = "CBCB5F37-9E29-4BCC-9D4B-3E9EA04104CC";
name = Layer4;
width = 1026;
},
{
layerId = "AE607061-5769-4FDA-9CBB-E069495578C9";
name = Layer3;
width = 1200;
},
{
layerId = "1859055D-7BE4-451C-9A54-85DF861917C1";
paths = (
{
closed = 1;
nodes = (
"706 0 LINE",
"969 1186 LINE",
"1423 1186 LINE",
"1479 1440 LINE",
"299 1440 LINE",
"243 1186 LINE",
"697 1186 LINE",
"434 0 LINE"
);
}
);
width = 1220;
},
{
layerId = "E6C7DF62-62C5-46F1-94C3-6D079D8A542C";
paths = (
{
closed = 1;
nodes = (
"592 0 LINE",
"893 1356 LINE",
"1421 1356 LINE",
"1439 1440 LINE",
"299 1440 LINE",
"281 1356 LINE",
"809 1356 LINE",
"508 0 LINE"
);
}
);
width = 1180;
}
);
leftKerningGroup = T;
rightKerningGroup = T;
unicode = 0054;
},
{
glyphname = Tbar;
layers = (
{
layerId = "6571C5BB-D9C1-4570-8E40-7CA3FF1E644F";
name = Layer5;
width = 1172;
},
{
layerId = "CBCB5F37-9E29-4BCC-9D4B-3E9EA04104CC";
name = Layer4;
width = 1026;
},
{
layerId = "AE607061-5769-4FDA-9CBB-E069495578C9";
name = Layer3;
width = 1200;
},
{
components = (
{
name = T;
alignment = -1;
}
);
layerId = "1859055D-7BE4-451C-9A54-85DF861917C1";
paths = (
{
closed = 1;
nodes = (
"1179 584 LINE",
"1240 856 LINE",
"280 856 LINE",
"219 584 LINE"
);
}
);
width = 1220;
},
{
components = (
{
name = T;
alignment = -1;
}
);
layerId = "E6C7DF62-62C5-46F1-94C3-6D079D8A542C";
paths = (
{
closed = 1;
nodes = (
"1120 678 LINE",
"1139 762 LINE",
"299 762 LINE",
"280 678 LINE"
);
}
);
width = 1180;
}
);
leftKerningGroup = X;
rightKerningGroup = X;
unicode = 0166;
},
{
glyphname = U;
layers = (
{
layerId = "0B449CB6-2188-419A-9A7B-C88758FF5778";
name = "#instance";
paths = (
{
closed = 1;
nodes = (
"1021.966 -30 OFFCURVE",
"1230.707 139.68 OFFCURVE",
"1313 510 CURVE SMOOTH",
"1519 1440 LINE",
"1435 1440 LINE",
"1235 538 LINE SMOOTH",
"1162.617 211.82 OFFCURVE",
"990.951 50 OFFCURVE",
"661 50 CURVE SMOOTH",
"374.953 50 OFFCURVE",
"238.433 247.038 OFFCURVE",
"303 538 CURVE SMOOTH",
"503 1440 LINE",
"419 1440 LINE",
"213 510 LINE SMOOTH",
"141.057 184.26 OFFCURVE",
"310.751 -30 OFFCURVE",
"643 -30 CURVE SMOOTH"
);
}
);
width = 1380;
},
{
layerId = "321621ED-8527-4E96-9E7D-BC9A5BD846D9";
name = Layer7;
width = 1240;
},
{
layerId = "BA5DD788-FCBD-4F2A-AA95-5120243F7D5A";
name = Layer6;
width = 1450;
},
{
layerId = "6571C5BB-D9C1-4570-8E40-7CA3FF1E644F";
name = Layer5;
width = 1200;
},
{
layerId = "FD50858D-8A7B-4C5A-A944-44D81032B0FE";
name = public.background;
paths = (
{
closed = 1;
nodes = (
"1036 1440 LINE",
"1036 544 LINE SMOOTH",
"1036 512 OFFCURVE",
"1034 480 OFFCURVE",
"1024 444 CURVE SMOOTH",
"988 316 OFFCURVE",
"868 226 OFFCURVE",
"726 226 CURVE SMOOTH",
"584 226 OFFCURVE",
"464 316 OFFCURVE",
"428 444 CURVE SMOOTH",
"418 480 OFFCURVE",
"416 512 OFFCURVE",
"416 544 CURVE SMOOTH",
"416 1440 LINE",
"140 1438 LINE",
"140 540 LINE SMOOTH",
"140 492 OFFCURVE",
"144 446 OFFCURVE",
"154 400 CURVE SMOOTH",
"212 128 OFFCURVE",
"434 -30 OFFCURVE",
"726 -30 CURVE SMOOTH",
"1018 -30 OFFCURVE",
"1240 128 OFFCURVE",
"1298 400 CURVE SMOOTH",
"1308 446 OFFCURVE",
"1312 492 OFFCURVE",
"1312 540 CURVE SMOOTH",
"1312 1440 LINE"
);
}
);
width = 1452;
},
{
layerId = "1859055D-7BE4-451C-9A54-85DF861917C1";
paths = (
{
closed = 1;
nodes = (
"1081.323 -30 OFFCURVE",
"1304.662 147.547 OFFCURVE",
"1392 540 CURVE SMOOTH",
"1591 1440 LINE",
"1315 1440 LINE",
"1116 542 LINE SMOOTH",
"1068.932 328.474 OFFCURVE",
"953.028 226 OFFCURVE",
"736 226 CURVE SMOOTH",
"547.058 226 OFFCURVE",
"454.156 352.704 OFFCURVE",
"496 542 CURVE SMOOTH",
"695 1440 LINE",
"419 1438 LINE",
"220 540 LINE SMOOTH",
"143.373 195.674 OFFCURVE",
"325.567 -30 OFFCURVE",
"679 -30 CURVE SMOOTH"
);
}
);
width = 1452;
},
{
layerId = "FD50858D-8A7B-4C5A-A944-44D81032B0FE";
name = public.background;
paths = (
{
closed = 1;
nodes = (
"1156 1440 LINE",
"1156 610 LINE SMOOTH",
"1156 524 OFFCURVE",
"1152 452 OFFCURVE",
"1136 386 CURVE SMOOTH",
"1090 194 OFFCURVE",
"902 50 OFFCURVE",
"690 50 CURVE SMOOTH",
"478 50 OFFCURVE",
"290 194 OFFCURVE",
"244 386 CURVE SMOOTH",
"228 452 OFFCURVE",
"224 524 OFFCURVE",
"224 610 CURVE SMOOTH",
"224 1440 LINE",
"140 1440 LINE",
"140 506 LINE SMOOTH",
"140 426 OFFCURVE",
"152 356 OFFCURVE",
"178 294 CURVE SMOOTH",
"258 100 OFFCURVE",
"434 -30 OFFCURVE",
"690 -30 CURVE SMOOTH",
"946 -30 OFFCURVE",
"1122 100 OFFCURVE",
"1202 294 CURVE SMOOTH",
"1228 356 OFFCURVE",
"1240 426 OFFCURVE",
"1240 506 CURVE SMOOTH",
"1240 1440 LINE"
);
}
);
width = 1452;
},
{
layerId = "E6C7DF62-62C5-46F1-94C3-6D079D8A542C";
paths = (
{
closed = 1;
nodes = (
"1021.966 -30 OFFCURVE",
"1230.707 139.68 OFFCURVE",
"1313 510 CURVE SMOOTH",
"1519 1440 LINE",
"1435 1440 LINE",
"1235 538 LINE SMOOTH",
"1162.617 211.82 OFFCURVE",
"990.951 50 OFFCURVE",
"661 50 CURVE SMOOTH",
"374.953 50 OFFCURVE",
"238.433 247.038 OFFCURVE",
"303 538 CURVE SMOOTH",
"503 1440 LINE",
"419 1440 LINE",
"213 510 LINE SMOOTH",
"141.057 184.26 OFFCURVE",
"310.751 -30 OFFCURVE",
"643 -30 CURVE SMOOTH"
);
}
);
width = 1380;
}
);
leftKerningGroup = U;
rightKerningGroup = U;
unicode = 0055;
},
{
glyphname = V;
layers = (
{
layerId = "6571C5BB-D9C1-4570-8E40-7CA3FF1E644F";
name = Layer5;
width = 1208;
},
{
layerId = "CBCB5F37-9E29-4BCC-9D4B-3E9EA04104CC";
name = Layer4;
width = 1246;
},
{
layerId = "AE607061-5769-4FDA-9CBB-E069495578C9";
name = Layer3;
width = 1200;
},
{
layerId = "1859055D-7BE4-451C-9A54-85DF861917C1";
paths = (
{
closed = 1;
nodes = (
"816 0 LINE",
"1575 1440 LINE",
"1295 1440 LINE",
"667 256 LINE",
"569 1440 LINE",
"289 1440 LINE",
"410 0 LINE"
);
}
);
width = 1306;
},
{
layerId = "E6C7DF62-62C5-46F1-94C3-6D079D8A542C";
paths = (
{
closed = 1;
nodes = (
"584 0 LINE",
"1427 1440 LINE",
"1337 1440 LINE",
"565 122 LINE",
"379 1440 LINE",
"289 1440 LINE",
"494 0 LINE"
);
}
);
width = 1158;
}
);
leftKerningGroup = V;
rightKerningGroup = V;
unicode = 0056;
},
{
glyphname = W;
layers = (
{
layerId = "6571C5BB-D9C1-4570-8E40-7CA3FF1E644F";
name = Layer5;
width = 1298;
},
{
layerId = "CBCB5F37-9E29-4BCC-9D4B-3E9EA04104CC";
name = Layer4;
width = 1812;
},
{
layerId = "AE607061-5769-4FDA-9CBB-E069495578C9";
name = Layer3;
width = 1200;
},
{
layerId = "1859055D-7BE4-451C-9A54-85DF861917C1";
paths = (
{
closed = 1;
nodes = (
"670 0 LINE",
"1164 972 LINE",
"1228 0 LINE",
"1496 0 LINE",
"2237 1440 LINE",
"1951 1440 LINE",
"1462 450 LINE",
"1411 1440 LINE",
"1125 1438 LINE",
"636 450 LINE",
"585 1440 LINE",
"299 1440 LINE",
"402 0 LINE"
);
}
);
width = 1978;
},
{
layerId = "E6C7DF62-62C5-46F1-94C3-6D079D8A542C";
paths = (
{
closed = 1;
nodes = (
"500 0 LINE",
"1153 1286 LINE",
"1238 0 LINE",
"1326 0 LINE",
"2057 1440 LINE",
"1969 1440 LINE",
"1316 152 LINE",
"1231 1440 LINE",
"1143 1440 LINE",
"490 152 LINE",
"405 1440 LINE",
"319 1440 LINE",
"412 0 LINE"
);
}
);
width = 1818;
}
);
leftKerningGroup = V;
rightKerningGroup = V;
unicode = 0057;
},
{
glyphname = X;
layers = (
{
layerId = "6571C5BB-D9C1-4570-8E40-7CA3FF1E644F";
name = Layer5;
width = 1254;
},
{
layerId = "CBCB5F37-9E29-4BCC-9D4B-3E9EA04104CC";
name = Layer4;
width = 1532;
},
{
layerId = "AE607061-5769-4FDA-9CBB-E069495578C9";
name = Layer3;
width = 1200;
},
{
layerId = "1859055D-7BE4-451C-9A54-85DF861917C1";
paths = (
{
closed = 1;
nodes = (
"316 0 LINE",
"744 496 LINE",
"950 0 LINE",
"1284 0 LINE",
"963 728 LINE",
"1591 1440 LINE",
"1255 1440 LINE",
"847 960 LINE",
"647 1440 LINE",
"313 1440 LINE",
"625 728 LINE",
"-20 0 LINE"
);
}
);
width = 1344;
},
{
layerId = "E6C7DF62-62C5-46F1-94C3-6D079D8A542C";
paths = (
{
closed = 1;
nodes = (
"80 0 LINE",
"678 660 LINE",
"986 0 LINE",
"1086 0 LINE",
"742 730 LINE",
"1393 1440 LINE",
"1293 1440 LINE",
"709 798 LINE",
"411 1440 LINE",
"311 1440 LINE",
"648 730 LINE",
"-20 0 LINE"
);
}
);
width = 1146;
}
);
leftKerningGroup = X;
rightKerningGroup = X;
unicode = 0058;
},
{
glyphname = Y;
layers = (
{
layerId = "6571C5BB-D9C1-4570-8E40-7CA3FF1E644F";
name = Layer5;
width = 1190;
},
{
layerId = "CBCB5F37-9E29-4BCC-9D4B-3E9EA04104CC";
name = Layer4;
width = 1138;
},
{
layerId = "AE607061-5769-4FDA-9CBB-E069495578C9";
name = Layer3;
width = 1200;
},
{
layerId = "1859055D-7BE4-451C-9A54-85DF861917C1";
paths = (
{
closed = 1;
nodes = (
"728 0 LINE",
"858 586 LINE",
"1539 1440 LINE",
"1221 1440 LINE",
"789 898 LINE",
"597 1440 LINE",
"279 1440 LINE",
"582 586 LINE",
"452 0 LINE"
);
}
);
width = 1260;
},
{
layerId = "E6C7DF62-62C5-46F1-94C3-6D079D8A542C";
paths = (
{
closed = 1;
nodes = (
"522 0 LINE",
"658 612 LINE",
"1317 1440 LINE",
"1221 1440 LINE",
"637 708 LINE",
"375 1440 LINE",
"279 1440 LINE",
"574 612 LINE",
"438 0 LINE"
);
}
);
width = 1038;
}
);
leftKerningGroup = Y;
rightKerningGroup = Y;
unicode = 0059;
},
{
glyphname = Z;
layers = (
{
layerId = "6571C5BB-D9C1-4570-8E40-7CA3FF1E644F";
name = Layer5;
width = 1200;
},
{
layerId = "CBCB5F37-9E29-4BCC-9D4B-3E9EA04104CC";
name = Layer4;
width = 1200;
},
{
layerId = "AE607061-5769-4FDA-9CBB-E069495578C9";
name = Layer3;
width = 1200;
},
{
layerId = "1859055D-7BE4-451C-9A54-85DF861917C1";
paths = (
{
closed = 1;
nodes = (
"1200 0 LINE",
"1257 256 LINE",
"597 256 LINE",
"1532 1406 LINE",
"1539 1440 LINE",
"439 1440 LINE",
"383 1186 LINE",
"1007 1186 LINE",
"68 34 LINE",
"60 0 LINE"
);
}
);
width = 1360;
},
{
layerId = "E6C7DF62-62C5-46F1-94C3-6D079D8A542C";
paths = (
{
closed = 1;
nodes = (
"1022 0 LINE",
"1040 82 LINE",
"206 82 LINE",
"1334 1406 LINE",
"1341 1440 LINE",
"379 1440 LINE",
"361 1356 LINE",
"1199 1356 LINE",
"67 30 LINE",
"60 0 LINE"
);
}
);
width = 1162;
}
);
leftKerningGroup = Z;
rightKerningGroup = Z;
unicode = 005A;
},
{
glyphname = a;
layers = (
{
layerId = "321621ED-8527-4E96-9E7D-BC9A5BD846D9";
name = Layer7;
width = 1180;
},
{
layerId = "BA5DD788-FCBD-4F2A-AA95-5120243F7D5A";
name = Layer6;
width = 1070;
},
{
layerId = "6571C5BB-D9C1-4570-8E40-7CA3FF1E644F";
name = Layer5;
width = 1200;
},
{
layerId = "FD50858D-8A7B-4C5A-A944-44D81032B0FE";
name = public.background;
paths = (
{
closed = 1;
nodes = (
"620 -30 OFFCURVE",
"714 24 OFFCURVE",
"808 132 CURVE",
"808 0 LINE",
"1046 0 LINE",
"1046 644 LINE SMOOTH",
"1046 718 OFFCURVE",
"1040 784 OFFCURVE",
"1022 840 CURVE SMOOTH",
"964 1018 OFFCURVE",
"814 1110 OFFCURVE",
"588 1110 CURVE",
"348 1110 OFFCURVE",
"190 968 OFFCURVE",
"118 804 CURVE",
"362 730 LINE",
"400 820 OFFCURVE",
"486 862 OFFCURVE",
"580 862 CURVE SMOOTH",
"674 862 OFFCURVE",
"762 824 OFFCURVE",
"776 714 CURVE",
"600 688 OFFCURVE",
"414 668 OFFCURVE",
"274 606 CURVE SMOOTH",
"162 556 OFFCURVE",
"80 466 OFFCURVE",
"80 308 CURVE SMOOTH",
"80 106 OFFCURVE",
"218 -30 OFFCURVE",
"436 -30 CURVE SMOOTH"
);
},
{
closed = 1;
nodes = (
"394 182 OFFCURVE",
"346 244 OFFCURVE",
"346 302 CURVE SMOOTH",
"346 374 OFFCURVE",
"404 412 OFFCURVE",
"484 434 CURVE SMOOTH",
"568 458 OFFCURVE",
"632 470 OFFCURVE",
"776 494 CURVE",
"776 444 OFFCURVE",
"772 366 OFFCURVE",
"740 312 CURVE SMOOTH",
"696 240 OFFCURVE",
"600 182 OFFCURVE",
"500 182 CURVE SMOOTH"
);
}
);
width = 1084;
},
{
hints = (
{
horizontal = 1;
place = "{-30, 328}";
type = Stem;
},
{
horizontal = 1;
place = "{494, 194}";
type = Stem;
},
{
horizontal = 1;
place = "{862, 248}";
type = Stem;
},
{
horizontal = 1;
place = "{0, 0}";
type = Stem;
},
{
horizontal = 1;
place = "{298, 4}";
type = Stem;
},
{
horizontal = 1;
place = "{0, 676}";
type = Stem;
},
{
horizontal = 1;
place = "{0, 328}";
type = Stem;
}
);
layerId = "1859055D-7BE4-451C-9A54-85DF861917C1";
paths = (
{
closed = 1;
nodes = (
"594 -30 OFFCURVE",
"702.409 29.374 OFFCURVE",
"841 176 CURVE",
"817 222 LINE",
"768 0 LINE",
"1006 0 LINE",
"1140 602 LINE SMOOTH",
"1162.035 700.992 OFFCURVE",
"1182.54 758.69 OFFCURVE",
"1153 856 CURVE SMOOTH",
"1100.21 1029.901 OFFCURVE",
"977 1110 OFFCURVE",
"786 1110 CURVE SMOOTH",
"528 1110 OFFCURVE",
"376.891 1035.028 OFFCURVE",
"257 808 CURVE",
"486 730 LINE",
"543.911 831.345 OFFCURVE",
"614 862 OFFCURVE",
"731 862 CURVE SMOOTH",
"851 862 OFFCURVE",
"914.857 789.633 OFFCURVE",
"890 676 CURVE",
"1000 730 LINE",
"768.375 696.277 OFFCURVE",
"635.969 699.128 OFFCURVE",
"414 624 CURVE SMOOTH",
"235.608 563.271 OFFCURVE",
"146.531 481.104 OFFCURVE",
"106 298 CURVE SMOOTH",
"61.531 97.103 OFFCURVE",
"178 -30 OFFCURVE",
"393 -30 CURVE SMOOTH"
);
},
{
closed = 1;
nodes = (
"410.366 184 OFFCURVE",
"356 226 OFFCURVE",
"373 302 CURVE SMOOTH",
"390 378 OFFCURVE",
"438.127 398.828 OFFCURVE",
"512 426 CURVE SMOOTH",
"670.153 480.105 OFFCURVE",
"764.09 481.72 OFFCURVE",
"929 508 CURVE",
"853 528 LINE",
"835.567 445.59 OFFCURVE",
"828.966 397.024 OFFCURVE",
"781 328 CURVE SMOOTH",
"705.966 220.024 OFFCURVE",
"630.74 184 OFFCURVE",
"499 184 CURVE SMOOTH"
);
}
);
width = 1166;
},
{
layerId = "FD50858D-8A7B-4C5A-A944-44D81032B0FE";
name = public.background;
paths = (
{
closed = 1;
nodes = (
"628 -30 OFFCURVE",
"796 36 OFFCURVE",
"886 196 CURVE",
"886 0 LINE",
"964 0 LINE",
"964 676 LINE",
"964 732 OFFCURVE",
"960 782 OFFCURVE",
"946 834 CURVE SMOOTH",
"898 1008 OFFCURVE",
"766 1110 OFFCURVE",
"566 1110 CURVE SMOOTH",
"336 1110 OFFCURVE",
"166 1020 OFFCURVE",
"122 822 CURVE",
"210 794 LINE",
"254 964 OFFCURVE",
"382 1026 OFFCURVE",
"560 1026 CURVE SMOOTH",
"772 1026 OFFCURVE",
"880 896 OFFCURVE",
"880 664 CURVE",
"676 638 OFFCURVE",
"508 624 OFFCURVE",
"352 588 CURVE SMOOTH",
"156 542 OFFCURVE",
"80 426 OFFCURVE",
"80 292 CURVE SMOOTH",
"80 92 OFFCURVE",
"234 -30 OFFCURVE",
"434 -30 CURVE SMOOTH"
);
},
{
closed = 1;
nodes = (
"280 54 OFFCURVE",
"168 140 OFFCURVE",
"168 292 CURVE SMOOTH",
"168 404 OFFCURVE",
"250 476 OFFCURVE",
"380 512 CURVE SMOOTH",
"528 554 OFFCURVE",
"688 562 OFFCURVE",
"880 582 CURVE",
"880 502 OFFCURVE",
"878 362 OFFCURVE",
"832 268 CURVE SMOOTH",
"760 122 OFFCURVE",
"618 54 OFFCURVE",
"436 54 CURVE SMOOTH"
);
}
);
width = 1084;
},
{
hints = (
{
horizontal = 1;
place = "{-30, 84}";
type = Stem;
},
{
horizontal = 1;
place = "{580, 84}";
type = Stem;
},
{
horizontal = 1;
place = "{1026, 84}";
type = Stem;
},
{
horizontal = 1;
place = "{284, 2}";
type = Stem;
},
{
horizontal = 1;
place = "{0, 408}";
type = Stem;
},
{
horizontal = 1;
place = "{0, 0}";
type = Stem;
}
);
layerId = "E6C7DF62-62C5-46F1-94C3-6D079D8A542C";
paths = (
{
closed = 1;
nodes = (
"675.858 -30 OFFCURVE",
"831.209 54.419 OFFCURVE",
"951 294 CURVE",
"912 296 LINE",
"846 0 LINE",
"924 0 LINE",
"1074 634 LINE SMOOTH",
"1092.992 714.272 OFFCURVE",
"1103.786 759.994 OFFCURVE",
"1094 842 CURVE SMOOTH",
"1073.138 1016.824 OFFCURVE",
"946.305 1110 OFFCURVE",
"758 1110 CURVE SMOOTH",
"508.738 1110 OFFCURVE",
"364.663 1029.081 OFFCURVE",
"260 804 CURVE",
"347 780 LINE",
"432.568 955.361 OFFCURVE",
"540.18 1026 OFFCURVE",
"735 1026 CURVE SMOOTH",
"945.866 1026 OFFCURVE",
"1038.181 869.967 OFFCURVE",
"984 648 CURVE",
"1018 668 LINE",
"801.318 640.041 OFFCURVE",
"680.527 635.592 OFFCURVE",
"466 594 CURVE SMOOTH",
"264.744 553.999 OFFCURVE",
"146.956 482.703 OFFCURVE",
"103 286 CURVE SMOOTH",
"58.758 88.018 OFFCURVE",
"186.174 -30 OFFCURVE",
"407 -30 CURVE SMOOTH"
);
},
{
closed = 1;
nodes = (
"256.338 54 OFFCURVE",
"158.588 138.144 OFFCURVE",
"191 284 CURVE SMOOTH",
"223.876 431.943 OFFCURVE",
"315.378 480.904 OFFCURVE",
"466 516 CURVE SMOOTH",
"677.237 565.843 OFFCURVE",
"798.007 566.001 OFFCURVE",
"1014 586 CURVE",
"977 620 LINE",
"959.286 535.859 OFFCURVE",
"950.999 488.978 OFFCURVE",
"922 408 CURVE SMOOTH",
"832.839 159.023 OFFCURVE",
"686.236 54 OFFCURVE",
"422 54 CURVE SMOOTH"
);
}
);
width = 1084;
}
);
leftKerningGroup = a;
rightKerningGroup = a;
unicode = 0061;
},
{
glyphname = ae;
layers = (
{
layerId = "0B449CB6-2188-419A-9A7B-C88758FF5778";
name = "#instance";
paths = (
{
closed = 1;
nodes = (
"1542.083 -30 OFFCURVE",
"1670.521 55.511 OFFCURVE",
"1803 258 CURVE",
"1746 298 LINE",
"1630.7 128.621 OFFCURVE",
"1523.97 54 OFFCURVE",
"1320 54 CURVE SMOOTH",
"1068.695 54 OFFCURVE",
"980.996 256.968 OFFCURVE",
"1044 540 CURVE SMOOTH",
"1111.635 844.356 OFFCURVE",
"1236.645 1026 OFFCURVE",
"1535 1026 CURVE SMOOTH",
"1781.51 1026 OFFCURVE",
"1861.147 825.182 OFFCURVE",
"1807 544 CURVE",
"1800 516 LINE",
"1886 516 LINE",
"1962.628 861.311 OFFCURVE",
"1861.705 1110 OFFCURVE",
"1558 1110 CURVE SMOOTH",
"1200.599 1110 OFFCURVE",
"1040.251 903.665 OFFCURVE",
"960 542 CURVE SMOOTH",
"885.933 207.699 OFFCURVE",
"999.214 -30 OFFCURVE",
"1301 -30 CURVE SMOOTH"
);
},
{
closed = 1;
nodes = (
"255.774 54 OFFCURVE",
"159.222 141.533 OFFCURVE",
"192 290 CURVE SMOOTH",
"236.179 489.238 OFFCURVE",
"390.843 520 OFFCURVE",
"609 520 CURVE SMOOTH",
"959 520 LINE",
"964 560 LINE",
"938.017 438.747 OFFCURVE",
"922.319 369.63 OFFCURVE",
"851 268 CURVE",
"739.26 102.929 OFFCURVE",
"622.026 54 OFFCURVE",
"422 54 CURVE SMOOTH"
);
},
{
closed = 1;
nodes = (
"686.072 -30 OFFCURVE",
"838.619 60.344 OFFCURVE",
"965 300 CURVE",
"1074 676 LINE",
"1087.106 737.164 OFFCURVE",
"1093.405 771.462 OFFCURVE",
"1091 834 CURVE SMOOTH",
"1082.148 1026.54 OFFCURVE",
"959.331 1110 OFFCURVE",
"758 1110 CURVE SMOOTH",
"511.899 1110 OFFCURVE",
"360.687 1044.605 OFFCURVE",
"264 822 CURVE",
"346 794 LINE",
"428.622 969.573 OFFCURVE",
"545.327 1026 OFFCURVE",
"741 1026 CURVE SMOOTH",
"963.157 1026 OFFCURVE",
"1037.214 840.724 OFFCURVE",
"970 588 CURVE",
"975 600 LINE",
"627 600 LINE SMOOTH",
"350.958 600 OFFCURVE",
"161.146 546.306 OFFCURVE",
"105 292 CURVE SMOOTH",
"60.041 90.185 OFFCURVE",
"189.941 -30 OFFCURVE",
"415 -30 CURVE SMOOTH"
);
},
{
closed = 1;
nodes = (
"1836 516 LINE",
"1855 600 LINE",
"1023 600 LINE",
"1004 516 LINE"
);
}
);
width = 1892;
},
{
layerId = "321621ED-8527-4E96-9E7D-BC9A5BD846D9";
name = Layer7;
width = 1338;
},
{
layerId = "BA5DD788-FCBD-4F2A-AA95-5120243F7D5A";
name = Layer6;
width = 2058;
},
{
layerId = "6571C5BB-D9C1-4570-8E40-7CA3FF1E644F";
name = Layer5;
width = 1200;
},
{
layerId = "FD50858D-8A7B-4C5A-A944-44D81032B0FE";
name = public.background;
paths = (
{
closed = 1;
nodes = (
"1512 -30 OFFCURVE",
"1699 86 OFFCURVE",
"1774 282 CURVE",
"1517 360 LINE",
"1478 270 OFFCURVE",
"1400 224 OFFCURVE",
"1306 224 CURVE SMOOTH",
"1145 224 OFFCURVE",
"1062 346 OFFCURVE",
"1062 540 CURVE SMOOTH",
"1062 732 OFFCURVE",
"1122 874 OFFCURVE",
"1306 874 CURVE SMOOTH",
"1489 874 OFFCURVE",
"1529 760 OFFCURVE",
"1529 564 CURVE SMOOTH",
"1529 464 LINE",
"1784 464 LINE",
"1812 840 OFFCURVE",
"1640 1110 OFFCURVE",
"1306 1110 CURVE SMOOTH",
"996 1110 OFFCURVE",
"790 876 OFFCURVE",
"790 526 CURVE SMOOTH",
"790 204 OFFCURVE",
"1001 -30 OFFCURVE",
"1321 -30 CURVE SMOOTH"
);
},
{
closed = 1;
nodes = (
"390 182 OFFCURVE",
"346 244 OFFCURVE",
"346 302 CURVE SMOOTH",
"346 380 OFFCURVE",
"398 412 OFFCURVE",
"448 426 CURVE SMOOTH",
"520 446 OFFCURVE",
"686 444 OFFCURVE",
"790 444 CURVE",
"776 394 OFFCURVE",
"768 364 OFFCURVE",
"736 314 CURVE SMOOTH",
"692 244 OFFCURVE",
"600 182 OFFCURVE",
"500 182 CURVE SMOOTH"
);
},
{
closed = 1;
nodes = (
"646 -30 OFFCURVE",
"788 28 OFFCURVE",
"908 212 CURVE",
"1022 840 LINE",
"964 1018 OFFCURVE",
"814 1110 OFFCURVE",
"588 1110 CURVE",
"348 1110 OFFCURVE",
"190 968 OFFCURVE",
"118 804 CURVE",
"362 730 LINE",
"400 820 OFFCURVE",
"486 862 OFFCURVE",
"580 862 CURVE SMOOTH",
"674 862 OFFCURVE",
"794 796 OFFCURVE",
"794 678 CURVE",
"550 678 OFFCURVE",
"400 692 OFFCURVE",
"256 610 CURVE SMOOTH",
"178 566 OFFCURVE",
"80 466 OFFCURVE",
"80 308 CURVE SMOOTH",
"80 106 OFFCURVE",
"222 -30 OFFCURVE",
"450 -30 CURVE SMOOTH"
);
},
{
closed = 1;
nodes = (
"1659 464 LINE",
"1659 674 LINE",
"982 674 LINE",
"982 464 LINE"
);
}
);
width = 1868;
},
{
layerId = "1859055D-7BE4-451C-9A54-85DF861917C1";
paths = (
{
closed = 1;
nodes = (
"1528.713 -30 OFFCURVE",
"1664.244 63.343 OFFCURVE",
"1797 282 CURVE",
"1557 360 LINE",
"1493.61 263.303 OFFCURVE",
"1431.308 224 OFFCURVE",
"1316 224 CURVE SMOOTH",
"1154.62 224 OFFCURVE",
"1101.289 356.328 OFFCURVE",
"1142 540 CURVE SMOOTH",
"1186.792 744.765 OFFCURVE",
"1261.534 874 OFFCURVE",
"1460 874 CURVE SMOOTH",
"1612.674 874 OFFCURVE",
"1653.295 743.11 OFFCURVE",
"1614 564 CURVE SMOOTH",
"1592 464 LINE",
"1847 464 LINE",
"1956.547 835.08 OFFCURVE",
"1841.572 1110 OFFCURVE",
"1512 1110 CURVE SMOOTH",
"1133.149 1110 OFFCURVE",
"950.523 905.649 OFFCURVE",
"867 526 CURVE SMOOTH",
"792.918 194.687 OFFCURVE",
"948.265 -30 OFFCURVE",
"1274 -30 CURVE SMOOTH"
);
},
{
closed = 1;
nodes = (
"409.031 182 OFFCURVE",
"355.164 224.199 OFFCURVE",
"373 300 CURVE SMOOTH",
"407.594 458.146 OFFCURVE",
"541.676 450.718 OFFCURVE",
"712 470 CURVE SMOOTH",
"946 498 LINE",
"856 532 LINE",
"839.848 439.124 OFFCURVE",
"828.115 385.565 OFFCURVE",
"769 312 CURVE SMOOTH",
"690.87 215.84 OFFCURVE",
"621.865 182 OFFCURVE",
"498 182 CURVE SMOOTH"
);
},
{
closed = 1;
nodes = (
"638.468 -30 OFFCURVE",
"766.317 34.406 OFFCURVE",
"915 212 CURVE",
"1149 644 LINE",
"1164.994 719.972 OFFCURVE",
"1174.947 762.593 OFFCURVE",
"1168 840 CURVE SMOOTH",
"1150.034 1041.219 OFFCURVE",
"1009.375 1110 OFFCURVE",
"794 1110 CURVE SMOOTH",
"536.396 1110 OFFCURVE",
"399.101 1019.309 OFFCURVE",
"256 804 CURVE",
"484 730 LINE",
"547.32 828.255 OFFCURVE",
"613.961 862 OFFCURVE",
"731 862 CURVE SMOOTH",
"861.478 862 OFFCURVE",
"919.929 762.517 OFFCURVE",
"874 630 CURVE",
"949 682 LINE",
"696 650 LINE SMOOTH",
"389.288 612.251 OFFCURVE",
"167.752 576.886 OFFCURVE",
"104 290 CURVE SMOOTH",
"59.498 90.286 OFFCURVE",
"185.939 -30 OFFCURVE",
"407 -30 CURVE SMOOTH"
);
},
{
closed = 1;
nodes = (
"1722 464 LINE",
"1768 674 LINE",
"1091 674 LINE",
"1045 464 LINE"
);
}
);
width = 1868;
},
{
layerId = "FD50858D-8A7B-4C5A-A944-44D81032B0FE";
name = public.background;
paths = (
{
closed = 1;
nodes = (
"1547 -30 OFFCURVE",
"1704 70 OFFCURVE",
"1787 258 CURVE",
"1721 298 LINE",
"1645 136 OFFCURVE",
"1517 54 OFFCURVE",
"1346 54 CURVE SMOOTH",
"1095 54 OFFCURVE",
"965 246 OFFCURVE",
"965 540 CURVE SMOOTH",
"965 826 OFFCURVE",
"1091 1030 OFFCURVE",
"1346 1026 CURVE",
"1596 1030 OFFCURVE",
"1719 840 OFFCURVE",
"1726 544 CURVE",
"1726 516 LINE",
"1811 516 LINE",
"1811 870 OFFCURVE",
"1662 1110 OFFCURVE",
"1346 1110 CURVE SMOOTH",
"1048 1110 OFFCURVE",
"880 880 OFFCURVE",
"880 540 CURVE SMOOTH",
"880 206 OFFCURVE",
"1046 -30 OFFCURVE",
"1346 -30 CURVE SMOOTH"
);
},
{
closed = 1;
nodes = (
"280 54 OFFCURVE",
"168 140 OFFCURVE",
"168 292 CURVE SMOOTH",
"168 404 OFFCURVE",
"236 464 OFFCURVE",
"300 492 CURVE SMOOTH",
"388 530 OFFCURVE",
"700 520 OFFCURVE",
"882 520 CURVE",
"880 440 OFFCURVE",
"874 360 OFFCURVE",
"830 268 CURVE SMOOTH",
"762 122 OFFCURVE",
"618 54 OFFCURVE",
"436 54 CURVE SMOOTH"
);
},
{
closed = 1;
nodes = (
"708 -32 OFFCURVE",
"870 82 OFFCURVE",
"938 300 CURVE",
"946 834 LINE",
"900 1008 OFFCURVE",
"766 1110 OFFCURVE",
"566 1110 CURVE SMOOTH",
"336 1110 OFFCURVE",
"166 1020 OFFCURVE",
"122 822 CURVE",
"210 794 LINE",
"254 964 OFFCURVE",
"382 1026 OFFCURVE",
"560 1026 CURVE SMOOTH",
"852 1026 OFFCURVE",
"886 792 OFFCURVE",
"882 600 CURVE",
"660 600 OFFCURVE",
"392 610 OFFCURVE",
"268 566 CURVE SMOOTH",
"150 524 OFFCURVE",
"80 422 OFFCURVE",
"80 292 CURVE SMOOTH",
"80 92 OFFCURVE",
"234 -28 OFFCURVE",
"434 -30 CURVE SMOOTH"
);
},
{
closed = 1;
nodes = (
"1762 516 LINE",
"1762 600 LINE",
"931 600 LINE",
"931 516 LINE"
);
}
);
width = 1868;
},
{
layerId = "E6C7DF62-62C5-46F1-94C3-6D079D8A542C";
paths = (
{
closed = 1;
nodes = (
"1542.083 -30 OFFCURVE",
"1670.521 55.511 OFFCURVE",
"1803 258 CURVE",
"1746 298 LINE",
"1630.7 128.621 OFFCURVE",
"1523.97 54 OFFCURVE",
"1320 54 CURVE SMOOTH",
"1068.695 54 OFFCURVE",
"980.996 256.968 OFFCURVE",
"1044 540 CURVE SMOOTH",
"1111.635 844.356 OFFCURVE",
"1236.645 1026 OFFCURVE",
"1535 1026 CURVE SMOOTH",
"1781.51 1026 OFFCURVE",
"1861.147 825.182 OFFCURVE",
"1807 544 CURVE",
"1800 516 LINE",
"1886 516 LINE",
"1962.628 861.311 OFFCURVE",
"1861.705 1110 OFFCURVE",
"1558 1110 CURVE SMOOTH",
"1200.599 1110 OFFCURVE",
"1040.251 903.665 OFFCURVE",
"960 542 CURVE SMOOTH",
"885.933 207.699 OFFCURVE",
"999.214 -30 OFFCURVE",
"1301 -30 CURVE SMOOTH"
);
},
{
closed = 1;
nodes = (
"255.774 54 OFFCURVE",
"159.222 141.533 OFFCURVE",
"192 290 CURVE SMOOTH",
"236.179 489.238 OFFCURVE",
"390.843 520 OFFCURVE",
"609 520 CURVE SMOOTH",
"959 520 LINE",
"964 560 LINE",
"938.017 438.747 OFFCURVE",
"922.319 369.63 OFFCURVE",
"851 268 CURVE SMOOTH",
"739.26 102.929 OFFCURVE",
"622.026 54 OFFCURVE",
"422 54 CURVE SMOOTH"
);
},
{
closed = 1;
nodes = (
"686.072 -30 OFFCURVE",
"838.619 60.344 OFFCURVE",
"965 300 CURVE",
"1074 676 LINE",
"1087.106 737.164 OFFCURVE",
"1093.405 771.462 OFFCURVE",
"1091 834 CURVE SMOOTH",
"1082.148 1026.54 OFFCURVE",
"959.331 1110 OFFCURVE",
"758 1110 CURVE SMOOTH",
"511.899 1110 OFFCURVE",
"360.687 1044.605 OFFCURVE",
"264 822 CURVE",
"346 794 LINE",
"428.622 969.573 OFFCURVE",
"545.327 1026 OFFCURVE",
"741 1026 CURVE SMOOTH",
"963.157 1026 OFFCURVE",
"1037.214 840.724 OFFCURVE",
"970 588 CURVE",
"975 600 LINE",
"627 600 LINE SMOOTH",
"350.958 600 OFFCURVE",
"161.146 546.306 OFFCURVE",
"105 292 CURVE SMOOTH",
"60.041 90.185 OFFCURVE",
"189.941 -30 OFFCURVE",
"415 -30 CURVE SMOOTH"
);
},
{
closed = 1;
nodes = (
"1836 516 LINE",
"1855 600 LINE",
"1023 600 LINE",
"1004 516 LINE"
);
}
);
width = 1892;
}
);
leftKerningGroup = a;
rightKerningGroup = e;
unicode = 00E6;
},
{
glyphname = b;
layers = (
{
layerId = "6571C5BB-D9C1-4570-8E40-7CA3FF1E644F";
name = Layer5;
width = 1192;
},
{
layerId = "CBCB5F37-9E29-4BCC-9D4B-3E9EA04104CC";
name = Layer4;
width = 1150;
},
{
layerId = "AE607061-5769-4FDA-9CBB-E069495578C9";
name = Layer3;
width = 1200;
},
{
layerId = "1859055D-7BE4-451C-9A54-85DF861917C1";
paths = (
{
closed = 1;
nodes = (
"990.868 -30 OFFCURVE",
"1165.967 170.85 OFFCURVE",
"1248 540 CURVE SMOOTH",
"1322.516 876.854 OFFCURVE",
"1181.684 1110 OFFCURVE",
"862 1110 CURVE SMOOTH",
"504.133 1110 OFFCURVE",
"344.529 902.38 OFFCURVE",
"264 540 CURVE SMOOTH",
"189.653 205.44 OFFCURVE",
"314.563 -30 OFFCURVE",
"623 -30 CURVE SMOOTH"
);
},
{
closed = 1;
nodes = (
"338 0 LINE",
"502 740 LINE",
"536 740 LINE",
"691 1440 LINE",
"417 1440 LINE",
"98 0 LINE"
);
},
{
closed = 1;
nodes = (
"467.322 212 OFFCURVE",
"415.295 349.767 OFFCURVE",
"458 540 CURVE SMOOTH",
"501.989 740.508 OFFCURVE",
"573.883 868 OFFCURVE",
"768 868 CURVE SMOOTH",
"939.731 868 OFFCURVE",
"1002.539 731.427 OFFCURVE",
"960 540 CURVE SMOOTH",
"914.01 335.848 OFFCURVE",
"832.712 212 OFFCURVE",
"633 212 CURVE SMOOTH"
);
}
);
width = 1248;
},
{
layerId = "E6C7DF62-62C5-46F1-94C3-6D079D8A542C";
paths = (
{
closed = 1;
nodes = (
"912.996 -30 OFFCURVE",
"1071.359 179.114 OFFCURVE",
"1152 542 CURVE SMOOTH",
"1225.934 873.143 OFFCURVE",
"1119.788 1110 OFFCURVE",
"824 1110 CURVE SMOOTH",
"469.555 1110 OFFCURVE",
"314.036 901.615 OFFCURVE",
"234 542 CURVE SMOOTH",
"160.593 209.086 OFFCURVE",
"260.812 -30 OFFCURVE",
"555 -30 CURVE SMOOTH"
);
},
{
closed = 1;
nodes = (
"178 0 LINE",
"366 850 LINE",
"372 850 LINE",
"503 1440 LINE",
"419 1440 LINE",
"100 0 LINE"
);
},
{
closed = 1;
nodes = (
"322.315 54 OFFCURVE",
"235.64 257.8 OFFCURVE",
"298 542 CURVE SMOOTH",
"365.799 845.48 OFFCURVE",
"491.225 1026 OFFCURVE",
"789 1026 CURVE SMOOTH",
"1038.47 1026 OFFCURVE",
"1124.277 823.779 OFFCURVE",
"1062 542 CURVE SMOOTH",
"995.149 237.333 OFFCURVE",
"871.971 54 OFFCURVE",
"574 54 CURVE SMOOTH"
);
}
);
width = 1152;
}
);
leftKerningGroup = n;
rightKerningGroup = o;
unicode = 0062;
},
{
glyphname = c;
layers = (
{
layerId = "6571C5BB-D9C1-4570-8E40-7CA3FF1E644F";
name = Layer5;
width = 1190;
},
{
layerId = "CBCB5F37-9E29-4BCC-9D4B-3E9EA04104CC";
name = Layer4;
width = 1132;
},
{
layerId = "AE607061-5769-4FDA-9CBB-E069495578C9";
name = Layer3;
width = 1200;
},
{
layerId = "1859055D-7BE4-451C-9A54-85DF861917C1";
paths = (
{
closed = 1;
nodes = (
"854.424 -30 OFFCURVE",
"1013.031 71.602 OFFCURVE",
"1139 328 CURVE",
"874 386 LINE",
"815.258 274.925 OFFCURVE",
"750.701 224 OFFCURVE",
"626 224 CURVE SMOOTH",
"463.096 224 OFFCURVE",
"406.913 356.085 OFFCURVE",
"448 540 CURVE SMOOTH",
"491.909 737.591 OFFCURVE",
"572.449 856 OFFCURVE",
"766 856 CURVE SMOOTH",
"879.137 856 OFFCURVE",
"936.807 793.083 OFFCURVE",
"944 678 CURVE",
"1232 750 LINE",
"1233.101 994.413 OFFCURVE",
"1080.989 1110 OFFCURVE",
"826 1110 CURVE SMOOTH",
"442.12 1110 OFFCURVE",
"243.43 920.068 OFFCURVE",
"160 540 CURVE SMOOTH",
"84.683 201.074 OFFCURVE",
"239.008 -30 OFFCURVE",
"569 -30 CURVE SMOOTH"
);
}
);
width = 1166;
},
{
layerId = "E6C7DF62-62C5-46F1-94C3-6D079D8A542C";
paths = (
{
closed = 1;
nodes = (
"758.386 -30 OFFCURVE",
"881.803 47.594 OFFCURVE",
"1020 234 CURVE",
"946 270 LINE",
"838.501 114.235 OFFCURVE",
"734.962 54 OFFCURVE",
"546 54 CURVE SMOOTH",
"288.339 54 OFFCURVE",
"190.88 255.061 OFFCURVE",
"250 540 CURVE",
"322.7 847.905 OFFCURVE",
"456.314 1026 OFFCURVE",
"761 1026 CURVE SMOOTH",
"929.345 1026 OFFCURVE",
"1033.338 968.183 OFFCURVE",
"1067 808 CURVE",
"1155 842 LINE",
"1119.233 1039.91 OFFCURVE",
"988.425 1110 OFFCURVE",
"780 1110 CURVE SMOOTH",
"415.174 1110 OFFCURVE",
"246.791 906.215 OFFCURVE",
"160 540 CURVE",
"91.415 204.034 OFFCURVE",
"217.284 -30 OFFCURVE",
"527 -30 CURVE SMOOTH"
);
}
);
width = 1078;
}
);
leftKerningGroup = o;
rightKerningGroup = c;
unicode = 0063;
},
{
glyphname = d;
layers = (
{
layerId = "6571C5BB-D9C1-4570-8E40-7CA3FF1E644F";
name = Layer5;
width = 1192;
},
{
layerId = "CBCB5F37-9E29-4BCC-9D4B-3E9EA04104CC";
name = Layer4;
width = 1150;
},
{
layerId = "AE607061-5769-4FDA-9CBB-E069495578C9";
name = Layer3;
width = 1200;
},
{
layerId = "1859055D-7BE4-451C-9A54-85DF861917C1";
paths = (
{
closed = 1;
nodes = (
"894.384 -30 OFFCURVE",
"1062.64 173.881 OFFCURVE",
"1144 540 CURVE SMOOTH",
"1218.125 873.565 OFFCURVE",
"1101.217 1110 OFFCURVE",
"798 1110 CURVE SMOOTH",
"425.118 1110 OFFCURVE",
"242.42 912.584 OFFCURVE",
"160 540 CURVE SMOOTH",
"85.439 204.475 OFFCURVE",
"217.592 -30 OFFCURVE",
"531 -30 CURVE SMOOTH"
);
},
{
closed = 1;
nodes = (
"461.179 212 OFFCURVE",
"405.059 349.386 OFFCURVE",
"448 540 CURVE SMOOTH",
"493.896 746.534 OFFCURVE",
"580.997 868 OFFCURVE",
"784 868 CURVE SMOOTH",
"946.496 868 OFFCURVE",
"991.62 729.709 OFFCURVE",
"950 540 CURVE SMOOTH",
"904.481 337.234 OFFCURVE",
"826.668 212 OFFCURVE",
"629 212 CURVE SMOOTH"
);
},
{
closed = 1;
nodes = (
"1070 0 LINE",
"1389 1440 LINE",
"1115 1440 LINE",
"960 740 LINE",
"994 740 LINE",
"830 0 LINE"
);
}
);
width = 1250;
},
{
layerId = "E6C7DF62-62C5-46F1-94C3-6D079D8A542C";
paths = (
{
closed = 1;
nodes = (
"853.246 -30 OFFCURVE",
"999.126 184.289 OFFCURVE",
"1078 542 CURVE SMOOTH",
"1151.864 873.881 OFFCURVE",
"1039.535 1110 OFFCURVE",
"740 1110 CURVE SMOOTH",
"389.192 1110 OFFCURVE",
"239.727 899.086 OFFCURVE",
"160 542 CURVE SMOOTH",
"85.684 207.577 OFFCURVE",
"200.371 -30 OFFCURVE",
"503 -30 CURVE SMOOTH"
);
},
{
closed = 1;
nodes = (
"271.762 54 OFFCURVE",
"187.701 258.078 OFFCURVE",
"250 542 CURVE SMOOTH",
"316.91 844.741 OFFCURVE",
"440.504 1026 OFFCURVE",
"737 1026 CURVE SMOOTH",
"988.123 1026 OFFCURVE",
"1076.999 823.993 OFFCURVE",
"1014 542 CURVE SMOOTH",
"946.937 236.368 OFFCURVE",
"821.38 54 OFFCURVE",
"522 54 CURVE SMOOTH"
);
},
{
closed = 1;
nodes = (
"972 0 LINE",
"1291 1440 LINE",
"1207 1440 LINE",
"1076 850 LINE",
"1082 850 LINE",
"894 0 LINE"
);
}
);
width = 1152;
}
);
leftKerningGroup = o;
rightKerningGroup = u;
unicode = 0064;
},
{
glyphname = eth;
layers = (
{
layerId = "0B449CB6-2188-419A-9A7B-C88758FF5778";
name = "#instance";
paths = (
{
closed = 1;
nodes = (
"882.125 -34.688 OFFCURVE",
"1059.652 151.259 OFFCURVE",
"1138 506 CURVE SMOOTH",
"1193.646 755.295 OFFCURVE",
"1262.156 898.014 OFFCURVE",
"1190 1144 CURVE",
"1129.305 1368.457 OFFCURVE",
"990.761 1451.711 OFFCURVE",
"755 1466 CURVE",
"727 1384 LINE",
"1025.894 1361.86 OFFCURVE",
"1152.066 1161.463 OFFCURVE",
"1118 850 CURVE",
"1049.063 1005.109 OFFCURVE",
"937.386 1040.209 OFFCURVE",
"764 1038 CURVE",
"409.852 1042.614 OFFCURVE",
"233.82 857.119 OFFCURVE",
"152 504 CURVE",
"84.953 184.542 OFFCURVE",
"223.186 -33.883 OFFCURVE",
"527 -30 CURVE"
);
},
{
closed = 1;
nodes = (
"293.721 54 OFFCURVE",
"182.623 238.218 OFFCURVE",
"242 504 CURVE",
"306.735 799.623 OFFCURVE",
"450.539 958.513 OFFCURVE",
"745 954 CURVE",
"996.072 957.938 OFFCURVE",
"1107.509 772.829 OFFCURVE",
"1048 506 CURVE SMOOTH",
"982.919 211.537 OFFCURVE",
"840.209 54 OFFCURVE",
"546 54 CURVE SMOOTH"
);
},
{
closed = 1;
nodes = (
"1179 1512 LINE",
"1125 1564 LINE",
"768 1210 LINE",
"823 1158 LINE"
);
}
);
width = 1146;
},
{
layerId = "6571C5BB-D9C1-4570-8E40-7CA3FF1E644F";
name = Layer5;
width = 1196;
},
{
layerId = "CBCB5F37-9E29-4BCC-9D4B-3E9EA04104CC";
name = Layer4;
width = 1170;
},
{
layerId = "AE607061-5769-4FDA-9CBB-E069495578C9";
name = Layer3;
width = 1200;
},
{
layerId = "1859055D-7BE4-451C-9A54-85DF861917C1";
paths = (
{
closed = 1;
nodes = (
"922.081 -30 OFFCURVE",
"1114.856 147.704 OFFCURVE",
"1195 510 CURVE SMOOTH",
"1265.227 826.836 OFFCURVE",
"1334.932 1025.866 OFFCURVE",
"1169 1304 CURVE SMOOTH",
"1067.753 1476.119 OFFCURVE",
"942.652 1514.04 OFFCURVE",
"741 1520 CURVE",
"653 1314 LINE",
"901.633 1295.668 OFFCURVE",
"1056.19 1195.364 OFFCURVE",
"1040 966 CURVE",
"950.158 1015.7 OFFCURVE",
"894.722 1036 OFFCURVE",
"792 1036 CURVE SMOOTH",
"425.813 1036 OFFCURVE",
"230.838 862.412 OFFCURVE",
"151 502 CURVE SMOOTH",
"80.954 183.238 OFFCURVE",
"237.114 -30 OFFCURVE",
"555 -30 CURVE SMOOTH"
);
},
{
closed = 1;
nodes = (
"449.913 210 OFFCURVE",
"385.458 331.478 OFFCURVE",
"424 504 CURVE SMOOTH",
"464.952 691.782 OFFCURVE",
"551.687 796 OFFCURVE",
"738 796 CURVE SMOOTH",
"896.078 796 OFFCURVE",
"960.188 675.382 OFFCURVE",
"922 504 CURVE SMOOTH",
"879.585 316.162 OFFCURVE",
"795.113 210 OFFCURVE",
"609 210 CURVE SMOOTH"
);
},
{
closed = 1;
nodes = (
"1248 1434 LINE",
"1129 1566 LINE",
"716 1190 LINE",
"835 1058 LINE"
);
}
);
width = 1202;
},
{
layerId = "E6C7DF62-62C5-46F1-94C3-6D079D8A542C";
paths = (
{
closed = 1;
nodes = (
"882.125 -34.688 OFFCURVE",
"1059.652 151.259 OFFCURVE",
"1138 506 CURVE SMOOTH",
"1193.646 755.295 OFFCURVE",
"1262.156 898.014 OFFCURVE",
"1190 1144 CURVE SMOOTH",
"1129.305 1368.457 OFFCURVE",
"990.761 1451.711 OFFCURVE",
"755 1466 CURVE",
"727 1384 LINE",
"1025.894 1361.86 OFFCURVE",
"1152.066 1161.463 OFFCURVE",
"1118 850 CURVE",
"1049.063 1005.109 OFFCURVE",
"937.386 1040.209 OFFCURVE",
"764 1038 CURVE SMOOTH",
"409.852 1042.614 OFFCURVE",
"233.82 857.119 OFFCURVE",
"152 504 CURVE SMOOTH",
"84.953 184.542 OFFCURVE",
"223.186 -33.883 OFFCURVE",
"527 -30 CURVE SMOOTH"
);
},
{
closed = 1;
nodes = (
"293.721 54 OFFCURVE",
"182.623 238.218 OFFCURVE",
"242 504 CURVE SMOOTH",
"306.735 799.623 OFFCURVE",
"450.539 958.513 OFFCURVE",
"745 954 CURVE",
"996.072 957.938 OFFCURVE",
"1107.509 772.829 OFFCURVE",
"1048 506 CURVE SMOOTH",
"982.919 211.537 OFFCURVE",
"840.209 54 OFFCURVE",
"546 54 CURVE SMOOTH"
);
},
{
closed = 1;
nodes = (
"1179 1512 LINE",
"1125 1564 LINE",
"768 1210 LINE",
"823 1158 LINE"
);
}
);
width = 1146;
}
);
leftKerningGroup = d;
rightKerningGroup = b;
unicode = 00F0;
},
{
glyphname = e;
layers = (
{
layerId = "BA5DD788-FCBD-4F2A-AA95-5120243F7D5A";
name = Layer6;
width = 1194;
},
{
layerId = "6571C5BB-D9C1-4570-8E40-7CA3FF1E644F";
name = Layer5;
width = 1168;
},
{
layerId = "CBCB5F37-9E29-4BCC-9D4B-3E9EA04104CC";
name = Layer4;
width = 1200;
},
{
layerId = "FD50858D-8A7B-4C5A-A944-44D81032B0FE";
name = public.background;
paths = (
{
closed = 1;
nodes = (
"854 -30 OFFCURVE",
"1046 94 OFFCURVE",
"1122 282 CURVE",
"850 360 LINE",
"810 272 OFFCURVE",
"730 224 OFFCURVE",
"626 224 CURVE SMOOTH",
"462 224 OFFCURVE",
"368 338 OFFCURVE",
"368 540 CURVE SMOOTH",
"368 762 OFFCURVE",
"454 874 OFFCURVE",
"626 874 CURVE SMOOTH",
"798 874 OFFCURVE",
"862 790 OFFCURVE",
"862 564 CURVE SMOOTH",
"862 464 LINE",
"1131 464 LINE",
"1164 856 OFFCURVE",
"966 1110 OFFCURVE",
"626 1110 CURVE SMOOTH",
"298 1110 OFFCURVE",
"80 876 OFFCURVE",
"80 526 CURVE SMOOTH",
"80 198 OFFCURVE",
"310 -30 OFFCURVE",
"642 -30 CURVE SMOOTH"
);
},
{
closed = 1;
nodes = (
"1000 464 LINE",
"1000 666 LINE",
"284 666 LINE",
"284 464 LINE"
);
}
);
width = 1216;
},
{
layerId = "1859055D-7BE4-451C-9A54-85DF861917C1";
paths = (
{
closed = 1;
nodes = (
"859.003 -30 OFFCURVE",
"1002.955 58.786 OFFCURVE",
"1145 282 CURVE",
"890 360 LINE",
"822.41 260.868 OFFCURVE",
"755.893 224 OFFCURVE",
"636 224 CURVE SMOOTH",
"469.362 224 OFFCURVE",
"406.869 355.369 OFFCURVE",
"448 540 CURVE SMOOTH",
"494.043 751.03 OFFCURVE",
"584.453 874 OFFCURVE",
"792 874 CURVE SMOOTH",
"945.098 874 OFFCURVE",
"986.901 743.147 OFFCURVE",
"947 564 CURVE SMOOTH",
"925 464 LINE",
"1194 464 LINE",
"1307.671 835.324 OFFCURVE",
"1173.544 1110 OFFCURVE",
"832 1110 CURVE SMOOTH",
"441.65 1110 OFFCURVE",
"242.354 913.374 OFFCURVE",
"157 526 CURVE SMOOTH",
"82.612 191.256 OFFCURVE",
"254.963 -30 OFFCURVE",
"595 -30 CURVE SMOOTH"
);
},
{
closed = 1;
nodes = (
"1063 464 LINE",
"1108 666 LINE",
"392 666 LINE",
"347 464 LINE"
);
}
);
width = 1216;
},
{
layerId = "E6C7DF62-62C5-46F1-94C3-6D079D8A542C";
paths = (
{
closed = 1;
nodes = (
"777.421 -30 OFFCURVE",
"912.909 52.475 OFFCURVE",
"1057 258 CURVE",
"996 298 LINE",
"870.86 126.069 OFFCURVE",
"757.999 54 OFFCURVE",
"546 54 CURVE SMOOTH",
"286.918 54 OFFCURVE",
"186.283 255.58 OFFCURVE",
"250 540 CURVE SMOOTH",
"318.307 849.393 OFFCURVE",
"455.369 1026 OFFCURVE",
"761 1026 CURVE SMOOTH",
"1016.335 1026 OFFCURVE",
"1111.804 827.153 OFFCURVE",
"1057 544 CURVE",
"1050 516 LINE",
"1140 516 LINE",
"1217.637 863.519 OFFCURVE",
"1095.886 1110 OFFCURVE",
"780 1110 CURVE SMOOTH",
"413.854 1110 OFFCURVE",
"241.105 908.09 OFFCURVE",
"160 540 CURVE SMOOTH",
"85.717 204.773 OFFCURVE",
"215.337 -30 OFFCURVE",
"527 -30 CURVE SMOOTH"
);
},
{
closed = 1;
nodes = (
"1088 516 LINE",
"1107 600 LINE",
"227 600 LINE",
"208 516 LINE"
);
}
);
width = 1146;
}
);
leftKerningGroup = o;
rightKerningGroup = e;
unicode = 0065;
},
{
glyphname = eogonek;
layers = (
{
layerId = "6571C5BB-D9C1-4570-8E40-7CA3FF1E644F";
name = Layer5;
width = 1194;
},
{
layerId = "CBCB5F37-9E29-4BCC-9D4B-3E9EA04104CC";
name = Layer4;
width = 1168;
},
{
layerId = "AE607061-5769-4FDA-9CBB-E069495578C9";
name = Layer3;
width = 1200;
},
{
components = (
{
name = e;
alignment = -1;
}
);
layerId = "1859055D-7BE4-451C-9A54-85DF861917C1";
paths = (
{
closed = 1;
nodes = (
"884 -440 OFFCURVE",
"923 -410 OFFCURVE",
"951 -374 CURVE",
"885 -250 LINE",
"847 -276 OFFCURVE",
"792 -290 OFFCURVE",
"774 -262 CURVE SMOOTH",
"760 -242 OFFCURVE",
"774 -206 OFFCURVE",
"781 -194 CURVE SMOOTH",
"801 -156 OFFCURVE",
"838 -100 OFFCURVE",
"888 -36 CURVE SMOOTH",
"938 28 OFFCURVE",
"1001 106 OFFCURVE",
"1085 204 CURVE",
"921 232 LINE",
"859 178 OFFCURVE",
"784 92 OFFCURVE",
"747 48 CURVE SMOOTH",
"709 4 OFFCURVE",
"648 -64 OFFCURVE",
"609 -124 CURVE SMOOTH",
"548 -216 OFFCURVE",
"542 -324 OFFCURVE",
"580 -390 CURVE SMOOTH",
"624 -470 OFFCURVE",
"733 -502 OFFCURVE",
"836 -460 CURVE SMOOTH"
);
}
);
width = 1216;
},
{
components = (
{
name = e;
alignment = -1;
}
);
layerId = "E6C7DF62-62C5-46F1-94C3-6D079D8A542C";
paths = (
{
closed = 1;
nodes = (
"749 -448 OFFCURVE",
"784 -426 OFFCURVE",
"813 -402 CURVE",
"774 -344 LINE",
"716 -388 OFFCURVE",
"638 -424 OFFCURVE",
"596 -370 CURVE SMOOTH",
"574 -342 OFFCURVE",
"584 -306 OFFCURVE",
"603 -268 CURVE SMOOTH",
"628 -216 OFFCURVE",
"674 -162 OFFCURVE",
"719 -112 CURVE SMOOTH",
"761 -66 OFFCURVE",
"962 118 OFFCURVE",
"1046 242 CURVE",
"960 236 LINE",
"873 104 OFFCURVE",
"704 -26 OFFCURVE",
"652 -80 CURVE SMOOTH",
"601 -132 OFFCURVE",
"556 -188 OFFCURVE",
"527 -246 CURVE SMOOTH",
"492 -318 OFFCURVE",
"487 -382 OFFCURVE",
"525 -430 CURVE SMOOTH",
"560 -476 OFFCURVE",
"630 -494 OFFCURVE",
"709 -464 CURVE SMOOTH"
);
}
);
width = 1146;
}
);
leftKerningGroup = e;
rightKerningGroup = e;
unicode = 0119;
},
{
glyphname = f;
layers = (
{
layerId = "6571C5BB-D9C1-4570-8E40-7CA3FF1E644F";
name = Layer5;
width = 1104;
},
{
layerId = "CBCB5F37-9E29-4BCC-9D4B-3E9EA04104CC";
name = Layer4;
width = 596;
},
{
layerId = "AE607061-5769-4FDA-9CBB-E069495578C9";
name = Layer3;
width = 1200;
},
{
layerId = "1859055D-7BE4-451C-9A54-85DF861917C1";
paths = (
{
closed = 1;
nodes = (
"462 0 LINE",
"715 1140 LINE SMOOTH",
"732.201 1219.39 OFFCURVE",
"782.091 1250 OFFCURVE",
"865 1250 CURVE",
"989 1250 LINE",
"1038 1470 LINE",
"904 1470 LINE",
"760.74 1470 OFFCURVE",
"672.536 1465.456 OFFCURVE",
"566 1370 CURVE SMOOTH",
"468.168 1283.262 OFFCURVE",
"457.006 1203.585 OFFCURVE",
"429 1076 CURVE SMOOTH",
"190 0 LINE"
);
},
{
closed = 1;
nodes = (
"905 870 LINE",
"951 1080 LINE",
"259 1080 LINE",
"213 870 LINE"
);
}
);
width = 772;
},
{
layerId = "E6C7DF62-62C5-46F1-94C3-6D079D8A542C";
paths = (
{
closed = 1;
nodes = (
"300 0 LINE",
"565 1194 LINE SMOOTH",
"594.134 1326.926 OFFCURVE",
"662.954 1394 OFFCURVE",
"797 1394 CURVE SMOOTH",
"927 1394 LINE",
"944 1470 LINE",
"804 1470 LINE SMOOTH",
"713.482 1470 OFFCURVE",
"660.01 1460.483 OFFCURVE",
"591 1402 CURVE SMOOTH",
"521.905 1341.821 OFFCURVE",
"502.213 1291.362 OFFCURVE",
"482 1202 CURVE SMOOTH",
"216 0 LINE"
);
},
{
closed = 1;
nodes = (
"839 996 LINE",
"857 1080 LINE",
"259 1080 LINE",
"241 996 LINE"
);
}
);
width = 678;
}
);
leftKerningGroup = f;
rightKerningGroup = f;
unicode = 0066;
},
{
glyphname = g;
layers = (
{
layerId = "6571C5BB-D9C1-4570-8E40-7CA3FF1E644F";
name = Layer5;
width = 1192;
},
{
layerId = "CBCB5F37-9E29-4BCC-9D4B-3E9EA04104CC";
name = Layer4;
width = 1150;
},
{
layerId = "AE607061-5769-4FDA-9CBB-E069495578C9";
name = Layer3;
width = 1200;
},
{
layerId = "1859055D-7BE4-451C-9A54-85DF861917C1";
paths = (
{
closed = 1;
nodes = (
"717.155 -510 OFFCURVE",
"888.044 -457.097 OFFCURVE",
"1003 -220 CURVE SMOOTH",
"1029.145 -165.334 OFFCURVE",
"1038.857 -133.141 OFFCURVE",
"1052 -74 CURVE SMOOTH",
"1307 1080 LINE",
"1069 1080 LINE",
"884 244 LINE",
"850 244 LINE",
"780 -70 LINE",
"754.399 -209.642 OFFCURVE",
"656.995 -252 OFFCURVE",
"508 -252 CURVE SMOOTH",
"426.021 -252 OFFCURVE",
"373.786 -230.117 OFFCURVE",
"350 -154 CURVE",
"71 -276 LINE",
"136.065 -454.611 OFFCURVE",
"255.506 -510 OFFCURVE",
"449 -510 CURVE SMOOTH"
);
},
{
closed = 1;
nodes = (
"894.384 -30 OFFCURVE",
"1062.64 173.881 OFFCURVE",
"1144 540 CURVE SMOOTH",
"1218.125 873.565 OFFCURVE",
"1101.217 1110 OFFCURVE",
"798 1110 CURVE SMOOTH",
"425.118 1110 OFFCURVE",
"242.42 912.584 OFFCURVE",
"160 540 CURVE SMOOTH",
"85.439 204.475 OFFCURVE",
"217.592 -30 OFFCURVE",
"531 -30 CURVE SMOOTH"
);
},
{
closed = 1;
nodes = (
"461.179 212 OFFCURVE",
"405.059 349.386 OFFCURVE",
"448 540 CURVE SMOOTH",
"493.896 746.534 OFFCURVE",
"580.997 868 OFFCURVE",
"784 868 CURVE SMOOTH",
"946.496 868 OFFCURVE",
"991.62 729.709 OFFCURVE",
"950 540 CURVE SMOOTH",
"904.481 337.234 OFFCURVE",
"826.668 212 OFFCURVE",
"629 212 CURVE SMOOTH"
);
}
);
width = 1248;
},
{
layerId = "E6C7DF62-62C5-46F1-94C3-6D079D8A542C";
paths = (
{
closed = 1;
nodes = (
"683.625 -510 OFFCURVE",
"841.451 -395.42 OFFCURVE",
"934 -126 CURVE SMOOTH",
"959.012 -54.537 OFFCURVE",
"969.29 -14.06 OFFCURVE",
"985 60 CURVE SMOOTH",
"1211 1080 LINE",
"1133 1080 LINE",
"968 336 LINE",
"960 336 LINE",
"899 60 LINE SMOOTH",
"832.169 -241.212 OFFCURVE",
"712.347 -424 OFFCURVE",
"418 -424 CURVE SMOOTH",
"255.127 -424 OFFCURVE",
"153.415 -373.368 OFFCURVE",
"113 -220 CURVE",
"28 -270 LINE",
"85.68 -450.995 OFFCURVE",
"205.205 -510 OFFCURVE",
"399 -510 CURVE SMOOTH"
);
},
{
closed = 1;
nodes = (
"853.246 -30 OFFCURVE",
"999.126 184.289 OFFCURVE",
"1078 542 CURVE SMOOTH",
"1151.864 873.881 OFFCURVE",
"1039.535 1110 OFFCURVE",
"740 1110 CURVE SMOOTH",
"389.192 1110 OFFCURVE",
"239.727 899.086 OFFCURVE",
"160 542 CURVE SMOOTH",
"85.684 207.577 OFFCURVE",
"200.371 -30 OFFCURVE",
"503 -30 CURVE SMOOTH"
);
},
{
closed = 1;
nodes = (
"271.762 54 OFFCURVE",
"187.701 258.078 OFFCURVE",
"250 542 CURVE SMOOTH",
"316.91 844.741 OFFCURVE",
"440.504 1026 OFFCURVE",
"737 1026 CURVE SMOOTH",
"988.123 1026 OFFCURVE",
"1076.999 823.993 OFFCURVE",
"1014 542 CURVE SMOOTH",
"946.937 236.368 OFFCURVE",
"821.38 54 OFFCURVE",
"522 54 CURVE SMOOTH"
);
}
);
width = 1152;
}
);
leftKerningGroup = g;
rightKerningGroup = g;
unicode = 0067;
},
{
glyphname = h;
layers = (
{
layerId = "0B449CB6-2188-419A-9A7B-C88758FF5778";
name = "#instance";
paths = (
{
closed = 1;
nodes = (
"986 0 LINE",
"1116 588 LINE SMOOTH",
"1183.167 890.723 OFFCURVE",
"1071.373 1104 OFFCURVE",
"793 1104 CURVE SMOOTH",
"463.228 1104 OFFCURVE",
"309.582 920.016 OFFCURVE",
"236 588 CURVE",
"315 590 LINE",
"375.789 866.532 OFFCURVE",
"501.15 1022 OFFCURVE",
"775 1022 CURVE SMOOTH",
"1006.994 1022 OFFCURVE",
"1086.845 834.003 OFFCURVE",
"1029 572 CURVE SMOOTH",
"902 0 LINE"
);
},
{
closed = 1;
nodes = (
"184 0 LINE",
"315 590 LINE",
"309 590 LINE",
"497 1440 LINE",
"419 1440 LINE",
"100 0 LINE"
);
}
);
width = 1146;
},
{
layerId = "321621ED-8527-4E96-9E7D-BC9A5BD846D9";
name = Layer7;
width = 1188;
},
{
layerId = "BA5DD788-FCBD-4F2A-AA95-5120243F7D5A";
name = Layer6;
width = 1128;
},
{
layerId = "6571C5BB-D9C1-4570-8E40-7CA3FF1E644F";
name = Layer5;
width = 1200;
},
{
layerId = "FD50858D-8A7B-4C5A-A944-44D81032B0FE";
name = public.background;
paths = (
{
closed = 1;
nodes = (
"1152 0 LINE",
"1152 522 LINE",
"1152 690 OFFCURVE",
"1152 878 OFFCURVE",
"1034 994 CURVE SMOOTH",
"930 1096 OFFCURVE",
"800 1118 OFFCURVE",
"672 1110 CURVE SMOOTH",
"574 1104 OFFCURVE",
"464 1068 OFFCURVE",
"394 984 CURVE SMOOTH",
"314 890 OFFCURVE",
"282 820 OFFCURVE",
"264 714 CURVE",
"258 668 OFFCURVE",
"258 506 OFFCURVE",
"258 470 CURVE",
"414 470 LINE",
"414 544 OFFCURVE",
"416 628 OFFCURVE",
"426 676 CURVE",
"438 736 OFFCURVE",
"466 784 OFFCURVE",
"506 814 CURVE SMOOTH",
"542 840 OFFCURVE",
"584 854 OFFCURVE",
"634 856 CURVE SMOOTH",
"708 858 OFFCURVE",
"766 836 OFFCURVE",
"804 794 CURVE SMOOTH",
"860 734 OFFCURVE",
"876 622 OFFCURVE",
"876 510 CURVE",
"876 0 LINE"
);
},
{
closed = 1;
nodes = (
"414 0 LINE",
"414 700 LINE",
"380 700 LINE",
"380 1440 LINE",
"140 1440 LINE",
"140 0 LINE"
);
}
);
width = 1272;
},
{
layerId = "1859055D-7BE4-451C-9A54-85DF861917C1";
paths = (
{
closed = 1;
nodes = (
"1112 0 LINE",
"1246 606 LINE SMOOTH",
"1311.833 902.25 OFFCURVE",
"1206.904 1112 OFFCURVE",
"937 1112 CURVE SMOOTH",
"603.929 1112 OFFCURVE",
"429.184 950.685 OFFCURVE",
"356 622 CURVE",
"495 548 LINE",
"537.507 737.863 OFFCURVE",
"609.194 856 OFFCURVE",
"794 856 CURVE SMOOTH",
"959.708 856 OFFCURVE",
"993.632 708.817 OFFCURVE",
"949 510 CURVE SMOOTH",
"836 0 LINE"
);
},
{
closed = 1;
nodes = (
"374 0 LINE",
"529 700 LINE",
"495 700 LINE",
"659 1440 LINE",
"417 1440 LINE",
"98 0 LINE"
);
}
);
width = 1272;
},
{
layerId = "FD50858D-8A7B-4C5A-A944-44D81032B0FE";
name = public.background;
paths = (
{
closed = 1;
nodes = (
"1026 0 LINE",
"1026 526 LINE",
"1030 730 OFFCURVE",
"998 922 OFFCURVE",
"834 1034 CURVE SMOOTH",
"750 1090 OFFCURVE",
"650 1110 OFFCURVE",
"556 1102 CURVE",
"460 1098 OFFCURVE",
"362 1064 OFFCURVE",
"290 996 CURVE SMOOTH",
"218 928 OFFCURVE",
"178 834 OFFCURVE",
"160 744 CURVE SMOOTH",
"146 676 OFFCURVE",
"148 670 OFFCURVE",
"146 474 CURVE",
"224 474 LINE",
"224 562 OFFCURVE",
"220 648 OFFCURVE",
"238 728 CURVE",
"252 808 OFFCURVE",
"288 884 OFFCURVE",
"346 936 CURVE",
"402 990 OFFCURVE",
"480 1018 OFFCURVE",
"560 1022 CURVE SMOOTH",
"642 1026 OFFCURVE",
"722 1008 OFFCURVE",
"788 966 CURVE",
"924 874 OFFCURVE",
"942 720 OFFCURVE",
"942 526 CURVE SMOOTH",
"942 0 LINE"
);
},
{
closed = 1;
nodes = (
"224 0 LINE",
"224 590 LINE",
"218 590 LINE",
"218 1440 LINE",
"140 1440 LINE",
"140 0 LINE"
);
}
);
width = 1272;
},
{
layerId = "E6C7DF62-62C5-46F1-94C3-6D079D8A542C";
paths = (
{
closed = 1;
nodes = (
"986 0 LINE",
"1116 588 LINE SMOOTH",
"1183.167 890.723 OFFCURVE",
"1071.373 1104 OFFCURVE",
"793 1104 CURVE SMOOTH",
"463.228 1104 OFFCURVE",
"309.582 920.016 OFFCURVE",
"236 588 CURVE",
"315 590 LINE",
"375.789 866.532 OFFCURVE",
"501.15 1022 OFFCURVE",
"775 1022 CURVE SMOOTH",
"1006.994 1022 OFFCURVE",
"1086.845 834.003 OFFCURVE",
"1029 572 CURVE SMOOTH",
"902 0 LINE"
);
},
{
closed = 1;
nodes = (
"184 0 LINE",
"315 590 LINE",
"309 590 LINE",
"497 1440 LINE",
"419 1440 LINE",
"100 0 LINE"
);
}
);
width = 1146;
}
);
leftKerningGroup = h;
rightKerningGroup = h;
unicode = 0068;
},
{
glyphname = i;
layers = (
{
layerId = "6571C5BB-D9C1-4570-8E40-7CA3FF1E644F";
name = Layer5;
width = 1060;
},
{
layerId = "CBCB5F37-9E29-4BCC-9D4B-3E9EA04104CC";
name = Layer4;
width = 326;
},
{
layerId = "AE607061-5769-4FDA-9CBB-E069495578C9";
name = Layer3;
width = 1200;
},
{
components = (
{
name = idotless;
alignment = -1;
}
);
layerId = "1859055D-7BE4-451C-9A54-85DF861917C1";
paths = (
{
closed = 1;
nodes = (
"665 1230 LINE",
"718 1470 LINE",
"446 1470 LINE",
"393 1230 LINE"
);
}
);
width = 592;
},
{
components = (
{
name = idotless;
alignment = -1;
}
);
layerId = "E6C7DF62-62C5-46F1-94C3-6D079D8A542C";
paths = (
{
closed = 1;
nodes = (
"495 1312 LINE",
"523 1440 LINE",
"439 1440 LINE",
"411 1312 LINE"
);
}
);
width = 404;
}
);
leftKerningGroup = i;
rightKerningGroup = i;
unicode = 0069;
},
{
glyphname = idotless;
layers = (
{
layerId = "AE607061-5769-4FDA-9CBB-E069495578C9";
name = Layer3;
width = 1200;
},
{
layerId = "CBCB5F37-9E29-4BCC-9D4B-3E9EA04104CC";
name = Layer4;
width = 326;
},
{
layerId = "6571C5BB-D9C1-4570-8E40-7CA3FF1E644F";
name = Layer5;
width = 1060;
},
{
layerId = "1859055D-7BE4-451C-9A54-85DF861917C1";
paths = (
{
closed = 1;
nodes = (
"392 0 LINE",
"631 1080 LINE",
"359 1080 LINE",
"120 0 LINE"
);
}
);
width = 592;
},
{
layerId = "E6C7DF62-62C5-46F1-94C3-6D079D8A542C";
paths = (
{
closed = 1;
nodes = (
"204 0 LINE",
"443 1080 LINE",
"359 1080 LINE",
"120 0 LINE"
);
}
);
width = 404;
}
);
leftKerningGroup = i;
rightKerningGroup = i;
unicode = 0131;
},
{
glyphname = j;
layers = (
{
layerId = "6571C5BB-D9C1-4570-8E40-7CA3FF1E644F";
name = Layer5;
width = 1068;
},
{
layerId = "CBCB5F37-9E29-4BCC-9D4B-3E9EA04104CC";
name = Layer4;
width = 378;
},
{
layerId = "AE607061-5769-4FDA-9CBB-E069495578C9";
name = Layer3;
width = 1200;
},
{
layerId = "1859055D-7BE4-451C-9A54-85DF861917C1";
paths = (
{
closed = 1;
nodes = (
"18 -480 LINE SMOOTH",
"200 -480 OFFCURVE",
"340 -368 OFFCURVE",
"379 -196 CURVE SMOOTH",
"661 1080 LINE",
"389 1080 LINE",
"136 -64 LINE SMOOTH",
"113 -168 OFFCURVE",
"62 -226 OFFCURVE",
"-62 -226 CURVE SMOOTH",
"-110 -226 LINE",
"-166 -480 LINE"
);
},
{
closed = 1;
nodes = (
"695 1230 LINE",
"748 1470 LINE",
"476 1470 LINE",
"423 1230 LINE"
);
}
);
width = 602;
},
{
layerId = "E6C7DF62-62C5-46F1-94C3-6D079D8A542C";
paths = (
{
closed = 1;
nodes = (
"-100 -480 LINE SMOOTH",
"74 -480 OFFCURVE",
"160 -404 OFFCURVE",
"201 -220 CURVE SMOOTH",
"489 1080 LINE",
"405 1080 LINE",
"115 -230 LINE SMOOTH",
"88 -354 OFFCURVE",
"5 -394 OFFCURVE",
"-79 -394 CURVE SMOOTH",
"-147 -394 LINE",
"-166 -480 LINE"
);
},
{
closed = 1;
nodes = (
"541 1312 LINE",
"569 1440 LINE",
"485 1440 LINE",
"457 1312 LINE"
);
}
);
width = 450;
}
);
leftKerningGroup = j;
rightKerningGroup = j;
unicode = 006A;
},
{
glyphname = jcircumflex;
layers = (
{
components = (
{
name = circumflexcomb;
transform = "{1, 0, 0, 1, -355, -360}";
alignment = -1;
}
);
layerId = "1859055D-7BE4-451C-9A54-85DF861917C1";
paths = (
{
closed = 1;
nodes = (
"18 -480 LINE SMOOTH",
"200 -480 OFFCURVE",
"340 -368 OFFCURVE",
"379 -196 CURVE SMOOTH",
"661 1080 LINE",
"389 1080 LINE",
"136 -64 LINE SMOOTH",
"113 -168 OFFCURVE",
"62 -226 OFFCURVE",
"-62 -226 CURVE SMOOTH",
"-110 -226 LINE",
"-166 -480 LINE"
);
}
);
width = 602;
},
{
components = (
{
name = circumflexcomb;
transform = "{1, 0, 0, 1, -318, -360}";
alignment = -1;
}
);
layerId = "E6C7DF62-62C5-46F1-94C3-6D079D8A542C";
paths = (
{
closed = 1;
nodes = (
"-100 -480 LINE SMOOTH",
"74 -480 OFFCURVE",
"160 -404 OFFCURVE",
"201 -220 CURVE SMOOTH",
"489 1080 LINE",
"405 1080 LINE",
"115 -230 LINE SMOOTH",
"88 -354 OFFCURVE",
"5 -394 OFFCURVE",
"-79 -394 CURVE SMOOTH",
"-147 -394 LINE",
"-166 -480 LINE"
);
}
);
width = 450;
}
);
leftKerningGroup = j;
rightKerningGroup = j;
unicode = 0135;
},
{
glyphname = k;
layers = (
{
layerId = "6571C5BB-D9C1-4570-8E40-7CA3FF1E644F";
name = Layer5;
width = 1168;
},
{
layerId = "CBCB5F37-9E29-4BCC-9D4B-3E9EA04104CC";
name = Layer4;
width = 1000;
},
{
layerId = "AE607061-5769-4FDA-9CBB-E069495578C9";
name = Layer3;
width = 1200;
},
{
layerId = "1859055D-7BE4-451C-9A54-85DF861917C1";
paths = (
{
closed = 1;
nodes = (
"376 0 LINE",
"491 520 LINE",
"750 0 LINE",
"1104 0 LINE",
"808 540 LINE",
"1317 1080 LINE",
"981 1080 LINE",
"500 560 LINE",
"695 1440 LINE",
"419 1440 LINE",
"98 0 LINE"
);
}
);
width = 1104;
},
{
layerId = "E6C7DF62-62C5-46F1-94C3-6D079D8A542C";
paths = (
{
closed = 1;
nodes = (
"184 0 LINE",
"299 520 LINE",
"792 0 LINE",
"936 0 LINE",
"406 540 LINE",
"1089 1080 LINE",
"963 1080 LINE",
"308 560 LINE",
"503 1440 LINE",
"419 1440 LINE",
"100 0 LINE"
);
}
);
width = 936;
}
);
leftKerningGroup = k;
rightKerningGroup = k;
unicode = 006B;
},
{
glyphname = l;
layers = (
{
layerId = "6571C5BB-D9C1-4570-8E40-7CA3FF1E644F";
name = Layer5;
width = 1060;
},
{
layerId = "CBCB5F37-9E29-4BCC-9D4B-3E9EA04104CC";
name = Layer4;
width = 326;
},
{
layerId = "AE607061-5769-4FDA-9CBB-E069495578C9";
name = Layer3;
width = 1200;
},
{
layerId = "1859055D-7BE4-451C-9A54-85DF861917C1";
paths = (
{
closed = 1;
nodes = (
"392 0 LINE",
"718 1470 LINE",
"446 1470 LINE",
"120 0 LINE"
);
}
);
width = 592;
},
{
layerId = "E6C7DF62-62C5-46F1-94C3-6D079D8A542C";
paths = (
{
closed = 1;
nodes = (
"204 0 LINE",
"530 1470 LINE",
"446 1470 LINE",
"120 0 LINE"
);
}
);
width = 404;
}
);
leftKerningGroup = i;
rightKerningGroup = i;
unicode = 006C;
},
{
glyphname = m;
layers = (
{
layerId = "0B449CB6-2188-419A-9A7B-C88758FF5778";
name = "#instance";
paths = (
{
closed = 1;
nodes = (
"1466 0 LINE",
"1634 750 LINE SMOOTH",
"1682.083 965.411 OFFCURVE",
"1576.791 1110 OFFCURVE",
"1362 1110 CURVE SMOOTH",
"1098.056 1110 OFFCURVE",
"958.372 980.197 OFFCURVE",
"911 718 CURVE",
"985 718 LINE",
"1030.636 924.656 OFFCURVE",
"1132.146 1034 OFFCURVE",
"1339 1034 CURVE SMOOTH",
"1507.757 1034 OFFCURVE",
"1587.361 916.623 OFFCURVE",
"1549 744 CURVE SMOOTH",
"1382 0 LINE"
);
},
{
closed = 1;
nodes = (
"184 0 LINE",
"375 860 LINE",
"369 860 LINE",
"417 1080 LINE",
"339 1080 LINE",
"100 0 LINE"
);
},
{
closed = 1;
nodes = (
"824 0 LINE",
"991 744 LINE",
"1039.136 962.329 OFFCURVE",
"936.633 1110 OFFCURVE",
"722 1110 CURVE SMOOTH",
"469.552 1110 OFFCURVE",
"330.574 996.769 OFFCURVE",
"276 750 CURVE",
"343 718 LINE",
"389.125 923.952 OFFCURVE",
"489.058 1034 OFFCURVE",
"695 1034 CURVE SMOOTH",
"867.686 1034 OFFCURVE",
"945.708 910.141 OFFCURVE",
"906 730 CURVE SMOOTH",
"742 0 LINE"
);
}
);
width = 1628;
},
{
layerId = "321621ED-8527-4E96-9E7D-BC9A5BD846D9";
name = Layer7;
width = 1282;
},
{
layerId = "BA5DD788-FCBD-4F2A-AA95-5120243F7D5A";
name = Layer6;
width = 1716;
},
{
layerId = "6571C5BB-D9C1-4570-8E40-7CA3FF1E644F";
name = Layer5;
width = 1200;
},
{
layerId = "FD50858D-8A7B-4C5A-A944-44D81032B0FE";
name = public.background;
paths = (
{
closed = 1;
nodes = (
"138 0 LINE",
"412 0 LINE",
"412 722 LINE",
"378 722 LINE",
"378 1080 LINE",
"138 1080 LINE"
);
},
{
closed = 1;
nodes = (
"1062 0 LINE",
"1062 658 LINE SMOOTH",
"1062 796 OFFCURVE",
"1052 908 OFFCURVE",
"958 1006 CURVE SMOOTH",
"890 1078 OFFCURVE",
"776 1106 OFFCURVE",
"686 1106 CURVE SMOOTH",
"544 1106 OFFCURVE",
"414 1034 OFFCURVE",
"342 914 CURVE SMOOTH",
"292 830 OFFCURVE",
"298 746 OFFCURVE",
"298 654 CURVE",
"412 654 LINE",
"412 708 OFFCURVE",
"420 756 OFFCURVE",
"462 804 CURVE SMOOTH",
"496 842 OFFCURVE",
"548 864 OFFCURVE",
"600 864 CURVE SMOOTH",
"652 864 OFFCURVE",
"704 844 OFFCURVE",
"738 806 CURVE SMOOTH",
"776 764 OFFCURVE",
"790 716 OFFCURVE",
"790 638 CURVE SMOOTH",
"790 0 LINE"
);
},
{
closed = 1;
nodes = (
"1712 0 LINE",
"1712 658 LINE SMOOTH",
"1712 796 OFFCURVE",
"1702 908 OFFCURVE",
"1608 1006 CURVE SMOOTH",
"1540 1078 OFFCURVE",
"1426 1106 OFFCURVE",
"1336 1106 CURVE SMOOTH",
"1194 1106 OFFCURVE",
"1064 1034 OFFCURVE",
"992 914 CURVE SMOOTH",
"942 830 OFFCURVE",
"948 746 OFFCURVE",
"948 654 CURVE",
"1062 654 LINE",
"1062 708 OFFCURVE",
"1070 756 OFFCURVE",
"1112 804 CURVE SMOOTH",
"1146 842 OFFCURVE",
"1198 864 OFFCURVE",
"1250 864 CURVE SMOOTH",
"1302 864 OFFCURVE",
"1354 844 OFFCURVE",
"1388 806 CURVE SMOOTH",
"1426 764 OFFCURVE",
"1440 716 OFFCURVE",
"1440 638 CURVE SMOOTH",
"1440 0 LINE"
);
}
);
width = 1832;
},
{
layerId = "1859055D-7BE4-451C-9A54-85DF861917C1";
paths = (
{
closed = 1;
nodes = (
"1672 0 LINE",
"1829 710 LINE SMOOTH",
"1881.898 945.546 OFFCURVE",
"1773.323 1106 OFFCURVE",
"1543 1106 CURVE SMOOTH",
"1276.39 1106 OFFCURVE",
"1127.332 989.749 OFFCURVE",
"1070 730 CURVE",
"1167 654 LINE",
"1196.916 791.392 OFFCURVE",
"1264.53 864 OFFCURVE",
"1402 864 CURVE SMOOTH",
"1523.074 864 OFFCURVE",
"1570.823 770.34 OFFCURVE",
"1541 638 CURVE SMOOTH",
"1400 0 LINE"
);
},
{
closed = 1;
nodes = (
"372 0 LINE",
"532 722 LINE",
"498 722 LINE",
"577 1080 LINE",
"337 1080 LINE",
"98 0 LINE"
);
},
{
closed = 1;
nodes = (
"1022 0 LINE",
"1179 710 LINE SMOOTH",
"1231.237 945.067 OFFCURVE",
"1126.394 1106 OFFCURVE",
"899 1106 CURVE SMOOTH",
"631.2 1106 OFFCURVE",
"478.58 993.722 OFFCURVE",
"421 734 CURVE",
"517 654 LINE",
"546.916 791.392 OFFCURVE",
"614.53 864 OFFCURVE",
"752 864 CURVE SMOOTH",
"873.074 864 OFFCURVE",
"920.823 770.34 OFFCURVE",
"891 638 CURVE SMOOTH",
"750 0 LINE"
);
}
);
width = 1832;
},
{
layerId = "FD50858D-8A7B-4C5A-A944-44D81032B0FE";
name = public.background;
paths = (
{
closed = 1;
nodes = (
"140 0 LINE",
"224 0 LINE",
"224 860 LINE",
"218 860 LINE",
"218 1080 LINE",
"140 1080 LINE"
);
},
{
closed = 1;
nodes = (
"864 0 LINE",
"866 668 LINE SMOOTH",
"866 834 OFFCURVE",
"862 944 OFFCURVE",
"732 1042 CURVE SMOOTH",
"668 1090 OFFCURVE",
"588 1110 OFFCURVE",
"512 1110 CURVE SMOOTH",
"402 1110 OFFCURVE",
"296 1064 OFFCURVE",
"226 980 CURVE SMOOTH",
"168 910 OFFCURVE",
"146 812 OFFCURVE",
"150 718 CURVE",
"224 718 LINE",
"224 794 OFFCURVE",
"232 860 OFFCURVE",
"284 928 CURVE SMOOTH",
"336 998 OFFCURVE",
"420 1034 OFFCURVE",
"510 1034 CURVE SMOOTH",
"570 1034 OFFCURVE",
"632 1014 OFFCURVE",
"678 976 CURVE SMOOTH",
"780 894 OFFCURVE",
"782 808 OFFCURVE",
"782 668 CURVE SMOOTH",
"780 0 LINE"
);
},
{
closed = 1;
nodes = (
"1506 0 LINE",
"1508 668 LINE SMOOTH",
"1508 834 OFFCURVE",
"1504 944 OFFCURVE",
"1374 1042 CURVE SMOOTH",
"1310 1090 OFFCURVE",
"1230 1110 OFFCURVE",
"1154 1110 CURVE SMOOTH",
"1044 1110 OFFCURVE",
"938 1064 OFFCURVE",
"868 980 CURVE SMOOTH",
"810 910 OFFCURVE",
"788 812 OFFCURVE",
"792 718 CURVE",
"866 718 LINE",
"866 794 OFFCURVE",
"874 860 OFFCURVE",
"926 928 CURVE SMOOTH",
"978 998 OFFCURVE",
"1062 1034 OFFCURVE",
"1152 1034 CURVE SMOOTH",
"1212 1034 OFFCURVE",
"1274 1014 OFFCURVE",
"1320 976 CURVE SMOOTH",
"1422 894 OFFCURVE",
"1424 808 OFFCURVE",
"1424 668 CURVE SMOOTH",
"1422 0 LINE"
);
}
);
width = 1832;
},
{
layerId = "E6C7DF62-62C5-46F1-94C3-6D079D8A542C";
paths = (
{
closed = 1;
nodes = (
"1466 0 LINE",
"1634 750 LINE SMOOTH",
"1682.083 965.411 OFFCURVE",
"1576.791 1110 OFFCURVE",
"1362 1110 CURVE SMOOTH",
"1098.056 1110 OFFCURVE",
"958.372 980.197 OFFCURVE",
"911 718 CURVE",
"985 718 LINE",
"1030.636 924.656 OFFCURVE",
"1132.146 1034 OFFCURVE",
"1339 1034 CURVE SMOOTH",
"1507.757 1034 OFFCURVE",
"1587.361 916.623 OFFCURVE",
"1549 744 CURVE SMOOTH",
"1382 0 LINE"
);
},
{
closed = 1;
nodes = (
"184 0 LINE",
"375 860 LINE",
"369 860 LINE",
"417 1080 LINE",
"339 1080 LINE",
"100 0 LINE"
);
},
{
closed = 1;
nodes = (
"824 0 LINE",
"991 744 LINE SMOOTH",
"1039.136 962.329 OFFCURVE",
"936.633 1110 OFFCURVE",
"722 1110 CURVE SMOOTH",
"469.552 1110 OFFCURVE",
"330.574 996.769 OFFCURVE",
"276 750 CURVE",
"343 718 LINE",
"389.125 923.952 OFFCURVE",
"489.058 1034 OFFCURVE",
"695 1034 CURVE SMOOTH",
"867.686 1034 OFFCURVE",
"945.708 910.141 OFFCURVE",
"906 730 CURVE SMOOTH",
"742 0 LINE"
);
}
);
width = 1628;
}
);
leftKerningGroup = m;
rightKerningGroup = m;
unicode = 006D;
},
{
glyphname = n;
layers = (
{
layerId = "6571C5BB-D9C1-4570-8E40-7CA3FF1E644F";
name = Layer5;
width = 1188;
},
{
layerId = "CBCB5F37-9E29-4BCC-9D4B-3E9EA04104CC";
name = Layer4;
width = 1128;
},
{
layerId = "AE607061-5769-4FDA-9CBB-E069495578C9";
name = Layer3;
width = 1200;
},
{
layerId = "1859055D-7BE4-451C-9A54-85DF861917C1";
paths = (
{
closed = 1;
nodes = (
"1112 0 LINE",
"1246 606 LINE SMOOTH",
"1311.833 902.25 OFFCURVE",
"1206.904 1112 OFFCURVE",
"937 1112 CURVE SMOOTH",
"603.929 1112 OFFCURVE",
"429.184 950.685 OFFCURVE",
"356 622 CURVE",
"495 548 LINE",
"537.507 737.863 OFFCURVE",
"609.194 856 OFFCURVE",
"794 856 CURVE SMOOTH",
"959.708 856 OFFCURVE",
"993.632 708.817 OFFCURVE",
"949 510 CURVE SMOOTH",
"836 0 LINE"
);
},
{
closed = 1;
nodes = (
"374 0 LINE",
"534 722 LINE",
"500 722 LINE",
"579 1080 LINE",
"337 1080 LINE",
"98 0 LINE"
);
}
);
width = 1272;
},
{
layerId = "E6C7DF62-62C5-46F1-94C3-6D079D8A542C";
paths = (
{
closed = 1;
nodes = (
"986 0 LINE",
"1116 588 LINE SMOOTH",
"1183.167 890.723 OFFCURVE",
"1071.373 1104 OFFCURVE",
"793 1104 CURVE SMOOTH",
"463.228 1104 OFFCURVE",
"309.582 920.016 OFFCURVE",
"236 588 CURVE",
"315 590 LINE",
"375.789 866.532 OFFCURVE",
"501.15 1022 OFFCURVE",
"775 1022 CURVE SMOOTH",
"1006.994 1022 OFFCURVE",
"1086.845 834.003 OFFCURVE",
"1029 572 CURVE SMOOTH",
"902 0 LINE"
);
},
{
closed = 1;
nodes = (
"184 0 LINE",
"375 860 LINE",
"369 860 LINE",
"417 1080 LINE",
"339 1080 LINE",
"100 0 LINE"
);
}
);
width = 1146;
}
);
leftKerningGroup = m;
rightKerningGroup = m;
unicode = 006E;
},
{
glyphname = eng;
layers = (
{
layerId = "6571C5BB-D9C1-4570-8E40-7CA3FF1E644F";
name = Layer5;
width = 1188;
},
{
layerId = "CBCB5F37-9E29-4BCC-9D4B-3E9EA04104CC";
name = Layer4;
width = 1128;
},
{
layerId = "AE607061-5769-4FDA-9CBB-E069495578C9";
name = Layer3;
width = 1200;
},
{
components = (
{
name = n;
alignment = -1;
}
);
layerId = "1859055D-7BE4-451C-9A54-85DF861917C1";
paths = (
{
closed = 1;
nodes = (
"936 -442 OFFCURVE",
"1038 -334 OFFCURVE",
"1073 -176 CURVE SMOOTH",
"1113 4 LINE",
"837 4 LINE",
"807 -132 LINE SMOOTH",
"771 -294 OFFCURVE",
"654 -272 OFFCURVE",
"593 -268 CURVE",
"550 -458 LINE",
"618 -476 OFFCURVE",
"696 -488 OFFCURVE",
"798 -468 CURVE SMOOTH"
);
}
);
width = 1272;
},
{
components = (
{
name = n;
alignment = -1;
}
);
layerId = "E6C7DF62-62C5-46F1-94C3-6D079D8A542C";
paths = (
{
closed = 1;
nodes = (
"866 -344 OFFCURVE",
"919 -304 OFFCURVE",
"944 -190 CURVE SMOOTH",
"986 2 LINE",
"902 2 LINE",
"878 -110 LINE SMOOTH",
"846 -252 OFFCURVE",
"819 -286 OFFCURVE",
"693 -266 CURVE",
"675 -348 LINE",
"713 -358 OFFCURVE",
"746 -362 OFFCURVE",
"803 -356 CURVE"
);
}
);
width = 1146;
}
);
leftKerningGroup = n;
rightKerningGroup = n;
unicode = 014B;
},
{
glyphname = o;
layers = (
{
layerId = "6571C5BB-D9C1-4570-8E40-7CA3FF1E644F";
name = Layer5;
width = 1196;
},
{
layerId = "CBCB5F37-9E29-4BCC-9D4B-3E9EA04104CC";
name = Layer4;
width = 1178;
},
{
layerId = "AE607061-5769-4FDA-9CBB-E069495578C9";
name = Layer3;
width = 1200;
},
{
layerId = "1859055D-7BE4-451C-9A54-85DF861917C1";
paths = (
{
closed = 1;
nodes = (
"966.056 -30 OFFCURVE",
"1168.719 157.941 OFFCURVE",
"1254 540 CURVE SMOOTH",
"1329.389 880.267 OFFCURVE",
"1167.827 1110 OFFCURVE",
"832 1110 CURVE SMOOTH",
"445.995 1110 OFFCURVE",
"244.631 921.403 OFFCURVE",
"160 540 CURVE SMOOTH",
"84.679 200.04 OFFCURVE",
"244.551 -30 OFFCURVE",
"579 -30 CURVE SMOOTH"
);
},
{
closed = 1;
nodes = (
"469.423 224 OFFCURVE",
"407.072 355.346 OFFCURVE",
"448 540 CURVE SMOOTH",
"491.679 740.285 OFFCURVE",
"578.716 856 OFFCURVE",
"776 856 CURVE SMOOTH",
"943.194 856 OFFCURVE",
"1006.438 724.861 OFFCURVE",
"966 540 CURVE SMOOTH",
"920.771 339.701 OFFCURVE",
"833.699 224 OFFCURVE",
"636 224 CURVE SMOOTH"
);
}
);
width = 1254;
},
{
layerId = "E6C7DF62-62C5-46F1-94C3-6D079D8A542C";
paths = (
{
closed = 1;
nodes = (
"893.837 -30 OFFCURVE",
"1066.027 173.123 OFFCURVE",
"1148 542 CURVE SMOOTH",
"1222.053 876.24 OFFCURVE",
"1091.519 1110 OFFCURVE",
"780 1110 CURVE SMOOTH",
"414.584 1110 OFFCURVE",
"242.035 908.999 OFFCURVE",
"160 542 CURVE SMOOTH",
"85.92 205.639 OFFCURVE",
"214.932 -30 OFFCURVE",
"527 -30 CURVE SMOOTH"
);
},
{
closed = 1;
nodes = (
"286.591 54 OFFCURVE",
"186.857 256.401 OFFCURVE",
"250 542 CURVE SMOOTH",
"318.444 850.542 OFFCURVE",
"455.924 1026 OFFCURVE",
"761 1026 CURVE SMOOTH",
"1019.639 1026 OFFCURVE",
"1120.682 825.517 OFFCURVE",
"1058 542 CURVE SMOOTH",
"989.498 231.598 OFFCURVE",
"852.492 54 OFFCURVE",
"546 54 CURVE SMOOTH"
);
}
);
width = 1148;
}
);
leftKerningGroup = o;
rightKerningGroup = o;
unicode = 006F;
},
{
glyphname = oslash;
layers = (
{
layerId = "6571C5BB-D9C1-4570-8E40-7CA3FF1E644F";
name = Layer5;
width = 1196;
},
{
layerId = "CBCB5F37-9E29-4BCC-9D4B-3E9EA04104CC";
name = Layer4;
width = 1176;
},
{
layerId = "AE607061-5769-4FDA-9CBB-E069495578C9";
name = Layer3;
width = 1200;
},
{
components = (
{
name = o;
alignment = -1;
}
);
layerId = "1859055D-7BE4-451C-9A54-85DF861917C1";
paths = (
{
closed = 1;
nodes = (
"397 140 LINE",
"467 228 LINE",
"1080 730 LINE",
"1152 756 LINE",
"1364 928 LINE",
"1224 1110 LINE",
"1021 944 LINE",
"988 882 LINE",
"362 372 LINE",
"272 332 LINE",
"49 150 LINE",
"189 -30 LINE"
);
}
);
width = 1254;
},
{
components = (
{
name = o;
alignment = -1;
}
);
layerId = "E6C7DF62-62C5-46F1-94C3-6D079D8A542C";
paths = (
{
closed = 1;
nodes = (
"245 158 LINE",
"272 180 LINE",
"1081 842 LINE",
"1108 864 LINE",
"1303 1022 LINE",
"1255 1080 LINE",
"1090 946 LINE",
"1058 920 LINE",
"233 246 LINE",
"206 224 LINE",
"5 60 LINE",
"52 0 LINE"
);
}
);
width = 1148;
}
);
leftKerningGroup = o;
rightKerningGroup = o;
unicode = 00F8;
},
{
glyphname = p;
layers = (
{
layerId = "0B449CB6-2188-419A-9A7B-C88758FF5778";
name = "#instance";
paths = (
{
closed = 1;
nodes = (
"912.996 -30 OFFCURVE",
"1071.359 179.114 OFFCURVE",
"1152 542 CURVE SMOOTH",
"1225.934 873.143 OFFCURVE",
"1119.788 1110 OFFCURVE",
"824 1110 CURVE SMOOTH",
"469.555 1110 OFFCURVE",
"314.036 901.615 OFFCURVE",
"234 542 CURVE SMOOTH",
"160.593 209.086 OFFCURVE",
"260.812 -30 OFFCURVE",
"555 -30 CURVE SMOOTH"
);
},
{
closed = 1;
nodes = (
"78 -480 LINE",
"235 230 LINE",
"229 230 LINE",
"417 1080 LINE",
"339 1080 LINE",
"-6 -480 LINE"
);
},
{
closed = 1;
nodes = (
"322.315 54 OFFCURVE",
"235.64 257.8 OFFCURVE",
"298 542 CURVE SMOOTH",
"365.799 845.48 OFFCURVE",
"491.225 1026 OFFCURVE",
"789 1026 CURVE SMOOTH",
"1038.47 1026 OFFCURVE",
"1124.277 823.779 OFFCURVE",
"1062 542 CURVE SMOOTH",
"995.149 237.333 OFFCURVE",
"871.971 54 OFFCURVE",
"574 54 CURVE SMOOTH"
);
}
);
width = 1152;
},
{
layerId = "6571C5BB-D9C1-4570-8E40-7CA3FF1E644F";
name = Layer5;
width = 1192;
},
{
layerId = "CBCB5F37-9E29-4BCC-9D4B-3E9EA04104CC";
name = Layer4;
width = 1146;
},
{
layerId = "AE607061-5769-4FDA-9CBB-E069495578C9";
name = Layer3;
width = 1200;
},
{
layerId = "1859055D-7BE4-451C-9A54-85DF861917C1";
paths = (
{
closed = 1;
nodes = (
"990.868 -30 OFFCURVE",
"1165.967 170.85 OFFCURVE",
"1248 540 CURVE SMOOTH",
"1322.516 876.854 OFFCURVE",
"1181.684 1110 OFFCURVE",
"862 1110 CURVE SMOOTH",
"504.133 1110 OFFCURVE",
"344.529 902.38 OFFCURVE",
"264 540 CURVE SMOOTH",
"189.653 205.44 OFFCURVE",
"314.563 -30 OFFCURVE",
"623 -30 CURVE SMOOTH"
);
},
{
closed = 1;
nodes = (
"266 -480 LINE",
"447 340 LINE",
"413 340 LINE",
"577 1080 LINE",
"337 1080 LINE",
"-8 -480 LINE"
);
},
{
closed = 1;
nodes = (
"467.322 212 OFFCURVE",
"415.295 349.767 OFFCURVE",
"458 540 CURVE SMOOTH",
"501.989 740.508 OFFCURVE",
"573.883 868 OFFCURVE",
"768 868 CURVE SMOOTH",
"939.731 868 OFFCURVE",
"1002.539 731.427 OFFCURVE",
"960 540 CURVE SMOOTH",
"914.01 335.848 OFFCURVE",
"832.712 212 OFFCURVE",
"633 212 CURVE SMOOTH"
);
}
);
width = 1248;
},
{
layerId = "E6C7DF62-62C5-46F1-94C3-6D079D8A542C";
paths = (
{
closed = 1;
nodes = (
"912.996 -30 OFFCURVE",
"1071.359 179.114 OFFCURVE",
"1152 542 CURVE SMOOTH",
"1225.934 873.143 OFFCURVE",
"1119.788 1110 OFFCURVE",
"824 1110 CURVE SMOOTH",
"469.555 1110 OFFCURVE",
"314.036 901.615 OFFCURVE",
"234 542 CURVE SMOOTH",
"160.593 209.086 OFFCURVE",
"260.812 -30 OFFCURVE",
"555 -30 CURVE SMOOTH"
);
},
{
closed = 1;
nodes = (
"78 -480 LINE",
"235 230 LINE",
"229 230 LINE",
"417 1080 LINE",
"339 1080 LINE",
"-6 -480 LINE"
);
},
{
closed = 1;
nodes = (
"322.315 54 OFFCURVE",
"235.64 257.8 OFFCURVE",
"298 542 CURVE SMOOTH",
"365.799 845.48 OFFCURVE",
"491.225 1026 OFFCURVE",
"789 1026 CURVE SMOOTH",
"1038.47 1026 OFFCURVE",
"1124.277 823.779 OFFCURVE",
"1062 542 CURVE SMOOTH",
"995.149 237.333 OFFCURVE",
"871.971 54 OFFCURVE",
"574 54 CURVE SMOOTH"
);
}
);
width = 1152;
}
);
leftKerningGroup = m;
rightKerningGroup = o;
unicode = 0070;
},
{
glyphname = thorn;
layers = (
{
layerId = "6571C5BB-D9C1-4570-8E40-7CA3FF1E644F";
name = Layer5;
width = 1192;
},
{
layerId = "CBCB5F37-9E29-4BCC-9D4B-3E9EA04104CC";
name = Layer4;
width = 1146;
},
{
layerId = "AE607061-5769-4FDA-9CBB-E069495578C9";
name = Layer3;
width = 1200;
},
{
components = (
{
name = p;
alignment = -1;
}
);
layerId = "1859055D-7BE4-451C-9A54-85DF861917C1";
paths = (
{
closed = 1;
nodes = (
"566 864 LINE",
"693 1440 LINE",
"419 1440 LINE",
"292 864 LINE"
);
}
);
width = 1248;
},
{
components = (
{
name = p;
alignment = -1;
}
);
layerId = "E6C7DF62-62C5-46F1-94C3-6D079D8A542C";
paths = (
{
closed = 1;
nodes = (
"357 782 LINE",
"503 1440 LINE",
"419 1440 LINE",
"273 782 LINE"
);
}
);
width = 1152;
}
);
leftKerningGroup = p;
rightKerningGroup = p;
unicode = 00FE;
},
{
glyphname = q;
layers = (
{
layerId = "6571C5BB-D9C1-4570-8E40-7CA3FF1E644F";
name = Layer5;
width = 1192;
},
{
layerId = "CBCB5F37-9E29-4BCC-9D4B-3E9EA04104CC";
name = Layer4;
width = 1146;
},
{
layerId = "AE607061-5769-4FDA-9CBB-E069495578C9";
name = Layer3;
width = 1200;
},
{
layerId = "1859055D-7BE4-451C-9A54-85DF861917C1";
paths = (
{
closed = 1;
nodes = (
"894.384 -30 OFFCURVE",
"1062.64 173.881 OFFCURVE",
"1144 540 CURVE SMOOTH",
"1218.125 873.565 OFFCURVE",
"1101.217 1110 OFFCURVE",
"798 1110 CURVE SMOOTH",
"425.118 1110 OFFCURVE",
"242.42 912.584 OFFCURVE",
"160 540 CURVE SMOOTH",
"85.439 204.475 OFFCURVE",
"217.592 -30 OFFCURVE",
"531 -30 CURVE SMOOTH"
);
},
{
closed = 1;
nodes = (
"461.179 212 OFFCURVE",
"405.059 349.386 OFFCURVE",
"448 540 CURVE SMOOTH",
"493.896 746.534 OFFCURVE",
"580.997 868 OFFCURVE",
"784 868 CURVE SMOOTH",
"946.496 868 OFFCURVE",
"991.62 729.709 OFFCURVE",
"950 540 CURVE SMOOTH",
"904.481 337.234 OFFCURVE",
"826.668 212 OFFCURVE",
"629 212 CURVE SMOOTH"
);
},
{
closed = 1;
nodes = (
"964 -480 LINE",
"1309 1080 LINE",
"1069 1080 LINE",
"905 340 LINE",
"871 340 LINE",
"690 -480 LINE"
);
}
);
width = 1250;
},
{
layerId = "E6C7DF62-62C5-46F1-94C3-6D079D8A542C";
paths = (
{
closed = 1;
nodes = (
"853.246 -30 OFFCURVE",
"999.126 184.289 OFFCURVE",
"1078 542 CURVE SMOOTH",
"1151.864 873.881 OFFCURVE",
"1039.535 1110 OFFCURVE",
"740 1110 CURVE SMOOTH",
"389.192 1110 OFFCURVE",
"239.727 899.086 OFFCURVE",
"160 542 CURVE SMOOTH",
"85.684 207.577 OFFCURVE",
"200.371 -30 OFFCURVE",
"503 -30 CURVE SMOOTH"
);
},
{
closed = 1;
nodes = (
"271.762 54 OFFCURVE",
"187.701 258.078 OFFCURVE",
"250 542 CURVE SMOOTH",
"316.91 844.741 OFFCURVE",
"440.504 1026 OFFCURVE",
"737 1026 CURVE SMOOTH",
"988.123 1026 OFFCURVE",
"1076.999 823.993 OFFCURVE",
"1014 542 CURVE SMOOTH",
"946.937 236.368 OFFCURVE",
"821.38 54 OFFCURVE",
"522 54 CURVE SMOOTH"
);
},
{
closed = 1;
nodes = (
"866 -480 LINE",
"1211 1080 LINE",
"1133 1080 LINE",
"945 230 LINE",
"939 230 LINE",
"782 -480 LINE"
);
}
);
width = 1152;
}
);
leftKerningGroup = q;
rightKerningGroup = q;
unicode = 0071;
},
{
glyphname = r;
layers = (
{
layerId = "6571C5BB-D9C1-4570-8E40-7CA3FF1E644F";
name = Layer5;
width = 1112;
},
{
layerId = "CBCB5F37-9E29-4BCC-9D4B-3E9EA04104CC";
name = Layer4;
width = 648;
},
{
layerId = "AE607061-5769-4FDA-9CBB-E069495578C9";
name = Layer3;
width = 1200;
},
{
layerId = "1859055D-7BE4-451C-9A54-85DF861917C1";
paths = (
{
closed = 1;
nodes = (
"374 0 LINE",
"496 552 LINE SMOOTH",
"526.058 685.114 OFFCURVE",
"575.349 755.843 OFFCURVE",
"701 808 CURVE SMOOTH",
"781.88 842.175 OFFCURVE",
"833.467 852.85 OFFCURVE",
"917 826 CURVE",
"973 1080 LINE",
"855.963 1094.784 OFFCURVE",
"787.831 1083.999 OFFCURVE",
"684 1028 CURVE SMOOTH",
"593.712 981.097 OFFCURVE",
"554.844 936.899 OFFCURVE",
"502 850 CURVE",
"521 816 LINE",
"579 1080 LINE",
"339 1080 LINE",
"100 0 LINE"
);
}
);
width = 824;
},
{
layerId = "E6C7DF62-62C5-46F1-94C3-6D079D8A542C";
paths = (
{
closed = 1;
nodes = (
"184 0 LINE",
"302 532 LINE SMOOTH",
"341.377 711.235 OFFCURVE",
"360.555 824.281 OFFCURVE",
"506 936 CURVE SMOOTH",
"604.568 1012.558 OFFCURVE",
"680.404 1028.278 OFFCURVE",
"802 1000 CURVE",
"819 1080 LINE",
"677.151 1128.914 OFFCURVE",
"585.892 1094.755 OFFCURVE",
"468 1000 CURVE SMOOTH",
"408.346 953.441 OFFCURVE",
"381.09 920.778 OFFCURVE",
"342 856 CURVE",
"360 822 LINE",
"417 1080 LINE",
"339 1080 LINE",
"100 0 LINE"
);
}
);
width = 670;
}
);
leftKerningGroup = r;
rightKerningGroup = r;
unicode = 0072;
},
{
glyphname = s;
layers = (
{
layerId = "0B449CB6-2188-419A-9A7B-C88758FF5778";
name = "#instance";
paths = (
{
closed = 1;
nodes = (
"747.085 -28 OFFCURVE",
"915.78 43.416 OFFCURVE",
"969 286 CURVE SMOOTH",
"1013.171 484.175 OFFCURVE",
"847.97 545.982 OFFCURVE",
"624 606 CURVE SMOOTH",
"452.982 651.416 OFFCURVE",
"309.34 670.577 OFFCURVE",
"342 822 CURVE SMOOTH",
"379.732 992.491 OFFCURVE",
"507.599 1028.072 OFFCURVE",
"693 1026 CURVE",
"882.426 1026 OFFCURVE",
"1004.183 954.185 OFFCURVE",
"995 782 CURVE",
"1085 798 LINE",
"1111.693 1011.546 OFFCURVE",
"958.946 1110 OFFCURVE",
"718 1110 CURVE SMOOTH",
"469.469 1110 OFFCURVE",
"304.075 1049.18 OFFCURVE",
"253 818 CURVE SMOOTH",
"211.694 632.122 OFFCURVE",
"374.733 586.326 OFFCURVE",
"583 526 CURVE SMOOTH",
"763.254 473.752 OFFCURVE",
"915.572 451.444 OFFCURVE",
"880 290 CURVE SMOOTH",
"838.891 105.007 OFFCURVE",
"706.803 56 OFFCURVE",
"508 56 CURVE SMOOTH",
"321.651 56 OFFCURVE",
"194.591 106.473 OFFCURVE",
"187 276 CURVE",
"98 260 LINE",
"95.634 47.026 OFFCURVE",
"252.596 -28 OFFCURVE",
"488 -28 CURVE SMOOTH"
);
}
);
width = 1028;
},
{
layerId = "321621ED-8527-4E96-9E7D-BC9A5BD846D9";
name = Layer7;
width = 1174;
},
{
layerId = "BA5DD788-FCBD-4F2A-AA95-5120243F7D5A";
name = Layer6;
width = 1032;
},
{
layerId = "6571C5BB-D9C1-4570-8E40-7CA3FF1E644F";
name = Layer5;
width = 1200;
},
{
layerId = "FD50858D-8A7B-4C5A-A944-44D81032B0FE";
name = public.background;
paths = (
{
closed = 1;
nodes = (
"974 1004 OFFCURVE",
"776 1110 OFFCURVE",
"544 1110 CURVE SMOOTH",
"320 1110 OFFCURVE",
"116 1000 OFFCURVE",
"116 780 CURVE SMOOTH",
"116 628 OFFCURVE",
"204 528 OFFCURVE",
"346 488 CURVE SMOOTH",
"422 466 OFFCURVE",
"512 442 OFFCURVE",
"614 414 CURVE SMOOTH",
"692 392 OFFCURVE",
"736 364 OFFCURVE",
"736 308 CURVE SMOOTH",
"736 238 OFFCURVE",
"668 204 OFFCURVE",
"582 204 CURVE SMOOTH",
"466 204 OFFCURVE",
"380 260 OFFCURVE",
"358 366 CURVE",
"80 324 LINE",
"122 78 OFFCURVE",
"304 -30 OFFCURVE",
"576 -30 CURVE SMOOTH",
"822 -30 OFFCURVE",
"1014 96 OFFCURVE",
"1014 320 CURVE SMOOTH",
"1014 504 OFFCURVE",
"904 588 OFFCURVE",
"674 646 CURVE SMOOTH",
"596 666 OFFCURVE",
"544 680 OFFCURVE",
"490 696 CURVE SMOOTH",
"424 716 OFFCURVE",
"386 740 OFFCURVE",
"386 794 CURVE SMOOTH",
"386 848 OFFCURVE",
"460 880 OFFCURVE",
"552 876 CURVE SMOOTH",
"650 872 OFFCURVE",
"716 816 OFFCURVE",
"726 740 CURVE",
"1004 790 LINE"
);
}
);
width = 1094;
},
{
layerId = "1859055D-7BE4-451C-9A54-85DF861917C1";
paths = (
{
closed = 1;
nodes = (
"802.406 -30 OFFCURVE",
"986.309 55.565 OFFCURVE",
"1046 326 CURVE SMOOTH",
"1086.23 503.859 OFFCURVE",
"969.715 592.837 OFFCURVE",
"777 646 CURVE SMOOTH",
"636.735 683.718 OFFCURVE",
"488.974 650.348 OFFCURVE",
"520 784 CURVE SMOOTH",
"539.662 871.075 OFFCURVE",
"609.431 881.912 OFFCURVE",
"706 876 CURVE SMOOTH",
"800.965 868.403 OFFCURVE",
"858.75 827.495 OFFCURVE",
"850 740 CURVE",
"1139 790 LINE",
"1157.197 1012.913 OFFCURVE",
"999.261 1110 OFFCURVE",
"752 1110 CURVE SMOOTH",
"478.469 1110 OFFCURVE",
"303.967 1027.588 OFFCURVE",
"247 770 CURVE SMOOTH",
"206.461 588.123 OFFCURVE",
"335.855 506.658 OFFCURVE",
"536 452 CURVE SMOOTH",
"664.198 415.871 OFFCURVE",
"791.127 431.436 OFFCURVE",
"765 312 CURVE SMOOTH",
"745.701 224.512 OFFCURVE",
"681.575 204 OFFCURVE",
"587 204 CURVE SMOOTH",
"470.03 204 OFFCURVE",
"399 254.714 OFFCURVE",
"399 366 CURVE",
"112 324 LINE",
"97.084 83.206 OFFCURVE",
"256.115 -30 OFFCURVE",
"515 -30 CURVE SMOOTH"
);
}
);
width = 1094;
},
{
layerId = "FD50858D-8A7B-4C5A-A944-44D81032B0FE";
name = public.background;
paths = (
{
closed = 1;
nodes = (
"930 976 OFFCURVE",
"758 1110 OFFCURVE",
"508 1110 CURVE SMOOTH",
"306 1110 OFFCURVE",
"112 1012 OFFCURVE",
"112 820 CURVE SMOOTH",
"112 660 OFFCURVE",
"248 598 OFFCURVE",
"404 554 CURVE SMOOTH",
"488 530 OFFCURVE",
"552 512 OFFCURVE",
"602 498 CURVE SMOOTH",
"742 460 OFFCURVE",
"856 426 OFFCURVE",
"856 284 CURVE SMOOTH",
"856 138 OFFCURVE",
"716 56 OFFCURVE",
"544 56 CURVE SMOOTH",
"378 56 OFFCURVE",
"208 116 OFFCURVE",
"166 276 CURVE",
"80 260 LINE",
"124 56 OFFCURVE",
"322 -28 OFFCURVE",
"536 -28 CURVE SMOOTH",
"776 -28 OFFCURVE",
"946 78 OFFCURVE",
"946 292 CURVE SMOOTH",
"946 460 OFFCURVE",
"812 532 OFFCURVE",
"636 578 CURVE SMOOTH",
"530 606 OFFCURVE",
"456 624 OFFCURVE",
"404 640 CURVE",
"272 676 OFFCURVE",
"200 732 OFFCURVE",
"200 820 CURVE SMOOTH",
"200 942 OFFCURVE",
"326 1030 OFFCURVE",
"506 1026 CURVE SMOOTH",
"672 1022 OFFCURVE",
"830 964 OFFCURVE",
"862 782 CURVE",
"948 798 LINE"
);
}
);
width = 1094;
},
{
layerId = "E6C7DF62-62C5-46F1-94C3-6D079D8A542C";
paths = (
{
closed = 1;
nodes = (
"747.085 -28 OFFCURVE",
"915.78 43.416 OFFCURVE",
"969 286 CURVE SMOOTH",
"1013.171 484.175 OFFCURVE",
"847.97 545.982 OFFCURVE",
"624 606 CURVE SMOOTH",
"452.982 651.416 OFFCURVE",
"309.34 670.577 OFFCURVE",
"342 822 CURVE SMOOTH",
"379.732 992.491 OFFCURVE",
"507.599 1028.072 OFFCURVE",
"693 1026 CURVE",
"882.426 1026 OFFCURVE",
"1004.183 954.185 OFFCURVE",
"995 782 CURVE",
"1085 798 LINE",
"1111.693 1011.546 OFFCURVE",
"958.946 1110 OFFCURVE",
"718 1110 CURVE SMOOTH",
"469.469 1110 OFFCURVE",
"304.075 1049.18 OFFCURVE",
"253 818 CURVE SMOOTH",
"211.694 632.122 OFFCURVE",
"374.733 586.326 OFFCURVE",
"583 526 CURVE SMOOTH",
"763.254 473.752 OFFCURVE",
"915.572 451.444 OFFCURVE",
"880 290 CURVE SMOOTH",
"838.891 105.007 OFFCURVE",
"706.803 56 OFFCURVE",
"508 56 CURVE SMOOTH",
"321.651 56 OFFCURVE",
"194.591 106.473 OFFCURVE",
"187 276 CURVE",
"98 260 LINE",
"95.634 47.026 OFFCURVE",
"252.596 -28 OFFCURVE",
"488 -28 CURVE SMOOTH"
);
}
);
width = 1028;
}
);
leftKerningGroup = s;
rightKerningGroup = s;
unicode = 0073;
},
{
glyphname = germandbls;
layers = (
{
layerId = "0B449CB6-2188-419A-9A7B-C88758FF5778";
name = "#instance";
paths = (
{
closed = 1;
nodes = (
"841.724 -28 OFFCURVE",
"1013.249 104.388 OFFCURVE",
"1079 402 CURVE SMOOTH",
"1127.82 621.688 OFFCURVE",
"1036.806 773.179 OFFCURVE",
"824 784 CURVE",
"995.807 825.429 OFFCURVE",
"1062.433 923.315 OFFCURVE",
"1101 1098 CURVE SMOOTH",
"1151.501 1322.043 OFFCURVE",
"1034.768 1470 OFFCURVE",
"806 1470 CURVE SMOOTH",
"616.868 1470 OFFCURVE",
"508.691 1415.718 OFFCURVE",
"408 1256 CURVE SMOOTH",
"365.293 1187.118 OFFCURVE",
"353.116 1143.16 OFFCURVE",
"336 1064 CURVE SMOOTH",
"100 0 LINE",
"192 0 LINE",
"423 1042 LINE SMOOTH",
"438.476 1111.045 OFFCURVE",
"447.429 1149.653 OFFCURVE",
"481 1212 CURVE SMOOTH",
"550.334 1343.958 OFFCURVE",
"639.013 1386 OFFCURVE",
"789 1386 CURVE SMOOTH",
"962.816 1386 OFFCURVE",
"1050.206 1271.925 OFFCURVE",
"1012 1100 CURVE SMOOTH",
"970.034 909.617 OFFCURVE",
"856.811 835.617 OFFCURVE",
"660 812 CURVE",
"641 728 LINE",
"885.752 722.149 OFFCURVE",
"1035.348 611.107 OFFCURVE",
"989 402 CURVE SMOOTH",
"936.591 163.974 OFFCURVE",
"799.467 58 OFFCURVE",
"555 58 CURVE SMOOTH",
"484.688 58 OFFCURVE",
"444.942 59.411 OFFCURVE",
"379 84 CURVE",
"360 0 LINE",
"424.489 -29.202 OFFCURVE",
"465.32 -28 OFFCURVE",
"536 -28 CURVE SMOOTH"
);
}
);
width = 1150;
},
{
layerId = "6571C5BB-D9C1-4570-8E40-7CA3FF1E644F";
name = Layer5;
width = 1208;
},
{
layerId = "CBCB5F37-9E29-4BCC-9D4B-3E9EA04104CC";
name = Layer4;
width = 1256;
},
{
layerId = "AE607061-5769-4FDA-9CBB-E069495578C9";
name = Layer3;
width = 1200;
},
{
layerId = "1859055D-7BE4-451C-9A54-85DF861917C1";
paths = (
{
closed = 1;
nodes = (
"982.569 -30 OFFCURVE",
"1157.006 115.216 OFFCURVE",
"1227 428 CURVE SMOOTH",
"1265.381 602.271 OFFCURVE",
"1245.84 727.286 OFFCURVE",
"1091 798 CURVE",
"1188.484 874.194 OFFCURVE",
"1225.781 937.291 OFFCURVE",
"1253 1058 CURVE SMOOTH",
"1308.454 1312.437 OFFCURVE",
"1156.244 1470 OFFCURVE",
"882 1470 CURVE SMOOTH",
"636.792 1470 OFFCURVE",
"491.004 1403.223 OFFCURVE",
"377 1188 CURVE SMOOTH",
"353.168 1140.337 OFFCURVE",
"344.447 1112.033 OFFCURVE",
"333 1060 CURVE SMOOTH",
"98 0 LINE",
"372 0 LINE",
"591 986 LINE SMOOTH",
"603.648 1047.132 OFFCURVE",
"610.509 1082.732 OFFCURVE",
"649 1132 CURVE SMOOTH",
"698.797 1195.74 OFFCURVE",
"745.027 1216 OFFCURVE",
"826 1216 CURVE SMOOTH",
"937.014 1216 OFFCURVE",
"999.494 1153.711 OFFCURVE",
"977 1052 CURVE SMOOTH",
"951.287 932.785 OFFCURVE",
"877.349 888.023 OFFCURVE",
"753 880 CURVE",
"701 644 LINE",
"875.411 644 OFFCURVE",
"987.19 575.665 OFFCURVE",
"956 432 CURVE SMOOTH",
"923.944 288.818 OFFCURVE",
"832.242 236 OFFCURVE",
"682 236 CURVE SMOOTH",
"625.603 236 OFFCURVE",
"594.398 242.788 OFFCURVE",
"543 266 CURVE",
"484 0 LINE",
"549.163 -31.03 OFFCURVE",
"590.94 -30 OFFCURVE",
"663 -30 CURVE SMOOTH"
);
}
);
width = 1292;
},
{
layerId = "E6C7DF62-62C5-46F1-94C3-6D079D8A542C";
paths = (
{
closed = 1;
nodes = (
"841.724 -28 OFFCURVE",
"1013.249 104.388 OFFCURVE",
"1079 402 CURVE SMOOTH",
"1127.82 621.688 OFFCURVE",
"1036.806 773.179 OFFCURVE",
"824 784 CURVE",
"995.807 825.429 OFFCURVE",
"1062.433 923.315 OFFCURVE",
"1101 1098 CURVE SMOOTH",
"1151.501 1322.043 OFFCURVE",
"1034.768 1470 OFFCURVE",
"806 1470 CURVE SMOOTH",
"616.868 1470 OFFCURVE",
"508.691 1415.718 OFFCURVE",
"408 1256 CURVE SMOOTH",
"365.293 1187.118 OFFCURVE",
"353.116 1143.16 OFFCURVE",
"336 1064 CURVE SMOOTH",
"100 0 LINE",
"192 0 LINE",
"423 1042 LINE SMOOTH",
"438.476 1111.045 OFFCURVE",
"447.429 1149.653 OFFCURVE",
"481 1212 CURVE SMOOTH",
"550.334 1343.958 OFFCURVE",
"639.013 1386 OFFCURVE",
"789 1386 CURVE SMOOTH",
"962.816 1386 OFFCURVE",
"1050.206 1271.925 OFFCURVE",
"1012 1100 CURVE SMOOTH",
"970.034 909.617 OFFCURVE",
"856.811 835.617 OFFCURVE",
"660 812 CURVE",
"641 728 LINE",
"885.752 722.149 OFFCURVE",
"1035.348 611.107 OFFCURVE",
"989 402 CURVE SMOOTH",
"936.591 163.974 OFFCURVE",
"799.467 58 OFFCURVE",
"555 58 CURVE SMOOTH",
"484.688 58 OFFCURVE",
"444.942 59.411 OFFCURVE",
"379 84 CURVE",
"360 0 LINE",
"424.489 -29.202 OFFCURVE",
"465.32 -28 OFFCURVE",
"536 -28 CURVE SMOOTH"
);
}
);
width = 1150;
}
);
leftKerningGroup = b;
rightKerningGroup = b;
unicode = 00DF;
},
{
glyphname = t;
layers = (
{
layerId = "6571C5BB-D9C1-4570-8E40-7CA3FF1E644F";
name = Layer5;
width = 1110;
},
{
layerId = "CBCB5F37-9E29-4BCC-9D4B-3E9EA04104CC";
name = Layer4;
width = 632;
},
{
layerId = "AE607061-5769-4FDA-9CBB-E069495578C9";
name = Layer3;
width = 1200;
},
{
layerId = "1859055D-7BE4-451C-9A54-85DF861917C1";
paths = (
{
closed = 1;
nodes = (
"798 226 LINE",
"667.722 208.235 OFFCURVE",
"566.282 166.535 OFFCURVE",
"520 280 CURVE SMOOTH",
"488.912 353.149 OFFCURVE",
"523.602 397.083 OFFCURVE",
"541 474 CURVE SMOOTH",
"742 1380 LINE",
"470 1380 LINE",
"266 458 LINE SMOOTH",
"237.643 330.88 OFFCURVE",
"196.246 257.997 OFFCURVE",
"238 134 CURVE SMOOTH",
"310.129 -81.025 OFFCURVE",
"500.61 -44.594 OFFCURVE",
"748 0 CURVE"
);
},
{
closed = 1;
nodes = (
"941 870 LINE",
"987 1080 LINE",
"219 1080 LINE",
"173 870 LINE"
);
}
);
width = 888;
},
{
layerId = "E6C7DF62-62C5-46F1-94C3-6D079D8A542C";
paths = (
{
closed = 1;
nodes = (
"676 80 LINE",
"527.541 56.11 OFFCURVE",
"412.362 34.713 OFFCURVE",
"376 164 CURVE SMOOTH",
"353.475 239.082 OFFCURVE",
"380.781 281.77 OFFCURVE",
"397 358 CURVE SMOOTH",
"624 1380 LINE",
"540 1380 LINE",
"313 358 LINE SMOOTH",
"293.73 267.432 OFFCURVE",
"270.071 216.296 OFFCURVE",
"292 126 CURVE SMOOTH",
"330.347 -36.973 OFFCURVE",
"471.948 -39.399 OFFCURVE",
"658 0 CURVE"
);
},
{
closed = 1;
nodes = (
"879 996 LINE",
"897 1080 LINE",
"219 1080 LINE",
"201 996 LINE"
);
}
);
width = 758;
}
);
leftKerningGroup = t;
rightKerningGroup = t;
unicode = 0074;
},
{
glyphname = tbar;
layers = (
{
layerId = "6571C5BB-D9C1-4570-8E40-7CA3FF1E644F";
name = Layer5;
width = 1110;
},
{
layerId = "CBCB5F37-9E29-4BCC-9D4B-3E9EA04104CC";
name = Layer4;
width = 632;
},
{
layerId = "AE607061-5769-4FDA-9CBB-E069495578C9";
name = Layer3;
width = 1200;
},
{
components = (
{
name = t;
alignment = -1;
}
);
layerId = "1859055D-7BE4-451C-9A54-85DF861917C1";
paths = (
{
closed = 1;
nodes = (
"889 456 LINE",
"936 666 LINE",
"128 666 LINE",
"81 456 LINE"
);
}
);
width = 928;
},
{
components = (
{
name = t;
alignment = -1;
}
);
layerId = "E6C7DF62-62C5-46F1-94C3-6D079D8A542C";
paths = (
{
closed = 1;
nodes = (
"768 498 LINE",
"787 582 LINE",
"109 582 LINE",
"90 498 LINE"
);
}
);
width = 798;
}
);
leftKerningGroup = t;
rightKerningGroup = t;
unicode = 0167;
},
{
glyphname = u;
layers = (
{
layerId = "6571C5BB-D9C1-4570-8E40-7CA3FF1E644F";
name = Layer5;
width = 1188;
},
{
layerId = "CBCB5F37-9E29-4BCC-9D4B-3E9EA04104CC";
name = Layer4;
width = 1128;
},
{
layerId = "AE607061-5769-4FDA-9CBB-E069495578C9";
name = Layer3;
width = 1200;
},
{
layerId = "1859055D-7BE4-451C-9A54-85DF861917C1";
paths = (
{
closed = 1;
nodes = (
"828.071 -32 OFFCURVE",
"1002.816 129.315 OFFCURVE",
"1076 458 CURVE",
"936 532 LINE",
"894.203 342.141 OFFCURVE",
"822.581 224 OFFCURVE",
"638 224 CURVE SMOOTH",
"472.284 224 OFFCURVE",
"439.38 371.107 OFFCURVE",
"482 570 CURVE SMOOTH",
"595 1080 LINE",
"319 1080 LINE",
"185 474 LINE SMOOTH",
"119.15 177.674 OFFCURVE",
"224.699 -32 OFFCURVE",
"495 -32 CURVE SMOOTH"
);
},
{
closed = 1;
nodes = (
"1092 0 LINE",
"1331 1080 LINE",
"1057 1080 LINE",
"897 358 LINE",
"931 358 LINE",
"852 0 LINE"
);
}
);
width = 1272;
},
{
layerId = "E6C7DF62-62C5-46F1-94C3-6D079D8A542C";
paths = (
{
closed = 1;
nodes = (
"842.4 -24 OFFCURVE",
"995.474 160.236 OFFCURVE",
"1069 492 CURVE",
"991 490 LINE",
"929.1 213.831 OFFCURVE",
"804.598 58 OFFCURVE",
"531 58 CURVE SMOOTH",
"298.783 58 OFFCURVE",
"218.322 246.075 OFFCURVE",
"277 508 CURVE SMOOTH",
"403 1080 LINE",
"319 1080 LINE",
"189 492 LINE SMOOTH",
"121.816 189.199 OFFCURVE",
"234.221 -24 OFFCURVE",
"513 -24 CURVE SMOOTH"
);
},
{
closed = 1;
nodes = (
"966 0 LINE",
"1205 1080 LINE",
"1121 1080 LINE",
"931 220 LINE",
"937 220 LINE",
"888 0 LINE"
);
}
);
width = 1146;
}
);
leftKerningGroup = u;
rightKerningGroup = u;
unicode = 0075;
},
{
glyphname = v;
layers = (
{
layerId = "6571C5BB-D9C1-4570-8E40-7CA3FF1E644F";
name = Layer5;
width = 1160;
},
{
layerId = "CBCB5F37-9E29-4BCC-9D4B-3E9EA04104CC";
name = Layer4;
width = 952;
},
{
layerId = "AE607061-5769-4FDA-9CBB-E069495578C9";
name = Layer3;
width = 1200;
},
{
layerId = "1859055D-7BE4-451C-9A54-85DF861917C1";
paths = (
{
closed = 1;
nodes = (
"664 0 LINE",
"1295 1080 LINE",
"1023 1080 LINE",
"602 332 LINE",
"511 1080 LINE",
"239 1080 LINE",
"392 0 LINE"
);
}
);
width = 1136;
},
{
layerId = "E6C7DF62-62C5-46F1-94C3-6D079D8A542C";
paths = (
{
closed = 1;
nodes = (
"484 0 LINE",
"1115 1080 LINE",
"1025 1080 LINE",
"465 122 LINE",
"327 1080 LINE",
"239 1080 LINE",
"392 0 LINE"
);
}
);
width = 956;
}
);
leftKerningGroup = v;
rightKerningGroup = v;
unicode = 0076;
},
{
glyphname = w;
layers = (
{
layerId = "6571C5BB-D9C1-4570-8E40-7CA3FF1E644F";
name = Layer5;
width = 1266;
},
{
layerId = "CBCB5F37-9E29-4BCC-9D4B-3E9EA04104CC";
name = Layer4;
width = 1618;
},
{
layerId = "AE607061-5769-4FDA-9CBB-E069495578C9";
name = Layer3;
width = 1200;
},
{
layerId = "1859055D-7BE4-451C-9A54-85DF861917C1";
paths = (
{
closed = 1;
nodes = (
"538 0 LINE",
"930 704 LINE",
"1010 0 LINE",
"1218 0 LINE",
"1787 1080 LINE",
"1521 1080 LINE",
"1183 436 LINE",
"1126 1080 LINE",
"900 1080 LINE",
"559 436 LINE",
"505 1080 LINE",
"240 1082 LINE",
"330 0 LINE"
);
}
);
width = 1628;
},
{
layerId = "E6C7DF62-62C5-46F1-94C3-6D079D8A542C";
paths = (
{
closed = 1;
nodes = (
"418 0 LINE",
"912 938 LINE",
"990 0 LINE",
"1078 0 LINE",
"1647 1080 LINE",
"1561 1080 LINE",
"1066 144 LINE",
"987 1080 LINE",
"899 1080 LINE",
"406 144 LINE",
"327 1080 LINE",
"239 1080 LINE",
"330 0 LINE"
);
}
);
width = 1488;
}
);
leftKerningGroup = v;
rightKerningGroup = v;
unicode = 0077;
},
{
glyphname = x;
layers = (
{
layerId = "6571C5BB-D9C1-4570-8E40-7CA3FF1E644F";
name = Layer5;
width = 1162;
},
{
layerId = "CBCB5F37-9E29-4BCC-9D4B-3E9EA04104CC";
name = Layer4;
width = 968;
},
{
layerId = "AE607061-5769-4FDA-9CBB-E069495578C9";
name = Layer3;
width = 1200;
},
{
layerId = "1859055D-7BE4-451C-9A54-85DF861917C1";
paths = (
{
closed = 1;
nodes = (
"300 0 LINE",
"598 332 LINE",
"746 0 LINE",
"1066 0 LINE",
"799 546 LINE",
"1295 1080 LINE",
"975 1080 LINE",
"692 760 LINE",
"547 1080 LINE",
"227 1080 LINE",
"487 546 LINE",
"-20 0 LINE"
);
}
);
width = 1126;
},
{
layerId = "E6C7DF62-62C5-46F1-94C3-6D079D8A542C";
paths = (
{
closed = 1;
nodes = (
"86 0 LINE",
"577 484 LINE",
"852 0 LINE",
"958 0 LINE",
"639 546 LINE",
"1187 1080 LINE",
"1083 1080 LINE",
"605 608 LINE",
"333 1080 LINE",
"229 1080 LINE",
"541 546 LINE",
"-20 0 LINE"
);
}
);
width = 1018;
}
);
leftKerningGroup = x;
rightKerningGroup = x;
unicode = 0078;
},
{
glyphname = y;
layers = (
{
layerId = "EE7A52D2-E753-43B8-9FB4-E8DCBBFA4933";
name = "Dec 28 18, 16:43";
paths = (
{
closed = 1;
nodes = (
"606 314 LINE",
"338 1080 LINE",
"66 1080 LINE",
"480 -30 LINE",
"286 -480 LINE",
"558 -480 LINE",
"1152 1080 LINE",
"880 1080 LINE"
);
}
);
width = 1172;
},
{
layerId = "6571C5BB-D9C1-4570-8E40-7CA3FF1E644F";
name = Layer5;
width = 1154;
},
{
layerId = "CBCB5F37-9E29-4BCC-9D4B-3E9EA04104CC";
name = Layer4;
width = 912;
},
{
layerId = "AE607061-5769-4FDA-9CBB-E069495578C9";
name = Layer3;
width = 1200;
},
{
layerId = "1859055D-7BE4-451C-9A54-85DF861917C1";
paths = (
{
closed = 1;
nodes = (
"384 -480 LINE",
"1339 1080 LINE",
"1067 1080 LINE",
"572 262 LINE",
"636 262 LINE",
"501 1080 LINE",
"219 1080 LINE",
"433 -76 LINE",
"466 92 LINE",
"132 -480 LINE"
);
}
);
width = 1140;
},
{
layerId = "E6C7DF62-62C5-46F1-94C3-6D079D8A542C";
paths = (
{
closed = 1;
nodes = (
"250 -480 LINE",
"1161 1080 LINE",
"1071 1080 LINE",
"459 32 LINE",
"523 32 LINE",
"331 1080 LINE",
"239 1080 LINE",
"455 -84 LINE",
"491 84 LINE",
"156 -480 LINE"
);
}
);
width = 1012;
}
);
leftKerningGroup = y;
rightKerningGroup = y;
unicode = 0079;
},
{
glyphname = z;
layers = (
{
layerId = "6571C5BB-D9C1-4570-8E40-7CA3FF1E644F";
name = Layer5;
width = 1180;
},
{
layerId = "CBCB5F37-9E29-4BCC-9D4B-3E9EA04104CC";
name = Layer4;
width = 1070;
},
{
layerId = "AE607061-5769-4FDA-9CBB-E069495578C9";
name = Layer3;
width = 1200;
},
{
layerId = "1859055D-7BE4-451C-9A54-85DF861917C1";
paths = (
{
closed = 1;
nodes = (
"930 0 LINE",
"982 236 LINE",
"474 236 LINE",
"1182 1046 LINE",
"1189 1080 LINE",
"299 1080 LINE",
"247 844 LINE",
"717 844 LINE",
"8 34 LINE",
"0 0 LINE"
);
}
);
width = 1070;
},
{
layerId = "E6C7DF62-62C5-46F1-94C3-6D079D8A542C";
paths = (
{
closed = 1;
nodes = (
"886 0 LINE",
"906 88 LINE",
"174 88 LINE",
"1166 1046 LINE",
"1173 1080 LINE",
"287 1080 LINE",
"268 992 LINE",
"1000 992 LINE",
"7 30 LINE",
"0 0 LINE"
);
}
);
width = 1054;
}
);
leftKerningGroup = z;
rightKerningGroup = z;
unicode = 007A;
},
{
glyphname = fl;
layers = (
{
layerId = "6571C5BB-D9C1-4570-8E40-7CA3FF1E644F";
name = Layer5;
width = 1220;
},
{
layerId = "CBCB5F37-9E29-4BCC-9D4B-3E9EA04104CC";
name = Layer4;
width = 1320;
},
{
layerId = "AE607061-5769-4FDA-9CBB-E069495578C9";
name = Layer3;
width = 1200;
},
{
components = (
{
name = f;
alignment = -1;
},
{
name = l;
transform = "{1, 0, 0, 1, 830, 0}";
alignment = -1;
}
);
layerId = "1859055D-7BE4-451C-9A54-85DF861917C1";
paths = (
{
closed = 1;
nodes = (
"1153 870 LINE",
"1199 1080 LINE",
"939 1080 LINE",
"893 870 LINE"
);
}
);
width = 1422;
},
{
components = (
{
name = f;
alignment = -1;
},
{
name = l;
transform = "{1, 0, 0, 1, 758, 0}";
alignment = -1;
}
);
layerId = "E6C7DF62-62C5-46F1-94C3-6D079D8A542C";
paths = (
{
closed = 1;
nodes = (
"1119 996 LINE",
"1137 1080 LINE",
"817 1080 LINE",
"799 996 LINE"
);
}
);
width = 1162;
}
);
leftKerningGroup = f;
rightKerningGroup = l;
unicode = FB02;
},
{
glyphname = ordfeminine;
layers = (
{
hints = (
{
horizontal = 1;
place = "{540, 164}";
type = Stem;
},
{
horizontal = 1;
place = "{494, 194}";
type = Stem;
},
{
horizontal = 1;
place = "{986, 124}";
type = Stem;
},
{
horizontal = 1;
place = "{555, 0}";
type = Stem;
},
{
horizontal = 1;
place = "{704, 2}";
type = Stem;
},
{
horizontal = 1;
place = "{555, 338}";
type = Stem;
},
{
horizontal = 1;
place = "{555, 164}";
type = Stem;
}
);
layerId = "1859055D-7BE4-451C-9A54-85DF861917C1";
paths = (
{
closed = 1;
nodes = (
"433 540 OFFCURVE",
"494 570 OFFCURVE",
"564 643 CURVE",
"552 666 LINE",
"527 555 LINE",
"646 555 LINE",
"719 885 LINE SMOOTH",
"730 934 OFFCURVE",
"737 972 OFFCURVE",
"725 1012 CURVE SMOOTH",
"703 1084 OFFCURVE",
"631 1110 OFFCURVE",
"536 1110 CURVE SMOOTH",
"406 1110 OFFCURVE",
"318 1048 OFFCURVE",
"272 959 CURVE",
"386 920 LINE",
"414 969 OFFCURVE",
"469 986 OFFCURVE",
"509 986 CURVE SMOOTH",
"581 986 OFFCURVE",
"602 957 OFFCURVE",
"588 893 CURVE",
"643 920 LINE",
"513 901 OFFCURVE",
"415 889 OFFCURVE",
"350 867 CURVE SMOOTH",
"256 835 OFFCURVE",
"213 779 OFFCURVE",
"196 704 CURVE SMOOTH",
"176 614 OFFCURVE",
"224 540 OFFCURVE",
"340 540 CURVE SMOOTH"
);
},
{
closed = 1;
nodes = (
"345 647 OFFCURVE",
"321 669 OFFCURVE",
"330 706 CURVE SMOOTH",
"336 733 OFFCURVE",
"356 752 OFFCURVE",
"399 768 CURVE SMOOTH",
"437 781 OFFCURVE",
"482 789 OFFCURVE",
"607 809 CURVE",
"570 819 LINE",
"564 793 OFFCURVE",
"554 748 OFFCURVE",
"533 719 CURVE SMOOTH",
"517 696 OFFCURVE",
"467 647 OFFCURVE",
"392 647 CURVE SMOOTH"
);
}
);
width = 643;
},
{
hints = (
{
place = "{40, 88}";
type = Stem;
},
{
place = "{832, 92}";
type = Stem;
},
{
place = "{846, 78}";
type = Stem;
},
{
horizontal = 1;
place = "{-30, 84}";
type = Stem;
},
{
horizontal = 1;
place = "{580, 84}";
type = Stem;
},
{
horizontal = 1;
place = "{1110, 84}";
type = Stem;
},
{
horizontal = 1;
place = "{0, 21}";
target = up;
type = BottomGhost;
}
);
layerId = "E6C7DF62-62C5-46F1-94C3-6D079D8A542C";
paths = (
{
closed = 1;
nodes = (
"446 540 OFFCURVE",
"527 582 OFFCURVE",
"587 666 CURVE",
"576 684 LINE",
"547 555 LINE",
"626 555 LINE",
"700 889 LINE SMOOTH",
"710 932 OFFCURVE",
"715 971 OFFCURVE",
"708 1005 CURVE SMOOTH",
"692 1075 OFFCURVE",
"627 1110 OFFCURVE",
"529 1110 CURVE SMOOTH",
"407 1110 OFFCURVE",
"319 1053 OFFCURVE",
"272 958 CURVE",
"352 933 LINE",
"385 999 OFFCURVE",
"445 1027 OFFCURVE",
"510 1027 CURVE SMOOTH",
"617 1027 OFFCURVE",
"638 974 OFFCURVE",
"605 861 CURVE",
"644 904 LINE",
"557 892 OFFCURVE",
"443 880 OFFCURVE",
"364 860 CURVE SMOOTH",
"276 836 OFFCURVE",
"214 786 OFFCURVE",
"195 701 CURVE SMOOTH",
"176 614 OFFCURVE",
"223 540 OFFCURVE",
"344 540 CURVE SMOOTH"
);
},
{
closed = 1;
nodes = (
"296 615 OFFCURVE",
"275 657 OFFCURVE",
"285 702 CURVE SMOOTH",
"296 752 OFFCURVE",
"340 777 OFFCURVE",
"388 791 CURVE SMOOTH",
"452 808 OFFCURVE",
"541 816 OFFCURVE",
"632 829 CURVE",
"601 844 LINE",
"597 826 OFFCURVE",
"588 774 OFFCURVE",
"569 739 CURVE",
"541 672 OFFCURVE",
"469 615 OFFCURVE",
"373 615 CURVE SMOOTH"
);
}
);
width = 623;
}
);
unicode = 00AA;
},
{
glyphname = ordmasculine;
layers = (
{
layerId = "1859055D-7BE4-451C-9A54-85DF861917C1";
paths = (
{
closed = 1;
nodes = (
"595 540 OFFCURVE",
"733 657 OFFCURVE",
"770 825 CURVE SMOOTH",
"807 992 OFFCURVE",
"722 1110 OFFCURVE",
"559 1110 CURVE SMOOTH",
"399 1110 OFFCURVE",
"260 994 OFFCURVE",
"223 825 CURVE SMOOTH",
"186 658 OFFCURVE",
"270 540 OFFCURVE",
"433 540 CURVE SMOOTH"
);
},
{
closed = 1;
nodes = (
"376 667 OFFCURVE",
"345 728 OFFCURVE",
"367 825 CURVE SMOOTH",
"388 919 OFFCURVE",
"442 983 OFFCURVE",
"531 983 CURVE SMOOTH",
"617 983 OFFCURVE",
"647 921 OFFCURVE",
"626 825 CURVE SMOOTH",
"605 732 OFFCURVE",
"548 667 OFFCURVE",
"461 667 CURVE SMOOTH"
);
}
);
width = 707;
},
{
layerId = "E6C7DF62-62C5-46F1-94C3-6D079D8A542C";
paths = (
{
closed = 1;
nodes = (
"581 540 OFFCURVE",
"706 656 OFFCURVE",
"744 826 CURVE SMOOTH",
"781 993 OFFCURVE",
"708 1110 OFFCURVE",
"546 1110 CURVE SMOOTH",
"388 1110 OFFCURVE",
"261 995 OFFCURVE",
"223 826 CURVE SMOOTH",
"186 658 OFFCURVE",
"259 540 OFFCURVE",
"420 540 CURVE SMOOTH"
);
},
{
closed = 1;
nodes = (
"330 625 OFFCURVE",
"291 704 OFFCURVE",
"318 826 CURVE SMOOTH",
"344 944 OFFCURVE",
"414 1026 OFFCURVE",
"527 1026 CURVE SMOOTH",
"638 1026 OFFCURVE",
"676 947 OFFCURVE",
"649 826 CURVE SMOOTH",
"623 707 OFFCURVE",
"551 625 OFFCURVE",
"439 625 CURVE SMOOTH"
);
}
);
width = 681;
}
);
unicode = 00BA;
},
{
glyphname = "Be-cy";
layers = (
{
layerId = "0B449CB6-2188-419A-9A7B-C88758FF5778";
name = "#instance";
paths = (
{
closed = 1;
nodes = (
"630 0 LINE SMOOTH",
"658 0 OFFCURVE",
"686 2 OFFCURVE",
"724 8 CURVE SMOOTH",
"939 40 OFFCURVE",
"1110 216 OFFCURVE",
"1158 432 CURVE SMOOTH",
"1206 648 OFFCURVE",
"1113 824 OFFCURVE",
"912 856 CURVE SMOOTH",
"877 862 OFFCURVE",
"850 864 OFFCURVE",
"822 864 CURVE SMOOTH",
"376 864 LINE",
"485 1356 LINE",
"1241 1356 LINE",
"1259 1440 LINE",
"419 1440 LINE",
"100 0 LINE"
);
},
{
closed = 1;
nodes = (
"357 780 LINE",
"803 780 LINE SMOOTH",
"825 780 OFFCURVE",
"858 778 OFFCURVE",
"889 772 CURVE SMOOTH",
"1048 740 OFFCURVE",
"1104 594 OFFCURVE",
"1068 432 CURVE SMOOTH",
"1032 270 OFFCURVE",
"911 124 OFFCURVE",
"738 92 CURVE SMOOTH",
"705 86 OFFCURVE",
"671 84 OFFCURVE",
"649 84 CURVE SMOOTH",
"203 84 LINE"
);
}
);
width = 1162;
},
{
layerId = "6571C5BB-D9C1-4570-8E40-7CA3FF1E644F";
name = Layer5;
width = 1200;
},
{
layerId = "CBCB5F37-9E29-4BCC-9D4B-3E9EA04104CC";
name = Layer4;
width = 1200;
},
{
layerId = "AE607061-5769-4FDA-9CBB-E069495578C9";
name = Layer3;
width = 1200;
},
{
layerId = "1859055D-7BE4-451C-9A54-85DF861917C1";
paths = (
{
closed = 1;
nodes = (
"708 0 LINE SMOOTH",
"755.54 0 OFFCURVE",
"781.707 1.149 OFFCURVE",
"829 6 CURVE SMOOTH",
"1108.447 34.381 OFFCURVE",
"1239.464 178.485 OFFCURVE",
"1301 456 CURVE SMOOTH",
"1356.323 705.496 OFFCURVE",
"1267.429 880.384 OFFCURVE",
"1029 906 CURVE SMOOTH",
"982.51 911.026 OFFCURVE",
"956.759 912 OFFCURVE",
"910 912 CURVE SMOOTH",
"574 912 LINE",
"635 1186 LINE",
"1351 1186 LINE",
"1407 1440 LINE",
"419 1440 LINE",
"100 0 LINE"
);
},
{
closed = 1;
nodes = (
"518 658 LINE",
"842 658 LINE SMOOTH",
"877.535 658 OFFCURVE",
"897.295 657.712 OFFCURVE",
"932 650 CURVE SMOOTH",
"1025.307 628.673 OFFCURVE",
"1048.889 556.43 OFFCURVE",
"1027 456 CURVE SMOOTH",
"1002.774 344.847 OFFCURVE",
"956.246 285.008 OFFCURVE",
"846 262 CURVE SMOOTH",
"809.668 254.483 OFFCURVE",
"789.088 254 OFFCURVE",
"752 254 CURVE SMOOTH",
"428 254 LINE"
);
}
);
width = 1300;
},
{
layerId = "E6C7DF62-62C5-46F1-94C3-6D079D8A542C";
paths = (
{
closed = 1;
nodes = (
"630 0 LINE SMOOTH",
"667.055 0 OFFCURVE",
"687.402 2.221 OFFCURVE",
"724 8 CURVE SMOOTH",
"981.136 46.271 OFFCURVE",
"1101.195 176.378 OFFCURVE",
"1158 432 CURVE SMOOTH",
"1208.848 660.815 OFFCURVE",
"1131.486 821.057 OFFCURVE",
"912 856 CURVE SMOOTH",
"877.014 861.998 OFFCURVE",
"857.499 864 OFFCURVE",
"822 864 CURVE SMOOTH",
"376 864 LINE",
"485 1356 LINE",
"1241 1356 LINE",
"1259 1440 LINE",
"419 1440 LINE",
"100 0 LINE"
);
},
{
closed = 1;
nodes = (
"357 780 LINE",
"803 780 LINE SMOOTH",
"836.948 780 OFFCURVE",
"855.669 778.451 OFFCURVE",
"889 772 CURVE SMOOTH",
"1057.52 738.084 OFFCURVE",
"1107.735 610.809 OFFCURVE",
"1068 432 CURVE SMOOTH",
"1023.834 233.254 OFFCURVE",
"936.407 128.7 OFFCURVE",
"738 92 CURVE SMOOTH",
"703.453 85.719 OFFCURVE",
"684.114 84 OFFCURVE",
"649 84 CURVE SMOOTH",
"203 84 LINE"
);
}
);
width = 1162;
}
);
leftKerningGroup = N;
rightKerningGroup = P;
unicode = 0411;
},
{
glyphname = "Ge-cy";
layers = (
{
layerId = "6571C5BB-D9C1-4570-8E40-7CA3FF1E644F";
name = Layer5;
width = 1164;
},
{
layerId = "CBCB5F37-9E29-4BCC-9D4B-3E9EA04104CC";
name = Layer4;
width = 976;
},
{
layerId = "AE607061-5769-4FDA-9CBB-E069495578C9";
name = Layer3;
width = 1200;
},
{
layerId = "1859055D-7BE4-451C-9A54-85DF861917C1";
paths = (
{
closed = 1;
nodes = (
"372 0 LINE",
"635 1186 LINE",
"1303 1186 LINE",
"1359 1440 LINE",
"419 1440 LINE",
"100 0 LINE"
);
}
);
width = 1100;
},
{
layerId = "E6C7DF62-62C5-46F1-94C3-6D079D8A542C";
paths = (
{
closed = 1;
nodes = (
"184 0 LINE",
"485 1356 LINE",
"1281 1356 LINE",
"1299 1440 LINE",
"419 1440 LINE",
"100 0 LINE"
);
}
);
width = 1040;
}
);
leftKerningGroup = B;
rightKerningGroup = T;
unicode = 0413;
},
{
glyphname = "Gheupturn-cy";
layers = (
{
layerId = "6571C5BB-D9C1-4570-8E40-7CA3FF1E644F";
name = Layer5;
width = 1164;
},
{
layerId = "CBCB5F37-9E29-4BCC-9D4B-3E9EA04104CC";
name = Layer4;
width = 976;
},
{
layerId = "AE607061-5769-4FDA-9CBB-E069495578C9";
name = Layer3;
width = 1200;
},
{
layerId = "1859055D-7BE4-451C-9A54-85DF861917C1";
paths = (
{
closed = 1;
nodes = (
"372 0 LINE",
"635 1186 LINE",
"1323 1186 LINE",
"1432 1680 LINE",
"1160 1680 LINE",
"1107 1440 LINE",
"419 1440 LINE",
"100 0 LINE"
);
}
);
width = 1120;
},
{
layerId = "E6C7DF62-62C5-46F1-94C3-6D079D8A542C";
paths = (
{
closed = 1;
nodes = (
"184 0 LINE",
"485 1356 LINE",
"1301 1356 LINE",
"1355 1600 LINE",
"1271 1600 LINE",
"1235 1440 LINE",
"419 1440 LINE",
"100 0 LINE"
);
}
);
width = 1060;
}
);
leftKerningGroup = B;
rightKerningGroup = T;
unicode = 0490;
},
{
glyphname = "De-cy";
layers = (
{
layerId = "6571C5BB-D9C1-4570-8E40-7CA3FF1E644F";
name = Layer5;
width = 1254;
},
{
layerId = "CBCB5F37-9E29-4BCC-9D4B-3E9EA04104CC";
name = Layer4;
width = 1542;
},
{
layerId = "AE607061-5769-4FDA-9CBB-E069495578C9";
name = Layer3;
width = 1200;
},
{
layerId = "1859055D-7BE4-451C-9A54-85DF861917C1";
paths = (
{
closed = 1;
nodes = (
"239 -240 LINE",
"292 0 LINE",
"1122 0 LINE",
"1069 -240 LINE",
"1341 -240 LINE",
"1450 254 LINE",
"1340 254 LINE",
"1603 1440 LINE",
"648 1442 LINE",
"563 1150 OFFCURVE",
"503 932 OFFCURVE",
"429 692 CURVE SMOOTH",
"352 440 OFFCURVE",
"250 254 OFFCURVE",
"76 254 CURVE",
"-33 -240 LINE"
);
},
{
closed = 1;
nodes = (
"482 254 LINE",
"588 362 OFFCURVE",
"615 438 OFFCURVE",
"682 648 CURVE SMOOTH",
"748 858 OFFCURVE",
"781 990 OFFCURVE",
"839 1188 CURVE",
"1275 1186 LINE",
"1068 254 LINE"
);
}
);
width = 1514;
},
{
layerId = "E6C7DF62-62C5-46F1-94C3-6D079D8A542C";
paths = (
{
closed = 1;
nodes = (
"71 -240 LINE",
"124 0 LINE",
"1252 0 LINE",
"1199 -240 LINE",
"1283 -240 LINE",
"1355 84 LINE",
"1255 84 LINE",
"1555 1440 LINE",
"701 1440 LINE",
"613 1112 OFFCURVE",
"556 886 OFFCURVE",
"463 608 CURVE SMOOTH",
"382 368 OFFCURVE",
"307 84 OFFCURVE",
"59 84 CURVE",
"-13 -240 LINE"
);
},
{
closed = 1;
nodes = (
"277 84 LINE",
"391 156 OFFCURVE",
"460 324 OFFCURVE",
"537 564 CURVE SMOOTH",
"625 836 OFFCURVE",
"694 1090 OFFCURVE",
"765 1356 CURVE",
"1453 1356 LINE",
"1171 84 LINE"
);
}
);
width = 1456;
}
);
leftKerningGroup = A;
rightKerningGroup = N;
unicode = 0414;
},
{
glyphname = "Zhe-cy";
layers = (
{
layerId = "6571C5BB-D9C1-4570-8E40-7CA3FF1E644F";
name = Layer5;
width = 1318;
},
{
layerId = "CBCB5F37-9E29-4BCC-9D4B-3E9EA04104CC";
name = Layer4;
width = 1936;
},
{
layerId = "AE607061-5769-4FDA-9CBB-E069495578C9";
name = Layer3;
width = 1200;
},
{
layerId = "1859055D-7BE4-451C-9A54-85DF861917C1";
paths = (
{
closed = 1;
nodes = (
"314 0 LINE",
"889 636 LINE",
"748 0 LINE",
"1020 0 LINE",
"1161 636 LINE",
"1454 0 LINE",
"1788 0 LINE",
"1440 730 LINE",
"2069 1440 LINE",
"1747 1440 LINE",
"1196 796 LINE",
"1339 1440 LINE",
"1067 1440 LINE",
"924 796 LINE",
"659 1440 LINE",
"337 1440 LINE",
"652 730 LINE",
"-20 0 LINE"
);
}
);
width = 1848;
},
{
layerId = "E6C7DF62-62C5-46F1-94C3-6D079D8A542C";
paths = (
{
closed = 1;
nodes = (
"96 0 LINE",
"959 752 LINE",
"792 0 LINE",
"876 0 LINE",
"1043 752 LINE",
"1572 0 LINE",
"1688 0 LINE",
"1153 752 LINE",
"1943 1440 LINE",
"1827 1440 LINE",
"1043 752 LINE",
"1195 1440 LINE",
"1111 1440 LINE",
"959 752 LINE",
"479 1440 LINE",
"363 1440 LINE",
"849 752 LINE",
"-20 0 LINE"
);
}
);
width = 1748;
}
);
leftKerningGroup = X;
rightKerningGroup = K;
unicode = 0416;
},
{
glyphname = "Ze-cy";
layers = (
{
layerId = "0B449CB6-2188-419A-9A7B-C88758FF5778";
name = "#instance";
paths = (
{
closed = 1;
nodes = (
"843.995 -30 OFFCURVE",
"1041.1 84.025 OFFCURVE",
"1109 392 CURVE SMOOTH",
"1148.159 569.147 OFFCURVE",
"1096.423 692.786 OFFCURVE",
"928 738 CURVE",
"1103.224 804.88 OFFCURVE",
"1175.435 900.39 OFFCURVE",
"1216 1084 CURVE SMOOTH",
"1269.068 1322.805 OFFCURVE",
"1123.701 1470 OFFCURVE",
"864 1470 CURVE SMOOTH",
"595.641 1470 OFFCURVE",
"454.517 1372.275 OFFCURVE",
"305 1148 CURVE",
"385 1114 LINE",
"514.849 1294.113 OFFCURVE",
"622.569 1386 OFFCURVE",
"843 1386 CURVE SMOOTH",
"1050.229 1386 OFFCURVE",
"1168.092 1271.948 OFFCURVE",
"1126 1084 CURVE SMOOTH",
"1079.373 870.497 OFFCURVE",
"944.54 792.207 OFFCURVE",
"721 782 CURVE SMOOTH",
"655.952 779.043 OFFCURVE",
"620.111 780 OFFCURVE",
"555 780 CURVE",
"536 696 LINE",
"600.762 696 OFFCURVE",
"636.297 692.641 OFFCURVE",
"701 690 CURVE SMOOTH",
"923.613 681.831 OFFCURVE",
"1061.37 585.122 OFFCURVE",
"1020 396 CURVE SMOOTH",
"964.463 146.085 OFFCURVE",
"804.246 54 OFFCURVE",
"542 54 CURVE SMOOTH",
"331.733 54 OFFCURVE",
"193.832 119.853 OFFCURVE",
"176 316 CURVE",
"82 280 LINE",
"109.424 46.899 OFFCURVE",
"272.083 -30 OFFCURVE",
"521 -30 CURVE SMOOTH"
);
}
);
width = 1122;
},
{
layerId = "6571C5BB-D9C1-4570-8E40-7CA3FF1E644F";
name = Layer5;
width = 1198;
},
{
layerId = "CBCB5F37-9E29-4BCC-9D4B-3E9EA04104CC";
name = Layer4;
width = 1188;
},
{
layerId = "AE607061-5769-4FDA-9CBB-E069495578C9";
name = Layer3;
width = 1200;
},
{
layerId = "1859055D-7BE4-451C-9A54-85DF861917C1";
paths = (
{
closed = 1;
nodes = (
"992.437 -30 OFFCURVE",
"1231.394 80.728 OFFCURVE",
"1310 432 CURVE SMOOTH",
"1341.043 574.984 OFFCURVE",
"1317.085 674.458 OFFCURVE",
"1190 738 CURVE",
"1309.729 828.407 OFFCURVE",
"1355.075 905.381 OFFCURVE",
"1387 1052 CURVE SMOOTH",
"1445.887 1316.54 OFFCURVE",
"1269.667 1470 OFFCURVE",
"970 1470 CURVE SMOOTH",
"743.777 1470 OFFCURVE",
"616.736 1426.053 OFFCURVE",
"444 1280 CURVE",
"585 1080 LINE",
"682.688 1183.793 OFFCURVE",
"763.408 1216 OFFCURVE",
"906 1216 CURVE SMOOTH",
"1040.12 1216 OFFCURVE",
"1122.681 1155.425 OFFCURVE",
"1097 1042 CURVE SMOOTH",
"1065.772 902.677 OFFCURVE",
"962.444 874.357 OFFCURVE",
"812 868 CURVE SMOOTH",
"759.519 864.913 OFFCURVE",
"730.566 866 OFFCURVE",
"678 866 CURVE",
"621 610 LINE",
"683.379 610 OFFCURVE",
"717.65 607.82 OFFCURVE",
"780 606 CURVE SMOOTH",
"939.413 601.478 OFFCURVE",
"1049.494 558.473 OFFCURVE",
"1022 432 CURVE SMOOTH",
"985.503 266.972 OFFCURVE",
"865.931 226 OFFCURVE",
"688 226 CURVE SMOOTH",
"516.857 226 OFFCURVE",
"408.809 277.197 OFFCURVE",
"367 438 CURVE",
"102 278 LINE",
"185.662 34.907 OFFCURVE",
"354.967 -30 OFFCURVE",
"619 -30 CURVE SMOOTH"
);
}
);
width = 1334;
},
{
layerId = "E6C7DF62-62C5-46F1-94C3-6D079D8A542C";
paths = (
{
closed = 1;
nodes = (
"843.995 -30 OFFCURVE",
"1041.1 84.025 OFFCURVE",
"1109 392 CURVE SMOOTH",
"1148.159 569.147 OFFCURVE",
"1096.423 692.786 OFFCURVE",
"928 738 CURVE",
"1103.224 804.88 OFFCURVE",
"1175.435 900.39 OFFCURVE",
"1216 1084 CURVE SMOOTH",
"1269.068 1322.805 OFFCURVE",
"1123.701 1470 OFFCURVE",
"864 1470 CURVE SMOOTH",
"595.641 1470 OFFCURVE",
"454.517 1372.275 OFFCURVE",
"305 1148 CURVE",
"385 1114 LINE",
"514.849 1294.113 OFFCURVE",
"622.569 1386 OFFCURVE",
"843 1386 CURVE SMOOTH",
"1050.229 1386 OFFCURVE",
"1168.092 1271.948 OFFCURVE",
"1126 1084 CURVE SMOOTH",
"1079.373 870.497 OFFCURVE",
"944.54 792.207 OFFCURVE",
"721 782 CURVE SMOOTH",
"655.952 779.043 OFFCURVE",
"620.111 780 OFFCURVE",
"555 780 CURVE",
"536 696 LINE",
"600.762 696 OFFCURVE",
"636.297 692.641 OFFCURVE",
"701 690 CURVE SMOOTH",
"923.613 681.831 OFFCURVE",
"1061.37 585.122 OFFCURVE",
"1020 396 CURVE SMOOTH",
"964.463 146.085 OFFCURVE",
"804.246 54 OFFCURVE",
"542 54 CURVE SMOOTH",
"331.733 54 OFFCURVE",
"193.832 119.853 OFFCURVE",
"176 316 CURVE",
"82 280 LINE",
"109.424 46.899 OFFCURVE",
"272.083 -30 OFFCURVE",
"521 -30 CURVE SMOOTH"
);
}
);
width = 1122;
}
);
leftKerningGroup = O;
rightKerningGroup = B;
unicode = 0417;
},
{
glyphname = "Iishort-cy";
layers = (
{
layerId = "6571C5BB-D9C1-4570-8E40-7CA3FF1E644F";
name = Layer5;
width = 1240;
},
{
layerId = "CBCB5F37-9E29-4BCC-9D4B-3E9EA04104CC";
name = Layer4;
width = 1450;
},
{
layerId = "AE607061-5769-4FDA-9CBB-E069495578C9";
name = Layer3;
width = 1200;
},
{
components = (
{
name = brevecomb;
transform = "{1, 0, 0, 1, 166, 0}";
alignment = -1;
}
);
layerId = "1859055D-7BE4-451C-9A54-85DF861917C1";
paths = (
{
closed = 1;
nodes = (
"376 0 LINE",
"1215 960 LINE",
"1002 0 LINE",
"1278 0 LINE",
"1597 1440 LINE",
"1321 1440 LINE",
"482 480 LINE",
"695 1440 LINE",
"419 1440 LINE",
"100 0 LINE"
);
}
);
width = 1458;
},
{
components = (
{
name = brevecomb;
transform = "{1, 0, 0, 1, 214, 0}";
alignment = -1;
}
);
layerId = "E6C7DF62-62C5-46F1-94C3-6D079D8A542C";
paths = (
{
closed = 1;
nodes = (
"184 0 LINE",
"1346 1292 LINE",
"1060 0 LINE",
"1144 0 LINE",
"1463 1440 LINE",
"1379 1440 LINE",
"217 150 LINE",
"503 1440 LINE",
"419 1440 LINE",
"100 0 LINE"
);
}
);
width = 1324;
}
);
leftKerningGroup = N;
rightKerningGroup = N;
unicode = 0419;
},
{
glyphname = "Iigrave-cy";
layers = (
{
components = (
{
name = gravecomb;
transform = "{1, 0, 0, 1, 164, 0}";
alignment = -1;
}
);
layerId = "1859055D-7BE4-451C-9A54-85DF861917C1";
paths = (
{
closed = 1;
nodes = (
"376 0 LINE",
"1215 960 LINE",
"1002 0 LINE",
"1278 0 LINE",
"1597 1440 LINE",
"1321 1440 LINE",
"482 480 LINE",
"695 1440 LINE",
"419 1440 LINE",
"100 0 LINE"
);
}
);
width = 1458;
},
{
components = (
{
name = gravecomb;
transform = "{1, 0, 0, 1, 191, 0}";
alignment = -1;
}
);
layerId = "E6C7DF62-62C5-46F1-94C3-6D079D8A542C";
paths = (
{
closed = 1;
nodes = (
"184 0 LINE",
"1346 1292 LINE",
"1060 0 LINE",
"1144 0 LINE",
"1463 1440 LINE",
"1379 1440 LINE",
"217 150 LINE",
"503 1440 LINE",
"419 1440 LINE",
"100 0 LINE"
);
}
);
width = 1324;
}
);
unicode = 040D;
},
{
glyphname = "Kje-cy";
layers = (
{
components = (
{
name = acutecomb;
transform = "{1, 0, 0, 1, 148, 0}";
alignment = -1;
}
);
layerId = "1859055D-7BE4-451C-9A54-85DF861917C1";
paths = (
{
closed = 1;
nodes = (
"372 0 LINE",
"517 656 LINE",
"946 0 LINE",
"1290 0 LINE",
"812 730 LINE",
"1571 1440 LINE",
"1239 1440 LINE",
"544 776 LINE",
"691 1440 LINE",
"419 1440 LINE",
"100 0 LINE"
);
}
);
width = 1330;
},
{
components = (
{
name = acutecomb;
transform = "{1, 0, 0, 1, 172, 0}";
alignment = -1;
}
);
layerId = "E6C7DF62-62C5-46F1-94C3-6D079D8A542C";
paths = (
{
closed = 1;
nodes = (
"184 0 LINE",
"351 752 LINE",
"960 0 LINE",
"1076 0 LINE",
"473 752 LINE",
"1331 1440 LINE",
"1215 1440 LINE",
"351 752 LINE",
"503 1440 LINE",
"419 1440 LINE",
"100 0 LINE"
);
}
);
width = 1116;
}
);
unicode = 040C;
},
{
glyphname = "El-cy";
layers = (
{
layerId = "6571C5BB-D9C1-4570-8E40-7CA3FF1E644F";
name = Layer5;
width = 1222;
},
{
layerId = "CBCB5F37-9E29-4BCC-9D4B-3E9EA04104CC";
name = Layer4;
width = 1332;
},
{
layerId = "AE607061-5769-4FDA-9CBB-E069495578C9";
name = Layer3;
width = 1200;
},
{
layerId = "1859055D-7BE4-451C-9A54-85DF861917C1";
paths = (
{
closed = 1;
nodes = (
"0 0 LINE",
"300 -62 OFFCURVE",
"421 102 OFFCURVE",
"540 388 CURVE SMOOTH",
"665 682 OFFCURVE",
"768 1036 OFFCURVE",
"811 1186 CURVE",
"1271 1186 LINE",
"1008 0 LINE",
"1280 0 LINE",
"1599 1440 LINE",
"617 1440 LINE",
"571 1266 OFFCURVE",
"450 820 OFFCURVE",
"312 488 CURVE SMOOTH",
"225 276 OFFCURVE",
"170 218 OFFCURVE",
"50 226 CURVE"
);
}
);
width = 1460;
},
{
layerId = "E6C7DF62-62C5-46F1-94C3-6D079D8A542C";
paths = (
{
closed = 1;
nodes = (
"0 0 LINE",
"232 -72 OFFCURVE",
"320 146 OFFCURVE",
"408 388 CURVE SMOOTH",
"538 750 OFFCURVE",
"607 1016 OFFCURVE",
"705 1356 CURVE",
"1405 1356 LINE",
"1104 0 LINE",
"1188 0 LINE",
"1507 1440 LINE",
"635 1440 LINE",
"514 982 OFFCURVE",
"441 746 OFFCURVE",
"330 442 CURVE SMOOTH",
"208 108 OFFCURVE",
"175 66 OFFCURVE",
"19 84 CURVE"
);
}
);
width = 1368;
}
);
leftKerningGroup = A;
rightKerningGroup = H;
unicode = 041B;
},
{
glyphname = "Pe-cy";
layers = (
{
layerId = "6571C5BB-D9C1-4570-8E40-7CA3FF1E644F";
name = Layer5;
width = 1240;
},
{
layerId = "CBCB5F37-9E29-4BCC-9D4B-3E9EA04104CC";
name = Layer4;
width = 1450;
},
{
layerId = "AE607061-5769-4FDA-9CBB-E069495578C9";
name = Layer3;
width = 1200;
},
{
layerId = "1859055D-7BE4-451C-9A54-85DF861917C1";
paths = (
{
closed = 1;
nodes = (
"372 0 LINE",
"635 1186 LINE",
"1279 1186 LINE",
"1016 0 LINE",
"1288 0 LINE",
"1607 1440 LINE",
"419 1440 LINE",
"100 0 LINE"
);
}
);
width = 1468;
},
{
layerId = "E6C7DF62-62C5-46F1-94C3-6D079D8A542C";
paths = (
{
closed = 1;
nodes = (
"184 0 LINE",
"485 1356 LINE",
"1377 1356 LINE",
"1076 0 LINE",
"1160 0 LINE",
"1479 1440 LINE",
"419 1440 LINE",
"100 0 LINE"
);
}
);
width = 1340;
}
);
leftKerningGroup = H;
rightKerningGroup = H;
unicode = 041F;
},
{
glyphname = "U-cy";
layers = (
{
layerId = "6571C5BB-D9C1-4570-8E40-7CA3FF1E644F";
name = Layer5;
width = 1180;
},
{
layerId = "CBCB5F37-9E29-4BCC-9D4B-3E9EA04104CC";
name = Layer4;
width = 1072;
},
{
layerId = "AE607061-5769-4FDA-9CBB-E069495578C9";
name = Layer3;
width = 1200;
},
{
layerId = "1859055D-7BE4-451C-9A54-85DF861917C1";
paths = (
{
closed = 1;
nodes = (
"562 0 LINE",
"1561 1440 LINE",
"1271 1440 LINE",
"767 690 LINE",
"607 1440 LINE",
"299 1440 LINE",
"562 404 LINE",
"272 0 LINE"
);
}
);
width = 1282;
},
{
layerId = "E6C7DF62-62C5-46F1-94C3-6D079D8A542C";
paths = (
{
closed = 1;
nodes = (
"474 0 LINE",
"1457 1440 LINE",
"1367 1440 LINE",
"656 404 LINE",
"409 1440 LINE",
"319 1440 LINE",
"591 310 LINE",
"378 0 LINE"
);
}
);
width = 1228;
}
);
leftKerningGroup = X;
rightKerningGroup = Y;
unicode = 0423;
},
{
glyphname = "Ef-cy";
layers = (
{
layerId = "0B449CB6-2188-419A-9A7B-C88758FF5778";
name = "#instance";
paths = (
{
closed = 1;
nodes = (
"694 0 LINE",
"734 182 LINE",
"1138.645 111.01 OFFCURVE",
"1360.026 341.601 OFFCURVE",
"1454 766 CURVE SMOOTH",
"1538.986 1149.809 OFFCURVE",
"1343.531 1407.09 OFFCURVE",
"993 1350 CURVE",
"1013 1440 LINE",
"929 1440 LINE",
"909 1350 LINE",
"504.766 1420.918 OFFCURVE",
"283.916 1190.135 OFFCURVE",
"190 766 CURVE SMOOTH",
"105.036 382.29 OFFCURVE",
"299.968 124.992 OFFCURVE",
"650 182 CURVE",
"610 0 LINE"
);
},
{
closed = 1;
nodes = (
"669 268 LINE",
"369.776 228.971 OFFCURVE",
"208.297 445.222 OFFCURVE",
"280 766 CURVE SMOOTH",
"358.715 1122.84 OFFCURVE",
"544.98 1313.911 OFFCURVE",
"891 1266 CURVE"
);
},
{
closed = 1;
nodes = (
"975 1266 LINE",
"1274.253 1305.033 OFFCURVE",
"1435.046 1088.076 OFFCURVE",
"1364 766 CURVE SMOOTH",
"1284.479 410.25 OFFCURVE",
"1098.37 220.18 OFFCURVE",
"753 268 CURVE"
);
}
);
width = 1384;
},
{
layerId = "6571C5BB-D9C1-4570-8E40-7CA3FF1E644F";
name = Layer5;
width = 1274;
},
{
layerId = "CBCB5F37-9E29-4BCC-9D4B-3E9EA04104CC";
name = Layer4;
width = 1662;
},
{
layerId = "AE607061-5769-4FDA-9CBB-E069495578C9";
name = Layer3;
width = 1200;
},
{
layerId = "1859055D-7BE4-451C-9A54-85DF861917C1";
paths = (
{
closed = 1;
nodes = (
"842 0 LINE",
"889 210 LINE",
"1268.926 143.112 OFFCURVE",
"1476.188 360.855 OFFCURVE",
"1564 760 CURVE SMOOTH",
"1645.592 1126.704 OFFCURVE",
"1464.828 1373.718 OFFCURVE",
"1135 1320 CURVE",
"1161 1440 LINE",
"891 1440 LINE",
"865 1320 LINE",
"482.575 1387.092 OFFCURVE",
"277.732 1163.291 OFFCURVE",
"188 760 CURVE SMOOTH",
"108.552 398.874 OFFCURVE",
"290.626 156.693 OFFCURVE",
"619 210 CURVE",
"572 0 LINE"
);
},
{
closed = 1;
nodes = (
"674 458 LINE",
"506.025 432.377 OFFCURVE",
"421.4 565.258 OFFCURVE",
"464 760 CURVE SMOOTH",
"512.895 977.311 OFFCURVE",
"608.67 1109.109 OFFCURVE",
"811 1076 CURVE"
);
},
{
closed = 1;
nodes = (
"1081 1076 LINE",
"1252.896 1102.446 OFFCURVE",
"1332.633 959.425 OFFCURVE",
"1287 752 CURVE SMOOTH",
"1240. 544.648 OFFCURVE",
"1139.91 425.648 OFFCURVE",
"944 458 CURVE"
);
}
);
width = 1496;
},
{
layerId = "E6C7DF62-62C5-46F1-94C3-6D079D8A542C";
paths = (
{
closed = 1;
nodes = (
"563.989 0 LINE",
"603.989 182 LINE",
"1008.635 111.01 OFFCURVE",
"1230.015 341.601 OFFCURVE",
"1323.989 766 CURVE SMOOTH",
"1408.975 1149.809 OFFCURVE",
"1213.52 1407.09 OFFCURVE",
"862.989 1350 CURVE",
"882.989 1440 LINE",
"798.989 1440 LINE",
"778.989 1350 LINE",
"374.755 1420.918 OFFCURVE",
"153.905 1190.135 OFFCURVE",
"59.989 766 CURVE SMOOTH",
"-24.975 382.29 OFFCURVE",
"169.957 124.992 OFFCURVE",
"519.989 182 CURVE",
"479.989 0 LINE"
);
},
{
closed = 1;
nodes = (
"538.989 268 LINE",
"239.765 228.971 OFFCURVE",
"78.286 445.222 OFFCURVE",
"149.989 766 CURVE SMOOTH",
"228.704 1122.84 OFFCURVE",
"414.969 1313.911 OFFCURVE",
"760.989 1266 CURVE"
);
},
{
closed = 1;
nodes = (
"844.989 1266 LINE",
"1144.242 1305.033 OFFCURVE",
"1305.035 1088.076 OFFCURVE",
"1233.989 766 CURVE SMOOTH",
"1154.468 410.25 OFFCURVE",
"968.359 220.18 OFFCURVE",
"622.989 268 CURVE"
);
}
);
width = 1384;
}
);
leftKerningGroup = O;
rightKerningGroup = O;
unicode = 0424;
},
{
glyphname = "Che-cy";
layers = (
{
layerId = "0B449CB6-2188-419A-9A7B-C88758FF5778";
name = "#instance";
paths = (
{
closed = 1;
nodes = (
"1074 0 LINE",
"1393 1440 LINE",
"1309 1440 LINE",
"1129 626 LINE",
"1186 742 LINE",
"1041.22 628.244 OFFCURVE",
"933.167 610 OFFCURVE",
"749 610 CURVE SMOOTH",
"481.381 610 OFFCURVE",
"361.872 803.535 OFFCURVE",
"424 1084 CURVE SMOOTH",
"503 1440 LINE",
"419 1440 LINE",
"332 1048 LINE SMOOTH",
"262.339 731.927 OFFCURVE",
"421.593 522 OFFCURVE",
"740 522 CURVE SMOOTH",
"918.599 522 OFFCURVE",
"1018.09 547.095 OFFCURVE",
"1173 636 CURVE",
"1145 700 LINE",
"990 0 LINE"
);
}
);
width = 1254;
},
{
layerId = "321621ED-8527-4E96-9E7D-BC9A5BD846D9";
name = Layer7;
width = 1216;
},
{
layerId = "BA5DD788-FCBD-4F2A-AA95-5120243F7D5A";
name = Layer6;
width = 1302;
},
{
layerId = "6571C5BB-D9C1-4570-8E40-7CA3FF1E644F";
name = Layer5;
width = 1200;
},
{
layerId = "FD50858D-8A7B-4C5A-A944-44D81032B0FE";
name = public.background;
paths = (
{
closed = 1;
nodes = (
"1232 0 LINE",
"1232 1440 LINE",
"958 1440 LINE",
"958 718 LINE",
"988 840 LINE",
"938 774 OFFCURVE",
"834 720 OFFCURVE",
"682 720 CURVE SMOOTH",
"610 720 OFFCURVE",
"528 732 OFFCURVE",
"476 804 CURVE SMOOTH",
"416 888 OFFCURVE",
"416 1028 OFFCURVE",
"416 1108 CURVE SMOOTH",
"416 1440 LINE",
"140 1440 LINE",
"140 1046 LINE SMOOTH",
"140 936 OFFCURVE",
"140 766 OFFCURVE",
"244 628 CURVE SMOOTH",
"340 502 OFFCURVE",
"476 464 OFFCURVE",
"628 464 CURVE SMOOTH",
"774 464 OFFCURVE",
"922 500 OFFCURVE",
"996 566 CURVE",
"958 628 LINE",
"958 0 LINE"
);
}
);
width = 1372;
},
{
layerId = "1859055D-7BE4-451C-9A54-85DF861917C1";
paths = (
{
closed = 1;
nodes = (
"1192 0 LINE",
"1511 1440 LINE",
"1237 1440 LINE",
"1077 718 LINE",
"1134 840 LINE",
"1037.416 738.148 OFFCURVE",
"952.731 720 OFFCURVE",
"812 720 CURVE SMOOTH",
"621.562 720 OFFCURVE",
"571.803 884.043 OFFCURVE",
"622 1108 CURVE SMOOTH",
"695 1440 LINE",
"419 1440 LINE",
"327 1026 LINE SMOOTH",
"254.269 695.223 OFFCURVE",
"383.009 464 OFFCURVE",
"691 464 CURVE SMOOTH",
"853.408 464 OFFCURVE",
"951.054 468.54 OFFCURVE",
"1081 566 CURVE",
"1057 628 LINE",
"918 0 LINE"
);
}
);
width = 1372;
},
{
layerId = "FD50858D-8A7B-4C5A-A944-44D81032B0FE";
name = public.background;
paths = (
{
closed = 1;
nodes = (
"1114 0 LINE",
"1114 1440 LINE",
"1030 1440 LINE",
"1030 626 LINE",
"1062 742 LINE",
"992 676 OFFCURVE",
"846 610 OFFCURVE",
"654 610 CURVE SMOOTH",
"536 610 OFFCURVE",
"418 634 OFFCURVE",
"330 730 CURVE SMOOTH",
"230 838 OFFCURVE",
"224 968 OFFCURVE",
"224 1172 CURVE SMOOTH",
"224 1440 LINE",
"140 1440 LINE",
"140 1172 LINE SMOOTH",
"140 976 OFFCURVE",
"132 812 OFFCURVE",
"260 670 CURVE SMOOTH",
"358 562 OFFCURVE",
"488 522 OFFCURVE",
"658 522 CURVE SMOOTH",
"842 522 OFFCURVE",
"972 570 OFFCURVE",
"1072 636 CURVE",
"1030 700 LINE",
"1030 0 LINE"
);
}
);
width = 1372;
},
{
layerId = "E6C7DF62-62C5-46F1-94C3-6D079D8A542C";
paths = (
{
closed = 1;
nodes = (
"1074 0 LINE",
"1393 1440 LINE",
"1309 1440 LINE",
"1129 626 LINE",
"1186 742 LINE",
"1041.22 628.244 OFFCURVE",
"933.167 610 OFFCURVE",
"749 610 CURVE SMOOTH",
"481.381 610 OFFCURVE",
"361.872 803.535 OFFCURVE",
"424 1084 CURVE SMOOTH",
"503 1440 LINE",
"419 1440 LINE",
"332 1048 LINE SMOOTH",
"262.339 731.927 OFFCURVE",
"421.593 522 OFFCURVE",
"740 522 CURVE SMOOTH",
"918.599 522 OFFCURVE",
"1018.09 547.095 OFFCURVE",
"1173 636 CURVE",
"1145 700 LINE",
"990 0 LINE"
);
}
);
width = 1254;
}
);
leftKerningGroup = M;
rightKerningGroup = N;
unicode = 0427;
},
{
glyphname = "Tse-cy";
layers = (
{
layerId = "6571C5BB-D9C1-4570-8E40-7CA3FF1E644F";
name = Layer5;
width = 1264;
},
{
layerId = "CBCB5F37-9E29-4BCC-9D4B-3E9EA04104CC";
name = Layer4;
width = 1606;
},
{
layerId = "AE607061-5769-4FDA-9CBB-E069495578C9";
name = Layer3;
width = 1200;
},
{
layerId = "1859055D-7BE4-451C-9A54-85DF861917C1";
paths = (
{
closed = 1;
nodes = (
"1409 -240 LINE",
"1515 240 LINE",
"1353 240 LINE",
"1610 1400 LINE",
"1338 1400 LINE",
"1081 240 LINE",
"425 240 LINE",
"691 1440 LINE",
"419 1440 LINE",
"100 0 LINE",
"1190 0 LINE",
"1137 -240 LINE"
);
}
);
width = 1522;
},
{
layerId = "E6C7DF62-62C5-46F1-94C3-6D079D8A542C";
paths = (
{
closed = 1;
nodes = (
"1293 -160 LINE",
"1347 84 LINE",
"1199 84 LINE",
"1499 1440 LINE",
"1415 1440 LINE",
"1115 84 LINE",
"203 84 LINE",
"503 1440 LINE",
"419 1440 LINE",
"100 0 LINE",
"1244 0 LINE",
"1209 -160 LINE"
);
}
);
width = 1388;
}
);
leftKerningGroup = H;
rightKerningGroup = "tse-cy";
unicode = 0426;
},
{
glyphname = "Sha-cy";
layers = (
{
layerId = "6571C5BB-D9C1-4570-8E40-7CA3FF1E644F";
name = Layer5;
width = 1312;
},
{
layerId = "CBCB5F37-9E29-4BCC-9D4B-3E9EA04104CC";
name = Layer4;
width = 1900;
},
{
layerId = "AE607061-5769-4FDA-9CBB-E069495578C9";
name = Layer3;
width = 1200;
},
{
layerId = "1859055D-7BE4-451C-9A54-85DF861917C1";
paths = (
{
closed = 1;
nodes = (
"1740 0 LINE",
"2059 1440 LINE",
"1787 1440 LINE",
"1524 254 LINE",
"1112 254 LINE",
"1375 1440 LINE",
"1103 1440 LINE",
"840 254 LINE",
"428 254 LINE",
"691 1440 LINE",
"419 1440 LINE",
"100 0 LINE"
);
}
);
width = 1920;
},
{
layerId = "E6C7DF62-62C5-46F1-94C3-6D079D8A542C";
paths = (
{
closed = 1;
nodes = (
"1580 0 LINE",
"1899 1440 LINE",
"1815 1440 LINE",
"1515 84 LINE",
"901 84 LINE",
"1201 1440 LINE",
"1117 1440 LINE",
"817 84 LINE",
"203 84 LINE",
"503 1440 LINE",
"419 1440 LINE",
"100 0 LINE"
);
}
);
width = 1760;
}
);
leftKerningGroup = H;
rightKerningGroup = H;
unicode = 0428;
},
{
glyphname = "Shcha-cy";
layers = (
{
layerId = "6571C5BB-D9C1-4570-8E40-7CA3FF1E644F";
name = Layer5;
width = 1324;
},
{
layerId = "CBCB5F37-9E29-4BCC-9D4B-3E9EA04104CC";
name = Layer4;
width = 1980;
},
{
layerId = "AE607061-5769-4FDA-9CBB-E069495578C9";
name = Layer3;
width = 1200;
},
{
components = (
{
name = "Sha-cy";
alignment = -1;
}
);
layerId = "1859055D-7BE4-451C-9A54-85DF861917C1";
paths = (
{
closed = 1;
nodes = (
"1849 -240 LINE",
"1955 240 LINE",
"1543 240 LINE",
"1490 0 LINE",
"1630 0 LINE",
"1577 -240 LINE"
);
}
);
width = 1962;
},
{
components = (
{
name = "Sha-cy";
alignment = -1;
}
);
layerId = "E6C7DF62-62C5-46F1-94C3-6D079D8A542C";
paths = (
{
closed = 1;
nodes = (
"1693 -160 LINE",
"1747 84 LINE",
"1523 84 LINE",
"1504 0 LINE",
"1644 0 LINE",
"1609 -160 LINE"
);
}
);
width = 1788;
}
);
leftKerningGroup = H;
rightKerningGroup = "tse-cy";
unicode = 0429;
},
{
glyphname = "Dzhe-cy";
layers = (
{
layerId = "6571C5BB-D9C1-4570-8E40-7CA3FF1E644F";
name = Layer5;
width = 1252;
},
{
layerId = "CBCB5F37-9E29-4BCC-9D4B-3E9EA04104CC";
name = Layer4;
width = 1526;
},
{
layerId = "AE607061-5769-4FDA-9CBB-E069495578C9";
name = Layer3;
width = 1200;
},
{
layerId = "1859055D-7BE4-451C-9A54-85DF861917C1";
paths = (
{
closed = 1;
nodes = (
"823 -240 LINE",
"876 0 LINE",
"1380 0 LINE",
"1699 1440 LINE",
"1427 1440 LINE",
"1164 254 LINE",
"428 254 LINE",
"691 1440 LINE",
"419 1440 LINE",
"100 0 LINE",
"604 0 LINE",
"551 -240 LINE"
);
}
);
width = 1560;
},
{
layerId = "E6C7DF62-62C5-46F1-94C3-6D079D8A542C";
paths = (
{
closed = 1;
nodes = (
"659 -240 LINE",
"712 0 LINE",
"1240 0 LINE",
"1559 1440 LINE",
"1475 1440 LINE",
"1175 84 LINE",
"203 84 LINE",
"503 1440 LINE",
"419 1440 LINE",
"100 0 LINE",
"628 0 LINE",
"575 -240 LINE"
);
}
);
width = 1420;
}
);
leftKerningGroup = "Sha-cy";
rightKerningGroup = "Sha-cy";
unicode = 040F;
},
{
glyphname = "Softsign-cy";
layers = (
{
layerId = "0B449CB6-2188-419A-9A7B-C88758FF5778";
name = "#instance";
paths = (
{
closed = 1;
nodes = (
"630 0 LINE SMOOTH",
"667.055 0 OFFCURVE",
"687.402 2.221 OFFCURVE",
"724 8 CURVE SMOOTH",
"981.136 46.271 OFFCURVE",
"1101.195 176.378 OFFCURVE",
"1158 432 CURVE SMOOTH",
"1208.848 660.815 OFFCURVE",
"1131.486 821.057 OFFCURVE",
"912 856 CURVE SMOOTH",
"877.014 861.998 OFFCURVE",
"857.499 864 OFFCURVE",
"822 864 CURVE SMOOTH",
"376 864 LINE",
"503 1440 LINE",
"419 1440 LINE",
"100 0 LINE"
);
},
{
closed = 1;
nodes = (
"357 780 LINE",
"803 780 LINE SMOOTH",
"836.948 780 OFFCURVE",
"855.669 778.451 OFFCURVE",
"889 772 CURVE SMOOTH",
"1057.52 738.084 OFFCURVE",
"1107.735 610.809 OFFCURVE",
"1068 432 CURVE SMOOTH",
"1023.834 233.254 OFFCURVE",
"936.407 128.7 OFFCURVE",
"738 92 CURVE SMOOTH",
"703.453 85.719 OFFCURVE",
"684.114 84 OFFCURVE",
"649 84 CURVE SMOOTH",
"203 84 LINE"
);
}
);
width = 1182;
},
{
layerId = "6571C5BB-D9C1-4570-8E40-7CA3FF1E644F";
name = Layer5;
width = 1196;
},
{
layerId = "CBCB5F37-9E29-4BCC-9D4B-3E9EA04104CC";
name = Layer4;
width = 1176;
},
{
layerId = "AE607061-5769-4FDA-9CBB-E069495578C9";
name = Layer3;
width = 1200;
},
{
layerId = "1859055D-7BE4-451C-9A54-85DF861917C1";
paths = (
{
closed = 1;
nodes = (
"706 0 LINE SMOOTH",
"754.01 0 OFFCURVE",
"780.514 0.877 OFFCURVE",
"828 8 CURVE SMOOTH",
"1110.661 50.346 OFFCURVE",
"1241.245 194.763 OFFCURVE",
"1304 476 CURVE SMOOTH",
"1359.227 728.167 OFFCURVE",
"1276.006 904.971 OFFCURVE",
"1035 944 CURVE SMOOTH",
"989.164 951.639 OFFCURVE",
"963.456 952 OFFCURVE",
"917 952 CURVE SMOOTH",
"581 952 LINE",
"689 1440 LINE",
"417 1440 LINE",
"98 0 LINE"
);
},
{
closed = 1;
nodes = (
"525 698 LINE",
"849 698 LINE SMOOTH",
"884.69 698 OFFCURVE",
"904.75 698.148 OFFCURVE",
"939 688 CURVE SMOOTH",
"1035.933 659.767 OFFCURVE",
"1053.161 582.27 OFFCURVE",
"1030 476 CURVE SMOOTH",
"1003.076 359.328 OFFCURVE",
"959.597 293.637 OFFCURVE",
"845 264 CURVE SMOOTH",
"808.632 254.302 OFFCURVE",
"787.614 254 OFFCURVE",
"750 254 CURVE SMOOTH",
"426 254 LINE"
);
}
);
width = 1318;
},
{
layerId = "E6C7DF62-62C5-46F1-94C3-6D079D8A542C";
paths = (
{
closed = 1;
nodes = (
"630 0 LINE SMOOTH",
"667.055 0 OFFCURVE",
"687.402 2.221 OFFCURVE",
"724 8 CURVE SMOOTH",
"981.136 46.271 OFFCURVE",
"1101.195 176.378 OFFCURVE",
"1158 432 CURVE SMOOTH",
"1208.848 660.815 OFFCURVE",
"1131.486 821.057 OFFCURVE",
"912 856 CURVE SMOOTH",
"877.014 861.998 OFFCURVE",
"857.499 864 OFFCURVE",
"822 864 CURVE SMOOTH",
"376 864 LINE",
"503 1440 LINE",
"419 1440 LINE",
"100 0 LINE"
);
},
{
closed = 1;
nodes = (
"357 780 LINE",
"803 780 LINE SMOOTH",
"836.948 780 OFFCURVE",
"855.669 778.451 OFFCURVE",
"889 772 CURVE SMOOTH",
"1057.52 738.084 OFFCURVE",
"1107.735 610.809 OFFCURVE",
"1068 432 CURVE SMOOTH",
"1023.834 233.254 OFFCURVE",
"936.407 128.7 OFFCURVE",
"738 92 CURVE SMOOTH",
"703.453 85.719 OFFCURVE",
"684.114 84 OFFCURVE",
"649 84 CURVE SMOOTH",
"203 84 LINE"
);
}
);
width = 1182;
}
);
leftKerningGroup = H;
rightKerningGroup = B;
unicode = 042C;
},
{
glyphname = "Hardsign-cy";
layers = (
{
layerId = "0B449CB6-2188-419A-9A7B-C88758FF5778";
name = "#instance";
paths = (
{
closed = 1;
nodes = (
"650 0 LINE SMOOTH",
"687.055 0 OFFCURVE",
"707.402 2.221 OFFCURVE",
"744 8 CURVE SMOOTH",
"1001.136 46.271 OFFCURVE",
"1121.195 176.378 OFFCURVE",
"1178 432 CURVE SMOOTH",
"1228.848 660.815 OFFCURVE",
"1151.486 821.057 OFFCURVE",
"932 856 CURVE SMOOTH",
"897.014 861.998 OFFCURVE",
"877.499 864 OFFCURVE",
"842 864 CURVE SMOOTH",
"396 864 LINE",
"523 1440 LINE",
"259 1440 LINE",
"241 1356 LINE",
"421 1356 LINE",
"120 0 LINE"
);
},
{
closed = 1;
nodes = (
"377 780 LINE",
"823 780 LINE SMOOTH",
"856.948 780 OFFCURVE",
"875.669 778.451 OFFCURVE",
"909 772 CURVE SMOOTH",
"1077.52 738.084 OFFCURVE",
"1127.735 610.809 OFFCURVE",
"1088 432 CURVE SMOOTH",
"1043.834 233.254 OFFCURVE",
"956.407 128.7 OFFCURVE",
"758 92 CURVE SMOOTH",
"723.453 85.719 OFFCURVE",
"704.114 84 OFFCURVE",
"669 84 CURVE SMOOTH",
"223 84 LINE"
);
}
);
width = 1182;
},
{
layerId = "6571C5BB-D9C1-4570-8E40-7CA3FF1E644F";
name = Layer5;
width = 1190;
},
{
layerId = "CBCB5F37-9E29-4BCC-9D4B-3E9EA04104CC";
name = Layer4;
width = 1138;
},
{
layerId = "AE607061-5769-4FDA-9CBB-E069495578C9";
name = Layer3;
width = 1200;
},
{
layerId = "1859055D-7BE4-451C-9A54-85DF861917C1";
paths = (
{
closed = 1;
nodes = (
"768 0 LINE SMOOTH",
"816.01 0 OFFCURVE",
"842.514 0.877 OFFCURVE",
"890 8 CURVE SMOOTH",
"1172.661 50.346 OFFCURVE",
"1303.245 194.763 OFFCURVE",
"1366 476 CURVE SMOOTH",
"1421.227 728.167 OFFCURVE",
"1338.006 904.971 OFFCURVE",
"1097 944 CURVE SMOOTH",
"1051.164 951.639 OFFCURVE",
"1025.456 952 OFFCURVE",
"979 952 CURVE SMOOTH",
"643 952 LINE",
"751 1440 LINE",
"279 1440 LINE",
"233 1230 LINE",
"433 1230 LINE",
"160 0 LINE"
);
},
{
closed = 1;
nodes = (
"587 698 LINE",
"911 698 LINE SMOOTH",
"946.69 698 OFFCURVE",
"966.75 698.148 OFFCURVE",
"1001 688 CURVE SMOOTH",
"1097.933 659.767 OFFCURVE",
"1115.161 582.27 OFFCURVE",
"1092 476 CURVE SMOOTH",
"1065.076 359.328 OFFCURVE",
"1021.597 293.637 OFFCURVE",
"907 264 CURVE SMOOTH",
"870.632 254.302 OFFCURVE",
"849.614 254 OFFCURVE",
"812 254 CURVE SMOOTH",
"488 254 LINE"
);
}
);
width = 1344;
},
{
layerId = "E6C7DF62-62C5-46F1-94C3-6D079D8A542C";
paths = (
{
closed = 1;
nodes = (
"650 0 LINE SMOOTH",
"687.055 0 OFFCURVE",
"707.402 2.221 OFFCURVE",
"744 8 CURVE SMOOTH",
"1001.136 46.271 OFFCURVE",
"1121.195 176.378 OFFCURVE",
"1178 432 CURVE SMOOTH",
"1228.848 660.815 OFFCURVE",
"1151.486 821.057 OFFCURVE",
"932 856 CURVE SMOOTH",
"897.014 861.998 OFFCURVE",
"877.499 864 OFFCURVE",
"842 864 CURVE SMOOTH",
"396 864 LINE",
"523 1440 LINE",
"259 1440 LINE",
"241 1356 LINE",
"421 1356 LINE",
"120 0 LINE"
);
},
{
closed = 1;
nodes = (
"377 780 LINE",
"823 780 LINE SMOOTH",
"856.948 780 OFFCURVE",
"875.669 778.451 OFFCURVE",
"909 772 CURVE SMOOTH",
"1077.52 738.084 OFFCURVE",
"1127.735 610.809 OFFCURVE",
"1088 432 CURVE SMOOTH",
"1043.834 233.254 OFFCURVE",
"956.407 128.7 OFFCURVE",
"758 92 CURVE SMOOTH",
"723.453 85.719 OFFCURVE",
"704.114 84 OFFCURVE",
"669 84 CURVE SMOOTH",
"223 84 LINE"
);
}
);
width = 1182;
}
);
leftKerningGroup = T;
rightKerningGroup = B;
unicode = 042A;
},
{
glyphname = "Nje-cy";
layers = (
{
layerId = "6571C5BB-D9C1-4570-8E40-7CA3FF1E644F";
name = Layer5;
width = 1372;
},
{
layerId = "CBCB5F37-9E29-4BCC-9D4B-3E9EA04104CC";
name = Layer4;
width = 2276;
},
{
layerId = "AE607061-5769-4FDA-9CBB-E069495578C9";
name = Layer3;
width = 1200;
},
{
components = (
{
name = "Softsign-cy";
transform = "{1, 0, 0, 1, 916, 0}";
alignment = -1;
}
);
layerId = "1859055D-7BE4-451C-9A54-85DF861917C1";
paths = (
{
closed = 1;
nodes = (
"372 0 LINE",
"526 696 LINE",
"1294 696 LINE",
"1351 950 LINE",
"583 950 LINE",
"691 1440 LINE",
"419 1440 LINE",
"100 0 LINE"
);
}
);
width = 2234;
},
{
components = (
{
name = "Softsign-cy";
transform = "{1, 0, 0, 1, 876, 0}";
alignment = -1;
}
);
layerId = "E6C7DF62-62C5-46F1-94C3-6D079D8A542C";
paths = (
{
closed = 1;
nodes = (
"184 0 LINE",
"357 780 LINE",
"1205 780 LINE",
"1224 864 LINE",
"376 864 LINE",
"503 1440 LINE",
"419 1440 LINE",
"100 0 LINE"
);
}
);
width = 2058;
}
);
leftKerningGroup = "En-cy";
rightKerningGroup = "Softsign-cy";
unicode = 040A;
},
{
glyphname = "Ereversed-cy";
layers = (
{
layerId = "0B449CB6-2188-419A-9A7B-C88758FF5778";
name = "#instance";
paths = (
{
closed = 1;
nodes = (
"1114.268 -30 OFFCURVE",
"1347.804 233.227 OFFCURVE",
"1444 720 CURVE SMOOTH",
"1531.44 1162.111 OFFCURVE",
"1369.457 1470 OFFCURVE",
"964 1470 CURVE SMOOTH",
"588.952 1470 OFFCURVE",
"390.673 1316.004 OFFCURVE",
"235 972 CURVE",
"320 958 LINE",
"448.922 1253.959 OFFCURVE",
"623.137 1379.418 OFFCURVE",
"945 1384 CURVE SMOOTH",
"1287.393 1387.858 OFFCURVE",
"1430.955 1133.214 OFFCURVE",
"1363 762 CURVE",
"823 762 LINE",
"804 678 LINE",
"1344 678 LINE",
"1298.098 489.431 OFFCURVE",
"1252.215 387.313 OFFCURVE",
"1117 248 CURVE SMOOTH",
"973.436 100.018 OFFCURVE",
"856.283 56.399 OFFCURVE",
"650 54 CURVE SMOOTH",
"379.309 49.787 OFFCURVE",
"228.675 186.708 OFFCURVE",
"215 456 CURVE",
"126 432 LINE",
"130.332 122.294 OFFCURVE",
"313.466 -30 OFFCURVE",
"631 -30 CURVE SMOOTH"
);
}
);
width = 1384;
},
{
layerId = "AE607061-5769-4FDA-9CBB-E069495578C9";
name = Layer3;
width = 1200;
},
{
layerId = "CBCB5F37-9E29-4BCC-9D4B-3E9EA04104CC";
name = Layer4;
width = 1366;
},
{
layerId = "6571C5BB-D9C1-4570-8E40-7CA3FF1E644F";
name = Layer5;
width = 1226;
},
{
layerId = "1859055D-7BE4-451C-9A54-85DF861917C1";
paths = (
{
closed = 1;
nodes = (
"1156.49 -30 OFFCURVE",
"1401.024 227.848 OFFCURVE",
"1510 720 CURVE SMOOTH",
"1607.534 1163.877 OFFCURVE",
"1419.044 1470 OFFCURVE",
"996 1470 CURVE SMOOTH",
"609.84 1470 OFFCURVE",
"395.255 1328.155 OFFCURVE",
"236 976 CURVE",
"500 938 LINE",
"597.234 1127.892 OFFCURVE",
"708.838 1211.643 OFFCURVE",
"921 1214 CURVE SMOOTH",
"1145.327 1217.918 OFFCURVE",
"1257.666 1079.268 OFFCURVE",
"1244 848 CURVE",
"738 848 LINE",
"682 594 LINE",
"1186 594 LINE",
"1150.134 495.967 OFFCURVE",
"1121.845 443.845 OFFCURVE",
"1048 370 CURVE",
"942.82 259.041 OFFCURVE",
"855.016 228.448 OFFCURVE",
"702 226 CURVE SMOOTH",
"522.322 223.958 OFFCURVE",
"422.374 311.629 OFFCURVE",
"405 490 CURVE",
"124 424 LINE",
"148.591 110.463 OFFCURVE",
"339.819 -30 OFFCURVE",
"663 -30 CURVE SMOOTH"
);
}
);
width = 1450;
},
{
layerId = "E6C7DF62-62C5-46F1-94C3-6D079D8A542C";
paths = (
{
closed = 1;
nodes = (
"1114.268 -30 OFFCURVE",
"1347.804 233.227 OFFCURVE",
"1444 720 CURVE SMOOTH",
"1531.44 1162.111 OFFCURVE",
"1369.457 1470 OFFCURVE",
"964 1470 CURVE SMOOTH",
"588.952 1470 OFFCURVE",
"390.673 1316.004 OFFCURVE",
"235 972 CURVE",
"320 958 LINE",
"448.922 1253.959 OFFCURVE",
"623.137 1379.418 OFFCURVE",
"945 1384 CURVE SMOOTH",
"1287.393 1387.858 OFFCURVE",
"1430.955 1133.214 OFFCURVE",
"1363 762 CURVE",
"823 762 LINE",
"804 678 LINE",
"1344 678 LINE",
"1298.098 489.431 OFFCURVE",
"1252.215 387.313 OFFCURVE",
"1117 248 CURVE SMOOTH",
"973.436 100.018 OFFCURVE",
"856.283 56.399 OFFCURVE",
"650 54 CURVE SMOOTH",
"379.309 49.787 OFFCURVE",
"228.675 186.708 OFFCURVE",
"215 456 CURVE",
"126 432 LINE",
"130.332 122.294 OFFCURVE",
"313.466 -30 OFFCURVE",
"631 -30 CURVE SMOOTH"
);
}
);
width = 1384;
}
);
leftKerningGroup = X;
rightKerningGroup = O;
unicode = 042D;
},
{
glyphname = "Tshe-cy";
layers = (
{
layerId = "6571C5BB-D9C1-4570-8E40-7CA3FF1E644F";
name = Layer5;
width = 1216;
},
{
layerId = "CBCB5F37-9E29-4BCC-9D4B-3E9EA04104CC";
name = Layer4;
width = 1302;
},
{
layerId = "AE607061-5769-4FDA-9CBB-E069495578C9";
name = Layer3;
width = 1200;
},
{
components = (
{
name = "Shha-cy";
alignment = -1;
}
);
layerId = "1859055D-7BE4-451C-9A54-85DF861917C1";
paths = (
{
closed = 1;
nodes = (
"946 1200 LINE",
"999 1440 LINE",
"279 1440 LINE",
"226 1200 LINE"
);
}
);
width = 1372;
},
{
components = (
{
name = "Shha-cy";
alignment = -1;
}
);
layerId = "E6C7DF62-62C5-46F1-94C3-6D079D8A542C";
paths = (
{
closed = 1;
nodes = (
"801 1356 LINE",
"819 1440 LINE",
"279 1440 LINE",
"261 1356 LINE"
);
}
);
width = 1254;
}
);
leftKerningGroup = V;
rightKerningGroup = B;
unicode = 040B;
},
{
glyphname = "Iu-cy";
layers = (
{
layerId = "6571C5BB-D9C1-4570-8E40-7CA3FF1E644F";
name = Layer5;
width = 1354;
},
{
layerId = "CBCB5F37-9E29-4BCC-9D4B-3E9EA04104CC";
name = Layer4;
width = 2168;
},
{
layerId = "AE607061-5769-4FDA-9CBB-E069495578C9";
name = Layer3;
width = 1200;
},
{
components = (
{
name = "Oval-condensed";
transform = "{1, 0, 0, 1, 560, 0}";
alignment = -1;
}
);
layerId = "1859055D-7BE4-451C-9A54-85DF861917C1";
paths = (
{
closed = 1;
nodes = (
"372 0 LINE",
"501 584 LINE",
"741 584 LINE",
"802 856 LINE",
"562 856 LINE",
"691 1440 LINE",
"419 1440 LINE",
"100 0 LINE"
);
}
);
width = 1912;
},
{
components = (
{
name = "Oval-condensed";
transform = "{1, 0, 0, 1, 560, 0}";
alignment = -1;
}
);
layerId = "E6C7DF62-62C5-46F1-94C3-6D079D8A542C";
paths = (
{
closed = 1;
nodes = (
"184 0 LINE",
"334 678 LINE",
"802 678 LINE",
"821 762 LINE",
"353 762 LINE",
"503 1440 LINE",
"419 1440 LINE",
"100 0 LINE"
);
}
);
width = 1796;
}
);
leftKerningGroup = H;
rightKerningGroup = O;
unicode = 042E;
},
{
glyphname = "Dje-cy";
layers = (
{
layerId = "0B449CB6-2188-419A-9A7B-C88758FF5778";
name = "#instance";
paths = (
{
closed = 1;
nodes = (
"394 0 LINE",
"509 518 LINE SMOOTH",
"524 585 OFFCURVE",
"532 622 OFFCURVE",
"565 682 CURVE SMOOTH",
"636 815 OFFCURVE",
"730 848 OFFCURVE",
"882 848 CURVE SMOOTH",
"1055 848 OFFCURVE",
"1138 730 OFFCURVE",
"1099 556 CURVE SMOOTH",
"1058 368 OFFCURVE",
"957 276 OFFCURVE",
"767 276 CURVE",
"706 0 LINE",
"1089 0 OFFCURVE",
"1292 181 OFFCURVE",
"1376 558 CURVE SMOOTH",
"1449 886 OFFCURVE",
"1300 1110 OFFCURVE",
"980 1110 CURVE SMOOTH",
"811 1110 OFFCURVE",
"715 1087 OFFCURVE",
"579 988 CURVE",
"626 1200 LINE",
"946 1200 LINE",
"999 1440 LINE",
"279 1440 LINE",
"226 1200 LINE",
"386 1200 LINE",
"120 0 LINE"
);
}
);
width = 1372;
},
{
layerId = "6571C5BB-D9C1-4570-8E40-7CA3FF1E644F";
name = Layer5;
width = 1190;
},
{
layerId = "CBCB5F37-9E29-4BCC-9D4B-3E9EA04104CC";
name = Layer4;
width = 1136;
},
{
layerId = "AE607061-5769-4FDA-9CBB-E069495578C9";
name = Layer3;
width = 1200;
},
{
layerId = "1859055D-7BE4-451C-9A54-85DF861917C1";
paths = (
{
closed = 1;
nodes = (
"394 0 LINE",
"509 518 LINE SMOOTH",
"523.813 584.657 OFFCURVE",
"532.276 622.006 OFFCURVE",
"565 682 CURVE SMOOTH",
"635.532 814.767 OFFCURVE",
"729.851 848 OFFCURVE",
"882 848 CURVE SMOOTH",
"1054.653 848 OFFCURVE",
"1138.176 730.291 OFFCURVE",
"1099 556 CURVE SMOOTH",
"1057.649 368.04 OFFCURVE",
"957.456 276 OFFCURVE",
"767 276 CURVE",
"706 0 LINE",
"1088.65 0 OFFCURVE",
"1292.314 181.412 OFFCURVE",
"1376 558 CURVE SMOOTH",
"1448.937 886.215 OFFCURVE",
"1299.534 1110 OFFCURVE",
"980 1110 CURVE SMOOTH",
"811.486 1110 OFFCURVE",
"715.287 1087.118 OFFCURVE",
"579 988 CURVE",
"626 1200 LINE",
"946 1200 LINE",
"999 1440 LINE",
"279 1440 LINE",
"226 1200 LINE",
"386 1200 LINE",
"120 0 LINE"
);
}
);
width = 1372;
},
{
layerId = "E6C7DF62-62C5-46F1-94C3-6D079D8A542C";
paths = (
{
closed = 1;
nodes = (
"184 0 LINE",
"290 476 LINE SMOOTH",
"309 566 OFFCURVE",
"332 668 OFFCURVE",
"378 760 CURVE SMOOTH",
"474 948 OFFCURVE",
"633 1026 OFFCURVE",
"847 1026 CURVE SMOOTH",
"1131 1026 OFFCURVE",
"1245 890 OFFCURVE",
"1177 582 CURVE SMOOTH",
"1106 262 OFFCURVE",
"917 84 OFFCURVE",
"665 84 CURVE",
"646 0 LINE",
"974 0 OFFCURVE",
"1183 232 OFFCURVE",
"1258 568 CURVE SMOOTH",
"1339 934 OFFCURVE",
"1192 1110 OFFCURVE",
"866 1110 CURVE SMOOTH",
"666 1110 OFFCURVE",
"491 1044 OFFCURVE",
"377 898 CURVE",
"479 1356 LINE",
"801 1356 LINE",
"819 1440 LINE",
"279 1440 LINE",
"261 1356 LINE",
"401 1356 LINE",
"100 0 LINE"
);
}
);
width = 1252;
}
);
leftKerningGroup = T;
rightKerningGroup = b;
unicode = 0402;
},
{
glyphname = "Obarred-cy";
layers = (
{
layerId = "6571C5BB-D9C1-4570-8E40-7CA3FF1E644F";
name = Layer5;
width = 1244;
},
{
layerId = "CBCB5F37-9E29-4BCC-9D4B-3E9EA04104CC";
name = Layer4;
width = 1476;
},
{
layerId = "AE607061-5769-4FDA-9CBB-E069495578C9";
name = Layer3;
width = 1200;
},
{
components = (
{
name = O;
alignment = -1;
}
);
layerId = "1859055D-7BE4-451C-9A54-85DF861917C1";
paths = (
{
closed = 1;
nodes = (
"1339 584 LINE",
"1400 856 LINE",
"440 856 LINE",
"379 584 LINE"
);
}
);
width = 1556;
},
{
components = (
{
name = O;
alignment = -1;
}
);
layerId = "E6C7DF62-62C5-46F1-94C3-6D079D8A542C";
paths = (
{
closed = 1;
nodes = (
"1420 678 LINE",
"1439 762 LINE",
"259 762 LINE",
"240 678 LINE"
);
}
);
width = 1452;
}
);
leftKerningGroup = O;
rightKerningGroup = O;
unicode = 04E8;
},
{
glyphname = "De-cy.loclBGR";
layers = (
{
components = (
{
name = V;
transform = "{1, 0, -0.443, -1, 433, 1440}";
alignment = -1;
}
);
layerId = "1859055D-7BE4-451C-9A54-85DF861917C1";
paths = (
{
closed = 1;
nodes = (
"254 -180 LINE",
"294 0 LINE",
"1158 0 LINE",
"1118 -180 LINE",
"1374 -180 LINE",
"1470 254 LINE",
"96 254 LINE",
"0 -180 LINE"
);
}
);
width = 1554;
},
{
components = (
{
name = V;
transform = "{1, 0, -0.443, -1, 447, 1440}";
alignment = -1;
}
);
layerId = "E6C7DF62-62C5-46F1-94C3-6D079D8A542C";
paths = (
{
closed = 1;
nodes = (
"69 -160 LINE",
"104 0 LINE",
"1228 0 LINE",
"1193 -160 LINE",
"1277 -160 LINE",
"1331 84 LINE",
"39 84 LINE",
"-15 -160 LINE"
);
}
);
width = 1412;
}
);
leftKerningGroup = de;
rightKerningGroup = N;
},
{
glyphname = "be-cy";
layers = (
{
layerId = "0B449CB6-2188-419A-9A7B-C88758FF5778";
name = "#instance";
paths = (
{
closed = 1;
nodes = (
"873.2 -30 OFFCURVE",
"1058.208 147.436 OFFCURVE",
"1137 502 CURVE SMOOTH",
"1207.303 818.365 OFFCURVE",
"1077.018 1038 OFFCURVE",
"778 1038 CURVE SMOOTH",
"567.935 1038 OFFCURVE",
"448.929 985.681 OFFCURVE",
"315 824 CURVE",
"375.18 1025.258 OFFCURVE",
"416.359 1151.337 OFFCURVE",
"601 1250 CURVE",
"819.347 1372.902 OFFCURVE",
"969.706 1349.789 OFFCURVE",
"1216 1390 CURVE",
"1222 1470 LINE",
"966.018 1419.399 OFFCURVE",
"805.473 1458.703 OFFCURVE",
"578 1328 CURVE",
"454.731 1260.323 OFFCURVE",
"400.832 1198.77 OFFCURVE",
"336 1074 CURVE SMOOTH",
"241.881 889.603 OFFCURVE",
"212.008 778.201 OFFCURVE",
"168 576 CURVE",
"89.345 222.891 OFFCURVE",
"200.574 -30 OFFCURVE",
"515 -30 CURVE SMOOTH"
);
},
{
closed = 1;
nodes = (
"292.818 54 OFFCURVE",
"183.275 238.294 OFFCURVE",
"242 504 CURVE SMOOTH",
"306.313 797.097 OFFCURVE",
"448.281 954 OFFCURVE",
"741 954 CURVE SMOOTH",
"994.186 954 OFFCURVE",
"1106.414 770.213 OFFCURVE",
"1048 504 CURVE",
"982.075 210.038 OFFCURVE",
"838.291 54 OFFCURVE",
"544 54 CURVE SMOOTH"
);
}
);
width = 1146;
},
{
layerId = "6571C5BB-D9C1-4570-8E40-7CA3FF1E644F";
name = Layer5;
width = 1196;
},
{
layerId = "CBCB5F37-9E29-4BCC-9D4B-3E9EA04104CC";
name = Layer4;
width = 1170;
},
{
layerId = "AE607061-5769-4FDA-9CBB-E069495578C9";
name = Layer3;
width = 1200;
},
{
layerId = "1859055D-7BE4-451C-9A54-85DF861917C1";
paths = (
{
closed = 1;
nodes = (
"857 -36 OFFCURVE",
"1127 180 OFFCURVE",
"1197 498 CURVE SMOOTH",
"1259 778 OFFCURVE",
"1138 1006 OFFCURVE",
"852 1006 CURVE SMOOTH",
"736 1006 OFFCURVE",
"598 968 OFFCURVE",
"489 848 CURVE",
"520 952 OFFCURVE",
"593 1064 OFFCURVE",
"698 1122 CURVE SMOOTH",
"853 1208 OFFCURVE",
"1109 1190 OFFCURVE",
"1270 1230 CURVE",
"1299 1470 LINE",
"1036 1422 OFFCURVE",
"800 1430 OFFCURVE",
"594 1304 CURVE SMOOTH",
"506 1250 OFFCURVE",
"417 1172 OFFCURVE",
"354 1080 CURVE SMOOTH",
"256 932 OFFCURVE",
"178 672 OFFCURVE",
"156 502 CURVE SMOOTH",
"116 186 OFFCURVE",
"237 -28 OFFCURVE",
"548 -32 CURVE SMOOTH"
);
},
{
closed = 1;
nodes = (
"466 222 OFFCURVE",
"403 316 OFFCURVE",
"441 486 CURVE SMOOTH",
"477 650 OFFCURVE",
"579 750 OFFCURVE",
"733 750 CURVE SMOOTH",
"883 750 OFFCURVE",
"945 650 OFFCURVE",
"909 486 CURVE SMOOTH",
"873 326 OFFCURVE",
"770 222 OFFCURVE",
"616 222 CURVE SMOOTH"
);
}
);
width = 1207;
},
{
layerId = "E6C7DF62-62C5-46F1-94C3-6D079D8A542C";
paths = (
{
closed = 1;
nodes = (
"873.2 -30 OFFCURVE",
"1058.208 147.436 OFFCURVE",
"1137 502 CURVE SMOOTH",
"1207.303 818.365 OFFCURVE",
"1077.018 1038 OFFCURVE",
"778 1038 CURVE SMOOTH",
"567.935 1038 OFFCURVE",
"448.929 985.681 OFFCURVE",
"315 824 CURVE",
"375.18 1025.258 OFFCURVE",
"416.359 1151.337 OFFCURVE",
"601 1250 CURVE",
"819.347 1372.902 OFFCURVE",
"969.706 1349.789 OFFCURVE",
"1216 1390 CURVE",
"1222 1470 LINE",
"966.018 1419.399 OFFCURVE",
"805.473 1458.703 OFFCURVE",
"578 1328 CURVE SMOOTH",
"454.731 1260.323 OFFCURVE",
"400.832 1198.77 OFFCURVE",
"336 1074 CURVE SMOOTH",
"241.881 889.603 OFFCURVE",
"212.008 778.201 OFFCURVE",
"168 576 CURVE SMOOTH",
"89.345 222.891 OFFCURVE",
"200.574 -30 OFFCURVE",
"515 -30 CURVE SMOOTH"
);
},
{
closed = 1;
nodes = (
"292.818 54 OFFCURVE",
"183.275 238.294 OFFCURVE",
"242 504 CURVE SMOOTH",
"306.313 797.097 OFFCURVE",
"448.281 954 OFFCURVE",
"741 954 CURVE SMOOTH",
"994.186 954 OFFCURVE",
"1106.414 770.213 OFFCURVE",
"1048 504 CURVE SMOOTH",
"982.075 210.038 OFFCURVE",
"838.291 54 OFFCURVE",
"544 54 CURVE SMOOTH"
);
}
);
width = 1146;
}
);
leftKerningGroup = "be-cy";
rightKerningGroup = o;
unicode = 0431;
},
